{
.appVersion = "1141";
customParameters = (
{
name = glyphOrder;
value = (
space,
nbspace,
A,
Agrave,
Aacute,
Acircumflex,
Atilde,
Adieresis,
Aring,
Amacron,
Abreve,
Aogonek,
Aringacute,
Adblgrave,
Ainvertedbreve,
Adotbelow,
Ahookabove,
Acircumflexacute,
Acircumflexgrave,
Acircumflexhookabove,
Acircumflextilde,
Acircumflexdotbelow,
Abreveacute,
Abrevegrave,
Abrevehookabove,
Abrevetilde,
Abrevedotbelow,
B,
C,
Ccedilla,
Cacute,
Ccircumflex,
Cdotaccent,
Ccaron,
D,
Dcaron,
E,
Egrave,
Eacute,
Ecircumflex,
Edieresis,
Emacron,
Ebreve,
Edotaccent,
Eogonek,
Ecaron,
Edblgrave,
Einvertedbreve,
Edotbelow,
Ehookabove,
Etilde,
Ecircumflexacute,
Ecircumflexgrave,
Ecircumflexhookabove,
Ecircumflextilde,
Ecircumflexdotbelow,
F,
G,
Gcircumflex,
Gbreve,
Gdotaccent,
Gcommaaccent,
Gcaron,
H,
Hcircumflex,
I,
Igrave,
Iacute,
Icircumflex,
Idieresis,
Itilde,
Imacron,
Ibreve,
Iogonek,
Idotaccent,
Idblgrave,
Iinvertedbreve,
Ihookabove,
Idotbelow,
J,
Jcircumflex,
K,
Kcommaaccent,
L,
Lacute,
Lcommaaccent,
Lcaron,
M,
N,
Ntilde,
Nacute,
Ncommaaccent,
Ncaron,
O,
Ograve,
Oacute,
Ocircumflex,
Otilde,
Odieresis,
Omacron,
Obreve,
Ohungarumlaut,
Ohorn,
Oogonek,
Odblgrave,
Oinvertedbreve,
Odieresismacron,
Otildemacron,
Odotaccentmacron,
Odotbelow,
Ohookabove,
Ocircumflexacute,
Ocircumflexgrave,
Ocircumflexhookabove,
Ocircumflextilde,
Ocircumflexdotbelow,
Ohornacute,
Ohorngrave,
Ohornhookabove,
Ohorntilde,
Ohorndotbelow,
P,
Q,
R,
Racute,
Rcommaaccent,
Rcaron,
Rdblgrave,
Rinvertedbreve,
S,
Sacute,
Scircumflex,
Scedilla,
Scaron,
Scommaaccent,
T,
Tcedilla,
Tcaron,
Tcommaaccent,
U,
Ugrave,
Uacute,
Ucircumflex,
Udieresis,
Utilde,
Umacron,
Ubreve,
Uring,
Uhungarumlaut,
Uogonek,
Uhorn,
Udblgrave,
Uinvertedbreve,
Udotbelow,
Uhookabove,
Uhornacute,
Uhorngrave,
Uhornhookabove,
Uhorntilde,
Uhorndotbelow,
V,
W,
Wcircumflex,
Wgrave,
Wacute,
Wdieresis,
X,
Y,
Yacute,
Ycircumflex,
Ydieresis,
Ymacron,
Ygrave,
Ydotbelow,
Yhookabove,
Ytilde,
Z,
Zacute,
Zdotaccent,
Zcaron,
AE,
AEacute,
Eth,
Oslash,
Oslashacute,
Thorn,

glyphs = (
{
glyphname = A;
layers = (
{
layerId = "E225F0DD-7274-4E95-954B-383A64365C0A";
paths = (
{
closed = 1;
nodes = (
"543 1456 LINE",
"691 1456 LINE",
"854 0 LINE",
"753 0 LINE",
"620 1230 LINE SMOOTH",
"616 1271 OFFCURVE",
"610 1332 OFFCURVE",
"606 1369 QCURVE",
"604 1369 LINE",
"586 1332 OFFCURVE",
"557 1271 OFFCURVE",
"538 1230 QCURVE SMOOTH",
"-31 0 LINE",
"-138 0 LINE"
);
},
{
closed = 1;
nodes = (
"175 510 LINE",
"752 510 LINE",
"749 418 LINE",
"120 418 LINE"
);
}
);
width = 972;
}
);
leftKerningGroup = A_UC;
rightKerningGroup = A_UC;
unicode = 0041;
},
{
glyphname = B;
layers = (
{
layerId = "E225F0DD-7274-4E95-954B-383A64365C0A";
paths = (
{
closed = 1;
nodes = (
"254 1456 LINE",
"614 1456 LINE SMOOTH",
"788 1456 OFFCURVE",
"948 1279 OFFCURVE",
"913 1091 QCURVE SMOOTH",
"892 963 OFFCURVE",
"767 792 OFFCURVE",
"685 767 QCURVE",
"684 763 LINE",
"775 736 OFFCURVE",
"862 545 OFFCURVE",
"837 395 QCURVE SMOOTH",
"802 207 OFFCURVE",
"562 0 OFFCURVE",
"389 0 QCURVE SMOOTH",
"-3 0 LINE"
);
},
{
closed = 1;
nodes = (
"416 99 LINE SMOOTH",
"556 99 OFFCURVE",
"713 258 OFFCURVE",
"734 398 QCURVE SMOOTH",
"755 541 OFFCURVE",
"648 708 OFFCURVE",
"509 708 QCURVE SMOOTH",
"224 708 LINE",
"119 99 LINE"
);
},
{
closed = 1;
nodes = (
"505 807 LINE SMOOTH",
"644 807 OFFCURVE",
"790 954 OFFCURVE",
"810 1088 QCURVE SMOOTH",
"829 1222 OFFCURVE",
"726 1357 OFFCURVE",
"586 1357 QCURVE SMOOTH",
"340 1357 LINE",
"245 807 LINE"
);
}
);
width = 948;
}
);
leftKerningGroup = StraightRight_UC;
unicode = 0042;
},
{
glyphname = C;
layers = (
{
layerId = "E225F0DD-7274-4E95-954B-383A64365C0A";
paths = (
{
closed = 1;
nodes = (
"91 767 LINE SMOOTH",
"158 1140 OFFCURVE",
"462 1476 OFFCURVE",
"699 1476 QCURVE SMOOTH",
"913 1476 OFFCURVE",
"1061 1237 OFFCURVE",
"1046 1014 QCURVE SMOOTH",
"1043 984 LINE",
"938 984 LINE",
"941 1014 LINE SMOOTH",
"959 1196 OFFCURVE",
"834 1377 OFFCURVE",
"671 1377 QCURVE SMOOTH",
"489 1377 OFFCURVE",
"253 1079 OFFCURVE",
"197 767 QCURVE SMOOTH",
"183 689 LINE SMOOTH",
"128 381 OFFCURVE",
"288 80 OFFCURVE",
"467 80 QCURVE SMOOTH",
"625 80 OFFCURVE",
"820 255 OFFCURVE",
"844 442 QCURVE SMOOTH",
"846 472 LINE",
"953 472 LINE",
"948 432 LINE SMOOTH",
"920 204 OFFCURVE",
"663 -19 OFFCURVE",
"442 -19 QCURVE SMOOTH",
"223 -19 OFFCURVE",
"12 329 OFFCURVE",
"77 689 QCURVE SMOOTH"
);
}
);
width = 1044;
}
);
leftKerningGroup = CG_UC;
rightKerningGroup = C_UC;
unicode = 0043;
},
{
glyphname = D;
layers = (
{
layerId = "E225F0DD-7274-4E95-954B-383A64365C0A";
paths = (
{
closed = 1;
nodes = (
"254 1456 LINE",
"569 1456 LINE SMOOTH",
"822 1456 OFFCURVE",
"1040 1092 OFFCURVE",
"985 767 QCURVE SMOOTH",
"969 689 LINE SMOOTH",
"914 365 OFFCURVE",
"574 0 OFFCURVE",
"312 0 QCURVE SMOOTH",
"-3 0 LINE"
);
},
{
closed = 1;
nodes = (
"340 99 LINE SMOOTH",
"547 99 OFFCURVE",
"807 409 OFFCURVE",
"861 689 QCURVE SMOOTH",
"876 767 LINE SMOOTH",
"930 1048 OFFCURVE",
"737 1357 OFFCURVE",
"541 1357 QCURVE SMOOTH",
"340 1357 LINE",
"119 99 LINE"
);
}
);
width = 1059;
}
);
leftKerningGroup = StraightRight_UC;
rightKerningGroup = D_UC;
unicode = 0044;
},
{
glyphname = E;
layers = (
{
layerId = "E225F0DD-7274-4E95-954B-383A64365C0A";
paths = (
{
closed = 1;
nodes = (
"254 1456 LINE",
"952 1456 LINE",
"924 1357 LINE",
"340 1357 LINE",
"243 801 LINE",
"747 801 LINE",
"719 702 LINE",
"225 702 LINE",
"119 99 LINE",
"733 99 LINE",
"705 0 LINE",
"-3 0 LINE"
);
}
);
width = 827;
}
);
leftKerningGroup = StraightRight_UC;
rightKerningGroup = E_UC;
unicode = 0045;
},
{
glyphname = F;
layers = (
{
layerId = "E225F0DD-7274-4E95-954B-383A64365C0A";
paths = (
{
closed = 1;
nodes = (
"254 1456 LINE",
"880 1456 LINE",
"852 1357 LINE",
"340 1357 LINE",
"242 791 LINE",
"702 791 LINE",
"674 693 LINE",
"225 693 LINE",
"101 0 LINE",
"-3 0 LINE"
);
}
);
width = 763;
}
);
leftKerningGroup = StraightRight_UC;
unicode = 0046;
},
{
glyphname = G;
layers = (
{
layerId = "E225F0DD-7274-4E95-954B-383A64365C0A";
paths = (
{
closed = 1;
nodes = (
"91 767 LINE SMOOTH",
"150 1106 OFFCURVE",
"468 1476 OFFCURVE",
"699 1476 QCURVE SMOOTH",
"910 1476 OFFCURVE",
"1067 1245 OFFCURVE",
"1048 1056 QCURVE SMOOTH",
"1046 1026 LINE",
"940 1026 LINE",
"942 1056 LINE SMOOTH",
"959 1202 OFFCURVE",
"831 1377 OFFCURVE",
"670 1377 QCURVE SMOOTH",
"492 1377 OFFCURVE",
"250 1062 OFFCURVE",
"197 767 QCURVE SMOOTH",
"183 689 LINE SMOOTH",
"130 394 OFFCURVE",
"296 79 OFFCURVE",
"488 79 QCURVE SMOOTH",
"585 79 OFFCURVE",
"733 134 OFFCURVE",
"802 188 QCURVE",
"868 593 LINE",
"544 593 LINE",
"571 689 LINE",
"993 689 LINE",
"893 143 LINE",
"845 98 OFFCURVE",
"618 -20 OFFCURVE",
"459 -20 QCURVE SMOOTH",
"212 -20 OFFCURVE",
"16 350 OFFCURVE",
"75 689 QCURVE SMOOTH"
);
}
);
width = 1079;
}
);
leftKerningGroup = CG_UC;
rightKerningGroup = G_UC;
unicode = 0047;
},
{
glyphname = H;
layers = (
{
layerId = "E225F0DD-7274-4E95-954B-383A64365C0A";
paths = (
{
closed = 1;
nodes = (
"254 1456 LINE",
"358 1456 LINE",
"243 802 LINE",
"915 802 LINE",
"1026 1456 LINE",
"1130 1456 LINE",
"873 0 LINE",
"769 0 LINE",
"888 704 LINE",
"225 704 LINE",
"101 0 LINE",
"-3 0 LINE"
);
}
);
width = 1126;
}
);
leftKerningGroup = StraightRight_UC;
rightKerningGroup = LeftStraight_UC;
unicode = 0048;
},
{
glyphname = I;
layers = (
{
layerId = "E225F0DD-7274-4E95-954B-383A64365C0A";
paths = (
{
closed = 1;
nodes = (
"263 1456 LINE",
"368 1456 LINE",
"111 0 LINE",
"7 0 LINE"
);
}
);
width = 374;
}
);
leftKerningGroup = StraightRight_UC;
rightKerningGroup = LeftStraight_UC;
unicode = 0049;
},
{
glyphname = J;
layers = (
{
layerId = "E225F0DD-7274-4E95-954B-383A64365C0A";
paths = (
{
closed = 1;
nodes = (
"-31 435 LINE",
"65 435 LINE",
"63 415 LINE SMOOTH",
"44 225 OFFCURVE",
"130 79 OFFCURVE",
"257 79 QCURVE SMOOTH",
"382 79 OFFCURVE",
"520 258 OFFCURVE",
"555 450 QCURVE SMOOTH",
"738 1456 LINE",
"842 1456 LINE",
"661 440 LINE SMOOTH",
"621 217 OFFCURVE",
"427 -20 OFFCURVE",
"236 -20 QCURVE SMOOTH",
"79 -20 OFFCURVE",
"-68 189 OFFCURVE",
"-33 395 QCURVE SMOOTH"
);
}
);
width = 819;
}
);
leftKerningGroup = J_UC;
rightKerningGroup = JU_UC;
unicode = 004A;
},
{
glyphname = K;
layers = (
{
layerId = "E225F0DD-7274-4E95-954B-383A64365C0A";
paths = (
{
closed = 1;
nodes = (
"254 1456 LINE",
"358 1456 LINE",
"228 717 LINE",
"919 1456 LINE",
"1041 1456 LINE",
"198 556 LINE",
"101 0 LINE",
"-3 0 LINE"
);
},
{
closed = 1;
nodes = (
"351 780 LINE",
"418 854 LINE",
"828 0 LINE",
"731 0 LINE"
);
}
);
width = 901;
}
);
leftKerningGroup = StraightRight_UC;
rightKerningGroup = K_UC;
unicode = 004B;
},
{
glyphname = L;
layers = (
{
layerId = "E225F0DD-7274-4E95-954B-383A64365C0A";
paths = (
{
closed = 1;
nodes = (
"254 1456 LINE",
"358 1456 LINE",
"119 99 LINE",
"702 99 LINE",
"674 0 LINE",
"-3 0 LINE"
);
}
);
width = 821;
}
);
leftKerningGroup = StraightRight_UC;
rightKerningGroup = L_UC;
unicode = 004C;
},
{
glyphname = M;
layers = (
{
layerId = "E225F0DD-7274-4E95-954B-383A64365C0A";
paths = (
{
closed = 1;
nodes = (
"254 1456 LINE",
"392 1456 LINE",
"600 254 LINE SMOOTH",
"606 220 OFFCURVE",
"615 153 OFFCURVE",
"617 116 QCURVE",
"621 116 LINE",
"633 153 OFFCURVE",
"664 221 OFFCURVE",
"681 254 QCURVE SMOOTH",
"1286 1456 LINE",
"1441 1456 LINE",
"1184 0 LINE",
"1078 0 LINE",
"1287 1156 LINE SMOOTH",
"1293 1190 OFFCURVE",
"1308 1274 OFFCURVE",
"1316 1308 QCURVE",
"1311 1308 LINE",
"1292 1272 OFFCURVE",
"1251 1186 OFFCURVE",
"1236 1156 QCURVE SMOOTH",
"658 0 LINE",
"551 0 LINE",
"337 1156 LINE SMOOTH",
"331 1190 OFFCURVE",
"316 1296 OFFCURVE",
"316 1308 QCURVE",
"312 1308 LINE",
"311 1297 OFFCURVE",
"304 1190 OFFCURVE",
"298 1156 QCURVE SMOOTH",
"100 0 LINE",
"-3 0 LINE"
);
}
);
width = 1437;
}
);
leftKerningGroup = StraightRight_UC;
rightKerningGroup = LeftStraight_UC;
unicode = 004D;
},
{
glyphname = N;
layers = (
{
layerId = "E225F0DD-7274-4E95-954B-383A64365C0A";
paths = (
{
closed = 1;
nodes = (
"254 1456 LINE",
"373 1456 LINE",
"751 261 LINE SMOOTH",
"761 229 OFFCURVE",
"775 165 OFFCURVE",
"780 134 QCURVE",
"784 134 LINE",
"788 168 OFFCURVE",
"799 241 OFFCURVE",
"805 275 QCURVE SMOOTH",
"1011 1456 LINE",
"1112 1456 LINE",
"855 0 LINE",
"740 0 LINE",
"356 1195 LINE SMOOTH",
"346 1225 OFFCURVE",
"331 1291 OFFCURVE",
"327 1322 QCURVE",
"322 1322 LINE",
"319 1288 OFFCURVE",
"308 1210 OFFCURVE",
"302 1175 QCURVE SMOOTH",
"102 0 LINE",
"-3 0 LINE"
);
}
);
width = 1108;
}
);
leftKerningGroup = StraightRight_UC;
rightKerningGroup = LeftStraight_UC;
unicode = 004E;
},
{
glyphname = O;
layers = (
{
layerId = "E225F0DD-7274-4E95-954B-383A64365C0A";
paths = (
{
closed = 1;
nodes = (
"99 800 LINE SMOOTH",
"174 1164 OFFCURVE",
"455 1476 OFFCURVE",
"687 1476 QCURVE SMOOTH",
"919 1476 OFFCURVE",
"1118 1128 OFFCURVE",
"1058 767 QCURVE SMOOTH",
"1045 689 LINE SMOOTH",
"978 284 OFFCURVE",
"670 -20 OFFCURVE",
"465 -20 QCURVE SMOOTH",
"227 -20 OFFCURVE",
"2 328 OFFCURVE",
"83 722 QCURVE SMOOTH"
);
},
{
closed = 1;
nodes = (
"123 374 OFFCURVE",
"287 74 OFFCURVE",
"476 74 QCURVE SMOOTH",
"634 74 OFFCURVE",
"883 357 OFFCURVE",
"938 689 QCURVE SMOOTH",
"951 767 LINE SMOOTH",
"1003 1077 OFFCURVE",
"867 1378 OFFCURVE",
"680 1378 QCURVE SMOOTH",
"493 1378 OFFCURVE",
"268 1130 OFFCURVE",
"205 800 QCURVE SMOOTH",
"190 722 LINE SMOOTH"
);
}
);
width = 1135;
}
);
leftKerningGroup = CG_UC;
rightKerningGroup = D_UC;
unicode = 004F;
},
{
glyphname = P;
layers = (
{
layerId = "E225F0DD-7274-4E95-954B-383A64365C0A";
paths = (
{
closed = 1;
nodes = (
"254 1456 LINE",
"613 1456 LINE SMOOTH",
"790 1456 OFFCURVE",
"959 1217 OFFCURVE",
"923 1030 QCURVE SMOOTH",
"888 843 OFFCURVE",
"684 602 OFFCURVE",
"467 602 QCURVE SMOOTH",
"207 602 LINE",
"101 0 LINE",
"-3 0 LINE"
);
},
{
closed = 1;
nodes = (
"485 697 LINE SMOOTH",
"642 697 OFFCURVE",
"793 888 OFFCURVE",
"818 1029 QCURVE SMOOTH",
"843 1170 OFFCURVE",
"742 1357 OFFCURVE",
"585 1357 QCURVE SMOOTH",
"340 1357 LINE",
"224 697 LINE"
);
}
);
width = 916;
}
);
leftKerningGroup = StraightRight_UC;
unicode = 0050;
},
{
glyphname = Q;
layers = (
{
layerId = "E225F0DD-7274-4E95-954B-383A64365C0A";
paths = (
{
closed = 1;
nodes = (
"95 794 LINE SMOOTH",
"160 1134 OFFCURVE",
"454 1476 OFFCURVE",
"701 1476 QCURVE SMOOTH",
"919 1476 OFFCURVE",
"1131 1134 OFFCURVE",
"1060 767 QCURVE SMOOTH",
"1045 689 LINE SMOOTH",
"976 332 OFFCURVE",
"692 -20 OFFCURVE",
"434 -20 QCURVE SMOOTH",
"217 -20 OFFCURVE",
"6 332 OFFCURVE",
"80 716 QCURVE SMOOTH"
);
},
{
closed = 1;
nodes = (
"119 369 OFFCURVE",
"289 78 OFFCURVE",
"463 78 QCURVE SMOOTH",
"636 78 OFFCURVE",
"877 369 OFFCURVE",
"938 689 QCURVE SMOOTH",
"953 767 LINE SMOOTH",
"1016 1097 OFFCURVE",
"846 1377 OFFCURVE",
"672 1377 QCURVE SMOOTH",
"499 1377 OFFCURVE",
"259 1097 OFFCURVE",
"201 794 QCURVE SMOOTH",
"186 716 LINE SMOOTH"
);
},
{
closed = 1;
nodes = (
"492 201 LINE",
"565 260 LINE",
"934 -163 LINE",
"858 -224 LINE"
);
}
);
width = 1136;
}
);
leftKerningGroup = CG_UC;
unicode = 0051;
},
{
glyphname = R;
layers = (
{
layerId = "E225F0DD-7274-4E95-954B-383A64365C0A";
paths = (
{
closed = 1;
nodes = (
"254 1456 LINE",
"605 1456 LINE SMOOTH",
"796 1456 OFFCURVE",
"946 1228 OFFCURVE",
"911 1044 QCURVE SMOOTH",
"877 859 OFFCURVE",
"644 627 OFFCURVE",
"453 627 QCURVE SMOOTH",
"209 627 LINE",
"101 0 LINE",
"-3 0 LINE"
);
},
{
closed = 1;
nodes = (
"481 724 LINE SMOOTH",
"635 724 OFFCURVE",
"787 903 OFFCURVE",
"807 1043 QCURVE SMOOTH",
"828 1184 OFFCURVE",
"732 1357 OFFCURVE",
"578 1357 QCURVE SMOOTH",
"340 1357 LINE",
"230 724 LINE"
);
},
{
closed = 1;
nodes = (
"487 667 LINE",
"588 667 LINE",
"807 0 LINE",
"703 0 LINE"
);
}
);
width = 916;
}
);
leftKerningGroup = StraightRight_UC;
rightKerningGroup = R_UC;
unicode = 0052;
},
{
glyphname = S;
layers = (
{
layerId = "E225F0DD-7274-4E95-954B-383A64365C0A";
paths = (
{
closed = 1;
nodes = (
"32 457 LINE",
"136 457 LINE",
"133 387 LINE SMOOTH",
"126 228 OFFCURVE",
"280 75 OFFCURVE",
"406 75 QCURVE SMOOTH",
"551 75 OFFCURVE",
"713 213 OFFCURVE",
"733 340 QCURVE SMOOTH",
"750 460 OFFCURVE",
"646 626 OFFCURVE",
"470 698 QCURVE SMOOTH",
"302 767 OFFCURVE",
"161 997 OFFCURVE",
"190 1150 QCURVE SMOOTH",
"224 1328 OFFCURVE",
"434 1476 OFFCURVE",
"608 1476 QCURVE SMOOTH",
"764 1476 OFFCURVE",
"947 1276 OFFCURVE",
"936 1085 QCURVE SMOOTH",
"933 1035 LINE",
"829 1035 LINE",
"831 1085 LINE SMOOTH",
"837 1223 OFFCURVE",
"724 1377 OFFCURVE",
"589 1377 QCURVE SMOOTH",
"453 1377 OFFCURVE",
"312 1267 OFFCURVE",
"292 1143 QCURVE SMOOTH",
"273 1027 OFFCURVE",
"371 853 OFFCURVE",
"548 781 QCURVE SMOOTH",
"724 709 OFFCURVE",
"859 488 OFFCURVE",
"837 335 QCURVE SMOOTH",
"813 174 OFFCURVE",
"580 -20 OFFCURVE",
"412 -20 QCURVE SMOOTH",
"225 -20 OFFCURVE",
"21 203 OFFCURVE",
"29 387 QCURVE SMOOTH"
);
}
);
width = 979;
}
);
leftKerningGroup = S_UC;
rightKerningGroup = S_UC;
unicode = 0053;
},
{
glyphname = T;
layers = (
{
layerId = "E225F0DD-7274-4E95-954B-383A64365C0A";
paths = (
{
closed = 1;
nodes = (
"130 1456 LINE",
"1036 1456 LINE",
"1008 1357 LINE",
"618 1357 LINE",
"389 0 LINE",
"285 0 LINE",
"514 1357 LINE",
"102 1357 LINE"
);
}
);
width = 928;
}
);
leftKerningGroup = T_UC;
rightKerningGroup = T_UC;
unicode = 0054;
},
{
glyphname = U;
layers = (
{
layerId = "E225F0DD-7274-4E95-954B-383A64365C0A";
paths = (
{
closed = 1;
nodes = (
"244 1456 LINE",
"348 1456 LINE",
"174 496 LINE SMOOTH",
"144 274 OFFCURVE",
"276 79 OFFCURVE",
"421 79 QCURVE SMOOTH",
"566 79 OFFCURVE",
"754 274 OFFCURVE",
"784 496 QCURVE SMOOTH",
"958 1456 LINE",
"1062 1456 LINE",
"889 496 LINE SMOOTH",
"845 233 OFFCURVE",
"591 -20 OFFCURVE",
"392 -20 QCURVE SMOOTH",
"215 -20 OFFCURVE",
"24 244 OFFCURVE",
"70 496 QCURVE SMOOTH"
);
}
);
width = 1049;
}
);
leftKerningGroup = U_UC;
rightKerningGroup = JU_UC;
unicode = 0055;
},
{
glyphname = V;
layers = (
{
layerId = "E225F0DD-7274-4E95-954B-383A64365C0A";
paths = (
{
closed = 1;
nodes = (
"216 1456 LINE",
"359 202 LINE SMOOTH",
"362 174 OFFCURVE",
"369 112 OFFCURVE",
"368 94 QCURVE",
"372 94 LINE",
"380 112 OFFCURVE",
"409 180 OFFCURVE",
"419 202 QCURVE SMOOTH",
"992 1456 LINE",
"1101 1456 LINE",
"419 -7 LINE",
"284 -7 LINE",
"119 1456 LINE"
);
}
);
width = 962;
}
);
unicode = 0056;
},
{
glyphname = W;
layers = (
{
layerId = "E225F0DD-7274-4E95-954B-383A64365C0A";
paths = (
{
closed = 1;
nodes = (
"137 1456 LINE",
"223 1456 LINE",
"282 259 LINE SMOOTH",
"283 237 OFFCURVE",
"284 149 OFFCURVE",
"282 113 QCURVE",
"284 113 LINE",
"295 148 OFFCURVE",
"312 204 OFFCURVE",
"321 226 QCURVE SMOOTH",
"825 1456 LINE",
"936 1456 LINE",
"1018 223 LINE SMOOTH",
"1019 202 OFFCURVE",
"1021 148 OFFCURVE",
"1020 112 QCURVE",
"1022 112 LINE",
"1031 149 OFFCURVE",
"1044 202 OFFCURVE",
"1052 223 QCURVE SMOOTH",
"1536 1456 LINE",
"1635 1456 LINE",
"1059 -7 LINE",
"940 -7 LINE",
"860 1232 LINE SMOOTH",
"859 1249 OFFCURVE",
"859 1307 OFFCURVE",
"860 1341 QCURVE",
"859 1341 LINE",
"849 1307 OFFCURVE",
"828 1251 OFFCURVE",
"820 1232 QCURVE SMOOTH",
"316 -7 LINE",
"196 -7 LINE"
);
}
);
width = 1515;
}
);
leftKerningGroup = W_UC;
rightKerningGroup = W_UC;
unicode = 0057;
},
{
glyphname = X;
layers = (
{
layerId = "E225F0DD-7274-4E95-954B-383A64365C0A";
paths = (
{
closed = 1;
nodes = (
"420 797 LINE",
"423 797 LINE",
"871 1456 LINE",
"993 1456 LINE",
"466 710 LINE",
"467 710 LINE",
"-17 0 LINE",
"-139 0 LINE"
);
},
{
closed = 1;
nodes = (
"252 1456 LINE",
"479 795 LINE",
"479 795 LINE",
"749 0 LINE",
"648 0 LINE",
"402 702 LINE",
"403 703 LINE",
"151 1456 LINE"
);
}
);
width = 880;
}
);
unicode = 0058;
},
{
glyphname = Y;
layers = (
{
layerId = "E225F0DD-7274-4E95-954B-383A64365C0A";
paths = (
{
closed = 1;
nodes = (
"408 587 LINE",
"143 1456 LINE",
"238 1456 LINE",
"442 784 LINE SMOOTH",
"451 754 OFFCURVE",
"465 704 OFFCURVE",
"472 674 QCURVE",
"477 674 LINE",
"492 704 OFFCURVE",
"523 754 OFFCURVE",
"543 784 QCURVE SMOOTH",
"991 1456 LINE",
"1098 1456 LINE",
"513 587 LINE",
"417 0 LINE",
"312 0 LINE"
);
}
);
width = 985;
}
);
leftKerningGroup = Y_UC;
rightKerningGroup = Y_UC;
unicode = 0059;
},
{
glyphname = Z;
layers = (
{
layerId = "E225F0DD-7274-4E95-954B-383A64365C0A";
paths = (
{
closed = 1;
nodes = (
"-69 64 LINE",
"834 1360 LINE",
"178 1360 LINE",
"205 1456 LINE",
"973 1456 LINE",
"971 1392 LINE",
"68 96 LINE",
"790 96 LINE",
"762 0 LINE",
"-70 0 LINE"
);
}
);
width = 924;
}
);
leftKerningGroup = Z_UC;
rightKerningGroup = Z_UC;
unicode = 005A;
},
{
glyphname = AE;
layers = (
{
layerId = "E225F0DD-7274-4E95-954B-383A64365C0A";
paths = (
{
closed = 1;
nodes = (
"402 528 LINE",
"1035 528 LINE",
"1035 353 LINE",
"302 353 LINE"
);
},
{
closed = 1;
nodes = (
"866 1456 LINE",
"1836 1456 LINE",
"1836 1298 LINE",
"1122 1298 LINE",
"1122 830 LINE",
"1744 830 LINE",
"1744 672 LINE",
"1122 672 LINE",
"1122 158 LINE",
"1846 158 LINE",
"1846 0 LINE",
"930 0 LINE",
"930 1238 LINE",
"212 0 LINE",
"-15 0 LINE"
);
}
);
width = 1914;
}
);
leftKerningGroup = AE_UC;
rightKerningGroup = E_UC;
unicode = 00C6;
},
{
glyphname = Thorn;
layers = (
{
guideLines = (
{
position = "{0, 901}";
},
{
position = "{0, 555}";
}
);
layerId = "E225F0DD-7274-4E95-954B-383A64365C0A";
paths = (
{
closed = 1;
nodes = (
"355 1456 LINE",
"355 1163 LINE",
"633 1163 LINE SMOOTH",
"868 1163 OFFCURVE",
"1120 935 OFFCURVE",
"1120 738 QCURVE SMOOTH",
"1120 541 OFFCURVE",
"868 314 OFFCURVE",
"633 314 QCURVE SMOOTH",
"355 314 LINE",
"355 0 LINE",
"170 0 LINE",
"170 1456 LINE"
);
},
{
closed = 1;
nodes = (
"355 1012 LINE",
"355 465 LINE",
"633 465 LINE SMOOTH",
"793 465 OFFCURVE",
"935 604 OFFCURVE",
"935 736 QCURVE SMOOTH",
"935 868 OFFCURVE",
"793 1012 OFFCURVE",
"633 1012 QCURVE SMOOTH"
);
}
);
width = 1170;
}
);
leftKerningGroup = StraightRight_UC;
unicode = 00DE;
userData = {
com.typemytype.robofont.guideline.magnetic.T8KKW8oxop = 5;
com.typemytype.robofont.guideline.magnetic.i9jYwjBDP4 = 5;
};
},
{
glyphname = OE;
layers = (
{
layerId = "E225F0DD-7274-4E95-954B-383A64365C0A";
paths = (
{
closed = 1;
nodes = (
"746 1477 OFFCURVE",
"897 1464 OFFCURVE",
"964 1456 QCURVE",
"1801 1456 LINE",
"1801 1298 LINE",
"1079 1298 LINE",
"1079 830 LINE",
"1709 830 LINE",
"1709 673 LINE",
"1079 673 LINE",
"1079 157 LINE",
"1811 157 LINE",
"1811 0 LINE",
"964 0 LINE",
"897 -7 OFFCURVE",
"748 -21 OFFCURVE",
"672 -21 QCURVE SMOOTH",
"458 -21 OFFCURVE",
"115 340 OFFCURVE",
"115 682 QCURVE SMOOTH",
"115 772 LINE SMOOTH",
"115 1105 OFFCURVE",
"455 1477 OFFCURVE",
"713 1477 QCURVE SMOOTH"
);
},
{
closed = 1;
nodes = (
"310 418 OFFCURVE",
"543 128 OFFCURVE",
"715 128 QCURVE SMOOTH",
"768 128 OFFCURVE",
"848 137 OFFCURVE",
"886 143 QCURVE",
"886 1310 LINE",
"834 1317 OFFCURVE",
"739 1325 OFFCURVE",
"717 1325 QCURVE SMOOTH",
"540 1325 OFFCURVE",
"310 1030 OFFCURVE",
"310 774 QCURVE SMOOTH",
"310 682 LINE SMOOTH"
);
}
);
width = 1879;
}
);
leftKerningGroup = CG_UC;
rightKerningGroup = E_UC;
unicode = 0152;
},
{
glyphname = Schwa;
layers = (
{
layerId = "E225F0DD-7274-4E95-954B-383A64365C0A";
paths = (
{
closed = 1;
nodes = (
"162 1356 OFFCURVE",
"452 1519 OFFCURVE",
"669 1519 QCURVE SMOOTH",
"1002 1519 OFFCURVE",
"1366 1094 OFFCURVE",
"1366 789 QCURVE SMOOTH",
"1366 445 OFFCURVE",
"982 -30 OFFCURVE",
"692 -30 QCURVE SMOOTH",
"416 -30 OFFCURVE",
"102 281 OFFCURVE",
"102 578 QCURVE SMOOTH",
"102 686 LINE",
"1228 686 LINE",
"1228 554 LINE",
"665 562 LINE",
"298 556 LINE",
"298 481 LINE SMOOTH",
"298 315 OFFCURVE",
"503 97 OFFCURVE",
"702 97 QCURVE SMOOTH",
"912 97 OFFCURVE",
"1177 462 OFFCURVE",
"1175 749 QCURVE SMOOTH",
"1173 1047 OFFCURVE",
"860 1375 OFFCURVE",
"651 1375 QCURVE SMOOTH",
"469 1375 OFFCURVE",
"218 1234 OFFCURVE",
"157 1126 QCURVE",
"64 1199 LINE"
);
}
);
width = 1446;
}
);
rightKerningGroup = D_UC;
unicode = 018F;
},
{
glyphname = Germandbls;
layers = (
{
layerId = "E225F0DD-7274-4E95-954B-383A64365C0A";
paths = (
{
closed = 1;
nodes = (
"178 1267 OFFCURVE",
"399 1510 OFFCURVE",
"611 1510 QCURVE SMOOTH",
"837 1510 OFFCURVE",
"1019 1347 OFFCURVE",
"1019 1244 QCURVE SMOOTH",
"1019 1142 OFFCURVE",
"916 1010 OFFCURVE",
"856 966 QCURVE SMOOTH",
"805 929 OFFCURVE",
"750 881 OFFCURVE",
"750 861 QCURVE SMOOTH",
"750 841 OFFCURVE",
"816 805 OFFCURVE",
"1006 736 QCURVE SMOOTH",
"1199 666 OFFCURVE",
"1369 486 OFFCURVE",
"1369 336 QCURVE SMOOTH",
"1369 190 OFFCURVE",
"1126 -30 OFFCURVE",
"940 -30 QCURVE SMOOTH",
"700 -30 OFFCURVE",
"465 152 OFFCURVE",
"465 338 QCURVE SMOOTH",
"465 350 LINE",
"668 350 LINE",
"668 338 LINE SMOOTH",
"668 238 OFFCURVE",
"793 135 OFFCURVE",
"929 135 QCURVE SMOOTH",
"1034 135 OFFCURVE",
"1172 241 OFFCURVE",
"1172 330 QCURVE SMOOTH",
"1172 427 OFFCURVE",
"1040 521 OFFCURVE",
"869 584 QCURVE SMOOTH",
"641 668 OFFCURVE",
"524 760 OFFCURVE",
"524 831 QCURVE SMOOTH",
"524 904 OFFCURVE",
"598 989 OFFCURVE",
"692 1056 QCURVE SMOOTH",
"762 1106 OFFCURVE",
"824 1172 OFFCURVE",
"824 1229 QCURVE SMOOTH",
"824 1284 OFFCURVE",
"722 1348 OFFCURVE",
"617 1348 QCURVE SMOOTH",
"496 1348 OFFCURVE",
"370 1198 OFFCURVE",
"370 1036 QCURVE SMOOTH",
"370 355 LINE SMOOTH",
"370 184 OFFCURVE",
"203 -16 OFFCURVE",
"68 -16 QCURVE SMOOTH",
"55 -16 OFFCURVE",
"28 -14 OFFCURVE",
"15 -12 QCURVE",
"13 172 LINE",
"22 169 OFFCURVE",
"41 167 OFFCURVE",
"50 167 QCURVE SMOOTH",
"110 167 OFFCURVE",
"178 264 OFFCURVE",
"178 355 QCURVE SMOOTH",
"178 1066 LINE SMOOTH"
);
}
);
width = 1449;
}
);
unicode = 1E9E;
},
{
glyphname = micro;
layers = (
{
layerId = "E225F0DD-7274-4E95-954B-383A64365C0A";
paths = (
{
closed = 1;
nodes = (
"428 1052 LINE",
"296 371 LINE SMOOTH",
"271 245 OFFCURVE",
"363 136 OFFCURVE",
"467 136 QCURVE SMOOTH",
"556 136 OFFCURVE",
"711 232 OFFCURVE",
"764 308 QCURVE",
"908 1052 LINE",
"1094 1052 LINE",
"890 0 LINE",
"722 0 LINE",
"740 135 LINE",
"734 135 LINE",
"663 63 OFFCURVE",
"482 -20 OFFCURVE",
"382 -20 QCURVE SMOOTH",
"336 -20 OFFCURVE",
"261 15 OFFCURVE",
"232 42 QCURVE",
"144 -416 LINE",
"-42 -416 LINE",
"242 1052 LINE"
);
}
);
width = 1198;
}
);
unicode = 00B5;
},
{
glyphname = a;
layers = (
{
layerId = "E225F0DD-7274-4E95-954B-383A64365C0A";
paths = (
{
closed = 1;
nodes = (
"12 391 OFFCURVE",
"241 550 OFFCURVE",
"407 550 QCURVE SMOOTH",
"620 550 LINE",
"633 645 LINE SMOOTH",
"649 740 OFFCURVE",
"573 835 OFFCURVE",
"465 835 QCURVE SMOOTH",
"358 835 OFFCURVE",
"226 753 OFFCURVE",
"215 673 QCURVE SMOOTH",
"214 649 LINE",
"111 649 LINE",
"112 686 LINE SMOOTH",
"134 790 OFFCURVE",
"341 934 OFFCURVE",
"492 934 QCURVE SMOOTH",
"636 934 OFFCURVE",
"766 803 OFFCURVE",
"734 645 QCURVE SMOOTH",
"649 240 LINE SMOOTH",
"638 175 OFFCURVE",
"634 59 OFFCURVE",
"645 16 QCURVE",
"642 0 LINE",
"548 0 LINE",
"538 26 OFFCURVE",
"532 106 OFFCURVE",
"534 147 QCURVE",
"492 85 OFFCURVE",
"325 -13 OFFCURVE",
"210 -13 QCURVE SMOOTH",
"77 -13 OFFCURVE",
"-44 126 OFFCURVE",
"-16 258 QCURVE SMOOTH"
);
},
{
closed = 1;
nodes = (
"71 173 OFFCURVE",
"157 85 OFFCURVE",
"253 85 QCURVE SMOOTH",
"357 85 OFFCURVE",
"555 229 OFFCURVE",
"570 320 QCURVE",
"597 459 LINE",
"402 459 LINE SMOOTH",
"258 459 OFFCURVE",
"103 353 OFFCURVE",
"87 261 QCURVE SMOOTH"
);
}
);
width = 848;
}
);
leftKerningGroup = a_LC;
rightKerningGroup = a_LC;
unicode = 0061;
},
{
glyphname = b;
layers = (
{
layerId = "E225F0DD-7274-4E95-954B-383A64365C0A";
paths = (
{
closed = 1;
nodes = (
"256 1458 LINE",
"358 1458 LINE",
"251 795 LINE",
"308 858 OFFCURVE",
"464 934 OFFCURVE",
"561 934 QCURVE SMOOTH",
"727 934 OFFCURVE",
"857 684 OFFCURVE",
"816 484 QCURVE SMOOTH",
"810 452 LINE SMOOTH",
"770 252 OFFCURVE",
"534 -20 OFFCURVE",
"368 -20 QCURVE SMOOTH",
"271 -20 OFFCURVE",
"135 58 OFFCURVE",
"107 121 QCURVE",
"106 121 LINE",
"83 0 LINE",
"-14 0 LINE"
);
},
{
closed = 1;
nodes = (
"163 180 OFFCURVE",
"273 78 OFFCURVE",
"379 78 QCURVE SMOOTH",
"508 78 OFFCURVE",
"678 292 OFFCURVE",
"706 453 QCURVE SMOOTH",
"712 484 LINE SMOOTH",
"740 644 OFFCURVE",
"647 835 OFFCURVE",
"506 835 QCURVE SMOOTH",
"412 835 OFFCURVE",
"260 734 OFFCURVE",
"217 667 QCURVE",
"142 248 LINE"
);
}
);
width = 902;
}
);
leftKerningGroup = bhk_LC;
rightKerningGroup = b_LC;
unicode = 0062;
},
{
glyphname = c;
layers = (
{
layerId = "E225F0DD-7274-4E95-954B-383A64365C0A";
paths = (
{
closed = 1;
nodes = (
"21 474 LINE SMOOTH",
"63 691 OFFCURVE",
"320 934 OFFCURVE",
"493 934 QCURVE SMOOTH",
"661 934 OFFCURVE",
"792 755 OFFCURVE",
"767 610 QCURVE SMOOTH",
"766 595 LINE",
"663 595 LINE",
"664 610 LINE SMOOTH",
"678 718 OFFCURVE",
"580 835 OFFCURVE",
"468 835 QCURVE SMOOTH",
"338 835 OFFCURVE",
"154 653 OFFCURVE",
"125 474 QCURVE SMOOTH",
"120 442 LINE SMOOTH",
"91 277 OFFCURVE",
"193 78 OFFCURVE",
"323 78 QCURVE SMOOTH",
"438 78 OFFCURVE",
"586 200 OFFCURVE",
"601 314 QCURVE SMOOTH",
"602 329 LINE",
"703 329 LINE",
"702 314 LINE SMOOTH",
"678 168 OFFCURVE",
"461 -20 OFFCURVE",
"297 -20 QCURVE SMOOTH",
"124 -20 OFFCURVE",
"-27 227 OFFCURVE",
"15 442 QCURVE SMOOTH"
);
}
);
width = 802;
}
);
leftKerningGroup = alpha;
rightKerningGroup = c_LC;
unicode = 0063;
},
{
glyphname = d;
layers = (
{
layerId = "E225F0DD-7274-4E95-954B-383A64365C0A";
paths = (
{
closed = 1;
nodes = (
"21 474 LINE SMOOTH",
"62 674 OFFCURVE",
"308 934 OFFCURVE",
"471 934 QCURVE SMOOTH",
"571 934 OFFCURVE",
"695 866 OFFCURVE",
"723 810 QCURVE",
"830 1458 LINE",
"931 1458 LINE",
"660 0 LINE",
"563 0 LINE",
"587 133 LINE",
"586 133 LINE",
"536 70 OFFCURVE",
"377 -20 OFFCURVE",
"279 -20 QCURVE SMOOTH",
"111 -20 OFFCURVE",
"-25 242 OFFCURVE",
"15 442 QCURVE SMOOTH"
);
},
{
closed = 1;
nodes = (
"91 282 OFFCURVE",
"186 78 OFFCURVE",
"326 78 QCURVE SMOOTH",
"420 78 OFFCURVE",
"573 185 OFFCURVE",
"614 254 QCURVE",
"689 674 LINE",
"674 742 OFFCURVE",
"559 835 OFFCURVE",
"465 835 QCURVE SMOOTH",
"324 835 OFFCURVE",
"154 633 OFFCURVE",
"125 474 QCURVE SMOOTH",
"120 442 LINE SMOOTH"
);
}
);
width = 902;
}
);
leftKerningGroup = alpha;
unicode = 0064;
},
{
glyphname = e;
layers = (
{
layerId = "E225F0DD-7274-4E95-954B-383A64365C0A";
paths = (
{
closed = 1;
nodes = (
"21 474 LINE SMOOTH",
"63 681 OFFCURVE",
"320 934 OFFCURVE",
"488 934 QCURVE SMOOTH",
"657 934 OFFCURVE",
"784 701 OFFCURVE",
"742 487 QCURVE SMOOTH",
"728 444 LINE",
"66 444 LINE",
"92 539 LINE",
"652 539 LINE",
"654 551 LINE SMOOTH",
"673 664 OFFCURVE",
"595 835 OFFCURVE",
"461 835 QCURVE SMOOTH",
"327 835 OFFCURVE",
"150 639 OFFCURVE",
"121 474 QCURVE SMOOTH",
"116 442 LINE SMOOTH",
"87 277 OFFCURVE",
"194 78 OFFCURVE",
"330 78 QCURVE SMOOTH",
"423 78 OFFCURVE",
"566 154 OFFCURVE",
"612 216 QCURVE",
"666 144 LINE",
"617 82 OFFCURVE",
"432 -20 OFFCURVE",
"305 -20 QCURVE SMOOTH",
"121 -20 OFFCURVE",
"-27 231 OFFCURVE",
"15 442 QCURVE SMOOTH"
);
}
);
width = 815;
}
);
leftKerningGroup = alpha;
rightKerningGroup = e_LC;
unicode = 0065;
},
{
glyphname = f;
layers = (
{
layerId = "E225F0DD-7274-4E95-954B-383A64365C0A";
paths = (
{
closed = 1;
nodes = (
"242 1122 LINE SMOOTH",
"272 1297 OFFCURVE",
"453 1478 OFFCURVE",
"582 1478 QCURVE SMOOTH",
"609 1478 OFFCURVE",
"663 1469 OFFCURVE",
"685 1462 QCURVE",
"648 1366 LINE",
"631 1370 OFFCURVE",
"582 1380 OFFCURVE",
"557 1380 QCURVE SMOOTH",
"471 1380 OFFCURVE",
"361 1261 OFFCURVE",
"343 1122 QCURVE SMOOTH",
"306 883 LINE",
"303 872 LINE",
"132 0 LINE",
"30 0 LINE"
);
},
{
closed = 1;
nodes = (
"54 914 LINE",
"258 914 LINE",
"274 914 LINE",
"514 914 LINE",
"489 816 LINE",
"29 816 LINE"
);
}
);
width = 447;
}
);
leftKerningGroup = f_LC;
rightKerningGroup = f_LC;
unicode = 0066;
},
{
glyphname = g;
layers = (
{
layerId = "E225F0DD-7274-4E95-954B-383A64365C0A";
paths = (
{
closed = 1;
nodes = (
"-8 -232 LINE",
"26 -269 OFFCURVE",
"152 -333 OFFCURVE",
"248 -333 QCURVE SMOOTH",
"359 -333 OFFCURVE",
"538 -164 OFFCURVE",
"562 30 QCURVE SMOOTH",
"581 128 LINE",
"526 66 OFFCURVE",
"368 -12 OFFCURVE",
"269 -12 QCURVE SMOOTH",
"106 -12 OFFCURVE",
"-25 242 OFFCURVE",
"15 442 QCURVE SMOOTH",
"21 474 LINE SMOOTH",
"62 674 OFFCURVE",
"298 934 OFFCURVE",
"469 934 QCURVE SMOOTH",
"560 934 OFFCURVE",
"696 854 OFFCURVE",
"723 792 QCURVE",
"724 792 LINE",
"749 914 LINE",
"846 914 LINE",
"664 30 LINE SMOOTH",
"625 -199 OFFCURVE",
"385 -431 OFFCURVE",
"212 -431 QCURVE SMOOTH",
"112 -431 OFFCURVE",
"-39 -367 OFFCURVE",
"-83 -319 QCURVE"
);
},
{
closed = 1;
nodes = (
"90 282 OFFCURVE",
"185 86 OFFCURVE",
"326 86 QCURVE SMOOTH",
"420 86 OFFCURVE",
"574 190 OFFCURVE",
"614 259 QCURVE",
"689 664 LINE",
"673 732 OFFCURVE",
"559 835 OFFCURVE",
"465 835 QCURVE SMOOTH",
"324 835 OFFCURVE",
"153 633 OFFCURVE",
"124 474 QCURVE SMOOTH",
"119 442 LINE SMOOTH"
);
}
);
width = 902;
}
);
leftKerningGroup = alpha;
unicode = 0067;
},
{
glyphname = h;
layers = (
{
layerId = "E225F0DD-7274-4E95-954B-383A64365C0A";
paths = (
{
closed = 1;
nodes = (
"256 1458 LINE",
"358 1458 LINE",
"242 789 LINE",
"293 859 OFFCURVE",
"464 934 OFFCURVE",
"556 934 QCURVE SMOOTH",
"683 934 OFFCURVE",
"799 783 OFFCURVE",
"762 606 QCURVE SMOOTH",
"642 0 LINE",
"540 0 LINE",
"660 598 LINE SMOOTH",
"682 728 OFFCURVE",
"594 835 OFFCURVE",
"497 835 QCURVE SMOOTH",
"413 835 OFFCURVE",
"257 736 OFFCURVE",
"210 660 QCURVE",
"87 0 LINE",
"-14 0 LINE"
);
}
);
width = 874;
}
);
leftKerningGroup = bhk_LC;
rightKerningGroup = hmn_LC;
unicode = 0068;
},
{
glyphname = i;
layers = (
{
layerId = "E225F0DD-7274-4E95-954B-383A64365C0A";
paths = (
{
closed = 1;
nodes = (
"177 914 LINE",
"278 914 LINE",
"93 0 LINE",
"-9 0 LINE"
);
},
{
closed = 1;
nodes = (
"215 1295 OFFCURVE",
"256 1338 OFFCURVE",
"291 1338 QCURVE SMOOTH",
"326 1337 OFFCURVE",
"358 1294 OFFCURVE",
"355 1261 QCURVE SMOOTH",
"352 1229 OFFCURVE",
"311 1185 OFFCURVE",
"276 1185 QCURVE SMOOTH",
"242 1186 OFFCURVE",
"209 1231 OFFCURVE",
"213 1263 QCURVE SMOOTH"
);
}
);
width = 340;
}
);
leftKerningGroup = i_LC;
rightKerningGroup = i_LC;
unicode = 0069;
},
{
glyphname = j;
layers = (
{
layerId = "E225F0DD-7274-4E95-954B-383A64365C0A";
paths = (
{
closed = 1;
nodes = (
"-295 -319 LINE",
"-281 -325 OFFCURVE",
"-226 -338 OFFCURVE",
"-203 -338 QCURVE SMOOTH",
"-136 -338 OFFCURVE",
"-48 -242 OFFCURVE",
"-34 -117 QCURVE SMOOTH",
"175 914 LINE",
"276 914 LINE",
"75 -90 LINE SMOOTH",
"43 -270 OFFCURVE",
"-105 -436 OFFCURVE",
"-220 -436 QCURVE SMOOTH",
"-249 -436 OFFCURVE",
"-306 -422 OFFCURVE",
"-321 -415 QCURVE"
);
},
{
closed = 1;
nodes = (
"213 1295 OFFCURVE",
"254 1338 OFFCURVE",
"289 1338 QCURVE SMOOTH",
"324 1337 OFFCURVE",
"356 1294 OFFCURVE",
"353 1261 QCURVE SMOOTH",
"350 1229 OFFCURVE",
"309 1185 OFFCURVE",
"274 1185 QCURVE SMOOTH",
"240 1186 OFFCURVE",
"207 1231 OFFCURVE",
"211 1263 QCURVE SMOOTH"
);
}
);
width = 336;
}
);
rightKerningGroup = j_LC;
unicode = 006A;
},
{
glyphname = k;
layers = (
{
layerId = "E225F0DD-7274-4E95-954B-383A64365C0A";
paths = (
{
closed = 1;
nodes = (
"256 1456 LINE",
"355 1456 LINE",
"178 489 LINE",
"653 914 LINE",
"784 914 LINE",
"149 357 LINE",
"87 0 LINE",
"-14 0 LINE"
);
},
{
closed = 1;
nodes = (
"283 517 LINE",
"358 595 LINE",
"640 0 LINE",
"527 0 LINE"
);
}
);
width = 755;
}
);
leftKerningGroup = bhk_LC;
rightKerningGroup = k_LC;
unicode = 006B;
},
{
glyphname = l;
layers = (
{
layerId = "E225F0DD-7274-4E95-954B-383A64365C0A";
paths = (
{
closed = 1;
nodes = (
"256 1458 LINE",
"358 1458 LINE",
"87 0 LINE",
"-15 0 LINE"
);
}
);
width = 329;
}
);
leftKerningGroup = bhk_LC;
rightKerningGroup = l_LC;
unicode = 006C;
},
{
glyphname = m;
layers = (
{
layerId = "E225F0DD-7274-4E95-954B-383A64365C0A";
paths = (
{
closed = 1;
nodes = (
"171 914 LINE",
"268 914 LINE",
"244 777 LINE",
"245 777 LINE",
"307 851 OFFCURVE",
"458 934 OFFCURVE",
"547 934 QCURVE SMOOTH",
"639 934 OFFCURVE",
"750 851 OFFCURVE",
"757 769 QCURVE",
"758 769 LINE",
"820 849 OFFCURVE",
"987 934 OFFCURVE",
"1083 934 QCURVE SMOOTH",
"1201 934 OFFCURVE",
"1314 783 OFFCURVE",
"1277 606 QCURVE SMOOTH",
"1157 0 LINE",
"1055 0 LINE",
"1175 608 LINE SMOOTH",
"1197 738 OFFCURVE",
"1116 835 OFFCURVE",
"1023 835 QCURVE SMOOTH",
"941 835 OFFCURVE",
"806 735 OFFCURVE",
"754 656 QCURVE",
"623 0 LINE",
"520 0 LINE",
"640 608 LINE SMOOTH",
"662 737 OFFCURVE",
"580 835 OFFCURVE",
"487 835 QCURVE SMOOTH",
"406 835 OFFCURVE",
"271 734 OFFCURVE",
"218 656 QCURVE",
"87 0 LINE",
"-14 0 LINE"
);
}
);
width = 1390;
}
);
leftKerningGroup = mnpr_LC;
rightKerningGroup = hmn_LC;
unicode = 006D;
},
{
glyphname = n;
layers = (
{
layerId = "E225F0DD-7274-4E95-954B-383A64365C0A";
paths = (
{
closed = 1;
nodes = (
"171 914 LINE",
"268 914 LINE",
"244 780 LINE",
"245 780 LINE",
"301 857 OFFCURVE",
"464 934 OFFCURVE",
"556 934 QCURVE SMOOTH",
"683 934 OFFCURVE",
"799 783 OFFCURVE",
"762 606 QCURVE SMOOTH",
"642 0 LINE",
"541 0 LINE",
"661 596 LINE SMOOTH",
"683 726 OFFCURVE",
"594 835 OFFCURVE",
"497 835 QCURVE SMOOTH",
"413 835 OFFCURVE",
"266 737 OFFCURVE",
"218 658 QCURVE",
"87 0 LINE",
"-14 0 LINE"
);
}
);
width = 874;
}
);
leftKerningGroup = mnpr_LC;
rightKerningGroup = hmn_LC;
unicode = 006E;
},
{
glyphname = o;
layers = (
{
layerId = "E225F0DD-7274-4E95-954B-383A64365C0A";
paths = (
{
closed = 1;
nodes = (
"21 474 LINE SMOOTH",
"63 681 OFFCURVE",
"331 934 OFFCURVE",
"509 934 QCURVE SMOOTH",
"689 934 OFFCURVE",
"849 681 OFFCURVE",
"807 474 QCURVE SMOOTH",
"802 442 LINE SMOOTH",
"760 233 OFFCURVE",
"493 -20 OFFCURVE",
"313 -20 QCURVE SMOOTH",
"134 -20 OFFCURVE",
"-27 233 OFFCURVE",
"15 442 QCURVE SMOOTH"
);
},
{
closed = 1;
nodes = (
"120 442 LINE SMOOTH",
"91 282 OFFCURVE",
"199 78 OFFCURVE",
"339 78 QCURVE SMOOTH",
"482 78 OFFCURVE",
"669 282 OFFCURVE",
"697 443 QCURVE SMOOTH",
"703 473 LINE SMOOTH",
"732 634 OFFCURVE",
"624 835 OFFCURVE",
"482 835 QCURVE SMOOTH",
"341 835 OFFCURVE",
"154 634 OFFCURVE",
"125 473 QCURVE SMOOTH"
);
}
);
width = 893;
}
);
leftKerningGroup = o_LC;
rightKerningGroup = o_LC;
unicode = 006F;
},
{
glyphname = p;
layers = (
{
layerId = "E225F0DD-7274-4E95-954B-383A64365C0A";
paths = (
{
closed = 1;
nodes = (
"171 914 LINE",
"268 914 LINE",
"244 782 LINE",
"244 782 LINE",
"292 846 OFFCURVE",
"465 934 OFFCURVE",
"561 934 QCURVE SMOOTH",
"710 934 OFFCURVE",
"857 689 OFFCURVE",
"816 479 QCURVE SMOOTH",
"810 447 LINE SMOOTH",
"770 233 OFFCURVE",
"551 -20 OFFCURVE",
"388 -20 QCURVE SMOOTH",
"271 -20 OFFCURVE",
"143 57 OFFCURVE",
"109 120 QCURVE",
"14 -444 LINE",
"-88 -444 LINE"
);
},
{
closed = 1;
nodes = (
"160 183 OFFCURVE",
"272 78 OFFCURVE",
"378 78 QCURVE SMOOTH",
"508 78 OFFCURVE",
"678 287 OFFCURVE",
"706 448 QCURVE SMOOTH",
"712 479 LINE SMOOTH",
"740 639 OFFCURVE",
"647 835 OFFCURVE",
"506 835 QCURVE SMOOTH",
"412 835 OFFCURVE",
"260 731 OFFCURVE",
"217 663 QCURVE",
"142 252 LINE"
);
}
);
width = 902;
}
);
leftKerningGroup = mnpr_LC;
rightKerningGroup = b_LC;
unicode = 0070;
},
{
glyphname = q;
layers = (
{
layerId = "E225F0DD-7274-4E95-954B-383A64365C0A";
paths = (
{
closed = 1;
nodes = (
"21 474 LINE SMOOTH",
"62 674 OFFCURVE",
"308 934 OFFCURVE",
"471 934 QCURVE SMOOTH",
"580 934 OFFCURVE",
"696 854 OFFCURVE",
"723 792 QCURVE",
"725 792 LINE",
"749 914 LINE",
"846 914 LINE",
"587 -444 LINE",
"485 -444 LINE",
"580 120 LINE",
"580 120 LINE",
"525 58 OFFCURVE",
"368 -20 OFFCURVE",
"269 -20 QCURVE SMOOTH",
"106 -20 OFFCURVE",
"-25 242 OFFCURVE",
"15 442 QCURVE SMOOTH"
);
},
{
closed = 1;
nodes = (
"90 282 OFFCURVE",
"185 78 OFFCURVE",
"326 78 QCURVE SMOOTH",
"420 78 OFFCURVE",
"573 183 OFFCURVE",
"613 252 QCURVE",
"688 673 LINE",
"672 741 OFFCURVE",
"559 835 OFFCURVE",
"465 835 QCURVE SMOOTH",
"324 835 OFFCURVE",
"153 633 OFFCURVE",
"124 474 QCURVE SMOOTH",
"119 442 LINE SMOOTH"
);
}
);
width = 902;
}
);
leftKerningGroup = alpha;
unicode = 0071;
},
{
glyphname = r;
layers = (
{
layerId = "E225F0DD-7274-4E95-954B-383A64365C0A";
paths = (
{
closed = 1;
nodes = (
"171 914 LINE",
"268 914 LINE",
"244 786 LINE",
"245 786 LINE",
"295 850 OFFCURVE",
"436 934 OFFCURVE",
"524 934 QCURVE SMOOTH",
"540 934 OFFCURVE",
"585 928 OFFCURVE",
"594 924 QCURVE",
"564 823 LINE",
"548 827 OFFCURVE",
"504 833 OFFCURVE",
"478 833 QCURVE SMOOTH",
"410 833 OFFCURVE",
"267 738 OFFCURVE",
"217 661 QCURVE",
"87 0 LINE",
"-14 0 LINE"
);
}
);
width = 522;
}
);
leftKerningGroup = mnpr_LC;
rightKerningGroup = r_LC;
unicode = 0072;
},
{
glyphname = s;
layers = (
{
layerId = "E225F0DD-7274-4E95-954B-383A64365C0A";
paths = (
{
closed = 1;
nodes = (
"115 284 LINE",
"113 261 LINE SMOOTH",
"105 168 OFFCURVE",
"208 78 OFFCURVE",
"302 78 QCURVE SMOOTH",
"407 78 OFFCURVE",
"537 154 OFFCURVE",
"549 237 QCURVE SMOOTH",
"561 314 OFFCURVE",
"478 383 OFFCURVE",
"342 430 QCURVE SMOOTH",
"210 476 OFFCURVE",
"105 613 OFFCURVE",
"128 722 QCURVE SMOOTH",
"151 833 OFFCURVE",
"336 934 OFFCURVE",
"464 934 QCURVE SMOOTH",
"602 934 OFFCURVE",
"733 802 OFFCURVE",
"722 670 QCURVE SMOOTH",
"720 647 LINE",
"620 647 LINE",
"622 670 LINE SMOOTH",
"630 766 OFFCURVE",
"534 835 OFFCURVE",
"438 835 QCURVE SMOOTH",
"344 835 OFFCURVE",
"243 781 OFFCURVE",
"231 717 QCURVE SMOOTH",
"218 645 OFFCURVE",
"300 558 OFFCURVE",
"422 514 QCURVE SMOOTH",
"557 465 OFFCURVE",
"672 342 OFFCURVE",
"653 230 QCURVE SMOOTH",
"631 101 OFFCURVE",
"448 -20 OFFCURVE",
"281 -20 QCURVE SMOOTH",
"127 -20 OFFCURVE",
"-5 142 OFFCURVE",
"11 261 QCURVE SMOOTH",
"14 284 LINE"
);
}
);
width = 810;
}
);
leftKerningGroup = s_LC;
rightKerningGroup = s_LC;
unicode = 0073;
},
{
glyphname = t;
layers = (
{
layerId = "E225F0DD-7274-4E95-954B-383A64365C0A";
paths = (
{
closed = 1;
nodes = (
"60 914 LINE",
"538 914 LINE",
"513 816 LINE",
"35 816 LINE"
);
},
{
closed = 1;
nodes = (
"203 872 LINE",
"208 883 LINE",
"264 1272 LINE",
"365 1272 LINE",
"180 252 LINE SMOOTH",
"167 141 OFFCURVE",
"216 78 OFFCURVE",
"279 78 QCURVE SMOOTH",
"301 78 OFFCURVE",
"346 86 OFFCURVE",
"367 96 QCURVE",
"340 -3 LINE",
"321 -10 OFFCURVE",
"265 -20 OFFCURVE",
"234 -20 QCURVE SMOOTH",
"137 -20 OFFCURVE",
"52 96 OFFCURVE",
"78 252 QCURVE SMOOTH"
);
}
);
width = 499;
}
);
leftKerningGroup = t_LC;
rightKerningGroup = t_LC;
unicode = 0074;
},
{
glyphname = u;
layers = (
{
layerId = "E225F0DD-7274-4E95-954B-383A64365C0A";
paths = (
{
closed = 1;
nodes = (
"161 914 LINE",
"263 914 LINE",
"143 307 LINE SMOOTH",
"120 177 OFFCURVE",
"208 78 OFFCURVE",
"306 78 QCURVE SMOOTH",
"389 78 OFFCURVE",
"532 179 OFFCURVE",
"584 258 QCURVE",
"715 914 LINE",
"818 914 LINE",
"632 0 LINE",
"536 0 LINE",
"557 138 LINE",
"558 138 LINE",
"498 62 OFFCURVE",
"338 -20 OFFCURVE",
"247 -20 QCURVE SMOOTH",
"120 -20 OFFCURVE",
"4 131 OFFCURVE",
"42 309 QCURVE SMOOTH"
);
}
);
width = 874;
}
);
leftKerningGroup = u_LC;
rightKerningGroup = u_LC;
unicode = 0075;
},
{
glyphname = v;
layers = (
{
layerId = "E225F0DD-7274-4E95-954B-383A64365C0A";
paths = (
{
closed = 1;
nodes = (
"157 914 LINE",
"274 231 LINE SMOOTH",
"281 193 OFFCURVE",
"291 125 OFFCURVE",
"293 109 QCURVE",
"297 109 LINE",
"307 126 OFFCURVE",
"339 193 OFFCURVE",
"360 231 QCURVE SMOOTH",
"729 914 LINE",
"844 914 LINE",
"320 0 LINE",
"213 0 LINE",
"57 914 LINE"
);
}
);
width = 787;
}
);
leftKerningGroup = gamma;
rightKerningGroup = gamma;
unicode = 0076;
},
{
glyphname = w;
layers = (
{
layerId = "E225F0DD-7274-4E95-954B-383A64365C0A";
paths = (
{
closed = 1;
nodes = (
"162 914 LINE",
"212 239 LINE SMOOTH",
"215 201 OFFCURVE",
"220 130 OFFCURVE",
"220 109 QCURVE",
"225 109 LINE",
"234 131 OFFCURVE",
"268 201 OFFCURVE",
"286 239 QCURVE SMOOTH",
"613 914 LINE",
"727 914 LINE",
"801 243 LINE SMOOTH",
"805 205 OFFCURVE",
"813 131 OFFCURVE",
"815 113 QCURVE",
"821 113 LINE",
"828 133 OFFCURVE",
"863 211 OFFCURVE",
"878 243 QCURVE SMOOTH",
"1194 914 LINE",
"1293 914 LINE",
"852 0 LINE",
"741 0 LINE",
"656 700 LINE SMOOTH",
"653 726 OFFCURVE",
"651 804 OFFCURVE",
"653 832 QCURVE",
"648 832 LINE",
"640 801 OFFCURVE",
"611 728 OFFCURVE",
"597 700 QCURVE SMOOTH",
"254 0 LINE",
"141 0 LINE",
"67 914 LINE"
);
}
);
width = 1244;
}
);
leftKerningGroup = w_LC;
rightKerningGroup = w_LC;
unicode = 0077;
},
{
glyphname = x;
layers = (
{
layerId = "E225F0DD-7274-4E95-954B-383A64365C0A";
paths = (
{
closed = 1;
nodes = (
"277 498 LINE",
"296 498 LINE",
"626 914 LINE",
"733 914 LINE",
"341 430 LINE",
"324 430 LINE",
"-21 0 LINE",
"-129 0 LINE"
);
},
{
closed = 1;
nodes = (
"192 914 LINE",
"341 515 LINE",
"350 495 LINE",
"559 0 LINE",
"451 0 LINE",
"279 428 LINE",
"271 445 LINE",
"84 914 LINE"
);
}
);
width = 700;
}
);
unicode = 0078;
},
{
glyphname = y;
layers = (
{
layerId = "E225F0DD-7274-4E95-954B-383A64365C0A";
paths = (
{
closed = 1;
nodes = (
"-147 -322 LINE",
"-124 -331 OFFCURVE",
"-75 -338 OFFCURVE",
"-49 -338 QCURVE SMOOTH",
"16 -339 OFFCURVE",
"133 -172 OFFCURVE",
"220 3 QCURVE",
"220 3 LINE",
"57 914 LINE",
"158 914 LINE",
"278 231 LINE SMOOTH",
"285 194 OFFCURVE",
"290 141 OFFCURVE",
"291 115 QCURVE",
"296 115 LINE",
"308 141 OFFCURVE",
"338 196 OFFCURVE",
"358 233 QCURVE SMOOTH",
"732 914 LINE",
"846 914 LINE",
"242 -140 LINE SMOOTH",
"161 -292 OFFCURVE",
"28 -436 OFFCURVE",
"-68 -436 QCURVE SMOOTH",
"-103 -436 OFFCURVE",
"-152 -425 OFFCURVE",
"-175 -416 QCURVE"
);
}
);
width = 786;
}
);
leftKerningGroup = gamma;
rightKerningGroup = gamma;
unicode = 0079;
},
{
glyphname = z;
layers = (
{
layerId = "E225F0DD-7274-4E95-954B-383A64365C0A";
paths = (
{
closed = 1;
nodes = (
"-96 85 LINE",
"528 818 LINE",
"47 818 LINE",
"74 914 LINE",
"684 914 LINE",
"660 829 LINE",
"35 96 LINE",
"542 96 LINE",
"515 0 LINE",
"-120 0 LINE"
);
}
);
width = 651;
}
);
leftKerningGroup = z_LC;
rightKerningGroup = z_LC;
unicode = 007A;
},
{
glyphname = germandbls;
layers = (
{
layerId = "E225F0DD-7274-4E95-954B-383A64365C0A";
paths = (
{
closed = 1;
nodes = (
"332 0 LINE",
"148 0 LINE",
"148 1092 LINE SMOOTH",
"148 1295 OFFCURVE",
"356 1534 OFFCURVE",
"555 1534 QCURVE SMOOTH",
"719 1534 OFFCURVE",
"917 1361 OFFCURVE",
"917 1215 QCURVE SMOOTH",
"917 1127 OFFCURVE",
"867 1016 OFFCURVE",
"830 973 QCURVE SMOOTH",
"798 935 OFFCURVE",
"739 859 OFFCURVE",
"739 830 QCURVE SMOOTH",
"739 782 OFFCURVE",
"872 681 OFFCURVE",
"953 619 QCURVE SMOOTH",
"1031 560 OFFCURVE",
"1138 411 OFFCURVE",
"1138 282 QCURVE SMOOTH",
"1138 157 OFFCURVE",
"920 -20 OFFCURVE",
"753 -20 QCURVE SMOOTH",
"589 -20 OFFCURVE",
"392 129 OFFCURVE",
"392 278 QCURVE SMOOTH",
"392 304 LINE",
"555 304 LINE",
"555 295 LINE SMOOTH",
"555 211 OFFCURVE",
"660 131 OFFCURVE",
"755 131 QCURVE SMOOTH",
"856 131 OFFCURVE",
"963 218 OFFCURVE",
"963 302 QCURVE SMOOTH",
"963 371 OFFCURVE",
"864 466 OFFCURVE",
"807 512 QCURVE SMOOTH",
"735 569 OFFCURVE",
"563 706 OFFCURVE",
"563 797 QCURVE SMOOTH",
"563 871 OFFCURVE",
"646 982 OFFCURVE",
"678 1026 QCURVE SMOOTH",
"707 1066 OFFCURVE",
"742 1149 OFFCURVE",
"742 1204 QCURVE SMOOTH",
"742 1293 OFFCURVE",
"633 1383 OFFCURVE",
"551 1383 QCURVE SMOOTH",
"448 1383 OFFCURVE",
"332 1241 OFFCURVE",
"332 1092 QCURVE {name = hr00;}"
);
}
);
width = 1186;
}
);
unicode = 00DF;
},
{
glyphname = ae;
layers = (
{
layerId = "E225F0DD-7274-4E95-954B-383A64365C0A";
paths = (
{
closed = 1;
nodes = (
"276 230 OFFCURVE",
"380 128 OFFCURVE",
"490 128 QCURVE SMOOTH",
"600 128 OFFCURVE",
"778 280 OFFCURVE",
"778 365 QCURVE",
"778 516 LINE",
"560 516 LINE SMOOTH",
"420 516 OFFCURVE",
"276 410 OFFCURVE",
"276 320 QCURVE SMOOTH"
);
},
{
closed = 1;
nodes = (
"90 470 OFFCURVE",
"344 648 OFFCURVE",
"540 648 QCURVE SMOOTH",
"778 648 LINE",
"778 720 LINE SMOOTH",
"778 815 OFFCURVE",
"680 934 OFFCURVE",
"560 934 QCURVE SMOOTH",
"440 934 OFFCURVE",
"337 835 OFFCURVE",
"337 770 QCURVE SMOOTH",
"337 765 LINE",
"152 765 LINE",
"152 770 LINE SMOOTH",
"152 895 OFFCURVE",
"375 1082 OFFCURVE",
"565 1082 QCURVE SMOOTH",
"729 1082 OFFCURVE",
"901 949 OFFCURVE",
"911 872 QCURVE",
"931 950 OFFCURVE",
"1099 1082 OFFCURVE",
"1245 1082 QCURVE SMOOTH",
"1460 1082 OFFCURVE",
"1692 800 OFFCURVE",
"1692 560 QCURVE SMOOTH",
"1692 484 LINE",
"883 484 LINE",
"883 632 LINE",
"1504 632 LINE",
"1505 656 LINE",
"1504 770 OFFCURVE",
"1375 930 OFFCURVE",
"1242 930 QCURVE SMOOTH",
"1105 930 OFFCURVE",
"959 705 OFFCURVE",
"959 542 QCURVE SMOOTH",
"959 510 LINE SMOOTH",
"959 347 OFFCURVE",
"1113 122 OFFCURVE",
"1275 122 QCURVE SMOOTH",
"1375 122 OFFCURVE",
"1519 210 OFFCURVE",
"1564 270 QCURVE",
"1684 175 LINE",
"1634 100 OFFCURVE",
"1425 -30 OFFCURVE",
"1275 -30 QCURVE SMOOTH",
"1129 -30 OFFCURVE",
"897 90 OFFCURVE",
"843 213 QCURVE",
"802 99 OFFCURVE",
"602 -20 OFFCURVE",
"450 -20 QCURVE SMOOTH",
"300 -20 OFFCURVE",
"90 150 OFFCURVE",
"90 300 QCURVE SMOOTH"
);
}
);
width = 1748;
}
);
leftKerningGroup = a_LC;
rightKerningGroup = e_LC;
unicode = 00E6;
},
{
glyphname = eth;
layers = (
{
layerId = "E225F0DD-7274-4E95-954B-383A64365C0A";
paths = (
{
closed = 1;
nodes = (
"271 1581 LINE",
"608 1506 OFFCURVE",
"1029 1008 OFFCURVE",
"1029 633 QCURVE",
"1029 535 LINE",
"1029 289 OFFCURVE",
"763 -20 OFFCURVE",
"561 -20 QCURVE SMOOTH",
"351 -20 OFFCURVE",
"85 265 OFFCURVE",
"85 468 QCURVE SMOOTH",
"85 698 OFFCURVE",
"340 978 OFFCURVE",
"533 978 QCURVE SMOOTH",
"702 978 OFFCURVE",
"933 748 OFFCURVE",
"933 613 QCURVE",
"864 614 LINE",
"864 680 OFFCURVE",
"720 826 OFFCURVE",
"577 826 QCURVE SMOOTH",
"431 826 OFFCURVE",
"271 632 OFFCURVE",
"271 468 QCURVE SMOOTH",
"271 345 OFFCURVE",
"424 132 OFFCURVE",
"565 132 QCURVE SMOOTH",
"693 132 OFFCURVE",
"843 363 OFFCURVE",
"843 535 QCURVE SMOOTH",
"843 635 LINE SMOOTH",
"843 984 OFFCURVE",
"468 1355 OFFCURVE",
"214 1421 QCURVE"
);
},
{
closed = 1;
nodes = (
"400 1061 LINE",
"317 1181 LINE",
"854 1546 LINE",
"937 1427 LINE"
);
}
);
width = 1114;
}
);
unicode = 00F0;
},
{
glyphname = thorn;
layers = (
{
layerId = "E225F0DD-7274-4E95-954B-383A64365C0A";
paths = (
{
closed = 1;
nodes = (
"148 1536 LINE",
"334 1536 LINE",
"334 928 LINE",
"380 993 OFFCURVE",
"535 1072 OFFCURVE",
"645 1072 QCURVE SMOOTH",
"845 1072 OFFCURVE",
"1085 772 OFFCURVE",
"1085 542 QCURVE SMOOTH",
"1085 510 LINE SMOOTH",
"1085 280 OFFCURVE",
"845 -20 OFFCURVE",
"645 -20 QCURVE SMOOTH",
"535 -20 OFFCURVE",
"385 57 OFFCURVE",
"345 117 QCURVE",
"341 117 LINE",
"333 -416 LINE",
"148 -416 LINE"
);
},
{
closed = 1;
nodes = (
"365 242 OFFCURVE",
"505 132 OFFCURVE",
"605 132 QCURVE SMOOTH",
"755 132 OFFCURVE",
"895 350 OFFCURVE",
"895 510 QCURVE SMOOTH",
"895 542 LINE SMOOTH",
"895 702 OFFCURVE",
"755 920 OFFCURVE",
"605 920 QCURVE SMOOTH",
"505 920 OFFCURVE",
"365 810 OFFCURVE",
"334 740 QCURVE",
"334 312 LINE"
);
}
);
width = 1170;
}
);
rightKerningGroup = b_LC;
unicode = 00FE;
},
{
glyphname = kgreenlandic;
layers = (
{
layerId = "E225F0DD-7274-4E95-954B-383A64365C0A";
paths = (
{
closed = 1;
nodes = (
"340 0 LINE",
"155 0 LINE",
"155 1082 LINE",
"340 1082 LINE"
);
},
{
closed = 1;
nodes = (
"517 462 LINE",
"250 462 LINE",
"250 624 LINE",
"432 624 LINE",
"828 1082 LINE",
"1052 1082 LINE"
);
},
{
closed = 1;
nodes = (
"423 490 LINE",
"542 624 LINE",
"1088 0 LINE",
"854 0 LINE"
);
}
);
width = 1072;
}
);
leftKerningGroup = mnpr_LC;
rightKerningGroup = k_LC;
unicode = 0138;
},
{
glyphname = oe;
layers = (
{
layerId = "E225F0DD-7274-4E95-954B-383A64365C0A";
paths = (
{
closed = 1;
nodes = (
"275 510 LINE SMOOTH",
"275 347 OFFCURVE",
"429 122 OFFCURVE",
"581 122 QCURVE SMOOTH",
"733 122 OFFCURVE",
"887 346 OFFCURVE",
"887 510 QCURVE SMOOTH",
"887 542 LINE SMOOTH",
"887 706 OFFCURVE",
"733 930 OFFCURVE",
"581 930 QCURVE SMOOTH",
"429 930 OFFCURVE",
"275 705 OFFCURVE",
"275 542 QCURVE SMOOTH"
);
},
{
closed = 1;
nodes = (
"997 926 OFFCURVE",
"1212 1082 OFFCURVE",
"1390 1082 QCURVE SMOOTH",
"1577 1082 OFFCURVE",
"1809 800 OFFCURVE",
"1809 560 QCURVE SMOOTH",
"1809 484 LINE",
"1000 484 LINE",
"1000 632 LINE",
"1621 632 LINE",
"1622 656 LINE",
"1621 770 OFFCURVE",
"1492 930 OFFCURVE",
"1370 930 QCURVE SMOOTH",
"1222 930 OFFCURVE",
"1076 706 OFFCURVE",
"1076 542 QCURVE SMOOTH",
"1076 510 LINE SMOOTH",
"1076 346 OFFCURVE",
"1220 122 OFFCURVE",
"1382 122 QCURVE SMOOTH",
"1482 122 OFFCURVE",
"1636 210 OFFCURVE",
"1681 270 QCURVE",
"1801 175 LINE",
"1751 100 OFFCURVE",
"1542 -30 OFFCURVE",
"1413 -30 QCURVE SMOOTH",
"1216 -30 OFFCURVE",
"1009 110 OFFCURVE",
"979 185 QCURVE",
"949 111 OFFCURVE",
"746 -30 OFFCURVE",
"551 -30 QCURVE SMOOTH",
"355 -30 OFFCURVE",
"85 272 OFFCURVE",
"85 510 QCURVE SMOOTH",
"85 542 LINE SMOOTH",
"85 780 OFFCURVE",
"354 1081 OFFCURVE",
"569 1081 QCURVE SMOOTH",
"755 1081 OFFCURVE",
"957 921 OFFCURVE",
"977 866 QCURVE"
);
}
);
width = 1861;
}
);
leftKerningGroup = alpha;
rightKerningGroup = e_LC;
unicode = 0153;
},
{
glyphname = schwa;
layers = (
{
layerId = "E225F0DD-7274-4E95-954B-383A64365C0A";
paths = (
{
closed = 1;
nodes = (
"975 510 LINE SMOOTH",
"975 272 OFFCURVE",
"714 -30 OFFCURVE",
"499 -30 QCURVE SMOOTH",
"284 -30 OFFCURVE",
"52 252 OFFCURVE",
"52 492 QCURVE SMOOTH",
"52 568 LINE",
"861 568 LINE",
"861 420 LINE",
"240 420 LINE",
"239 396 LINE",
"240 282 OFFCURVE",
"369 122 OFFCURVE",
"491 122 QCURVE SMOOTH",
"639 122 OFFCURVE",
"785 347 OFFCURVE",
"785 510 QCURVE SMOOTH",
"785 542 LINE SMOOTH",
"785 705 OFFCURVE",
"631 930 OFFCURVE",
"469 930 QCURVE SMOOTH",
"369 930 OFFCURVE",
"225 842 OFFCURVE",
"180 782 QCURVE",
"60 877 LINE",
"110 952 OFFCURVE",
"319 1082 OFFCURVE",
"469 1082 QCURVE SMOOTH",
"714 1082 OFFCURVE",
"975 780 OFFCURVE",
"975 542 QCURVE SMOOTH"
);
}
);
width = 1060;
}
);
rightKerningGroup = o_LC;
unicode = 0259;
},
{
glyphname = primemod;
layers = (
{
layerId = "E225F0DD-7274-4E95-954B-383A64365C0A";
paths = (
{
closed = 1;
nodes = (
"413 1502 LINE",
"294 991 LINE",
"172 996 LINE",
"224 1502 LINE"
);
}
);
width = 600;
}
);
unicode = 02B9;
},
{
glyphname = doubleprimemod;
layers = (
{
layerId = "E225F0DD-7274-4E95-954B-383A64365C0A";
paths = (
{
closed = 1;
nodes = (
"413 1502 LINE",
"295 1004 LINE",
"173 1009 LINE",
"224 1502 LINE"
);
},
{
closed = 1;
nodes = (
"713 1502 LINE",
"595 1004 LINE",
"473 1009 LINE",
"524 1502 LINE"
);
}
);
width = 788;
}
);
unicode = 02BA;
},
{
glyphname = apostrophemod;
layers = (
{
layerId = "E225F0DD-7274-4E95-954B-383A64365C0A";
paths = (
{
closed = 1;
nodes = (
"195 1092 OFFCURVE",
"299 1210 OFFCURVE",
"314 1277 QCURVE",
"243 1277 OFFCURVE",
"163 1352 OFFCURVE",
"163 1411 QCURVE SMOOTH",
"163 1469 OFFCURVE",
"244 1546 OFFCURVE",
"307 1546 QCURVE SMOOTH",
"366 1546 OFFCURVE",
"462 1450 OFFCURVE",
"462 1373 QCURVE SMOOTH",
"462 1251 OFFCURVE",
"303 1063 OFFCURVE",
"198 1013 QCURVE",
"155 1062 LINE"
);
}
);
width = 600;
}
);
leftKerningGroup = minute;
rightKerningGroup = minute;
unicode = 02BC;
},
{
glyphname = ordfeminine;
layers = (
{
guideLines = (
{
position = "{0, 1681}";
},
{
position = "{0, 909}";
}
);
layerId = "E225F0DD-7274-4E95-954B-383A64365C0A";
paths = (
{
closed = 1;
nodes = (
"606 821 OFFCURVE",
"626 736 OFFCURVE",
"649 706 QCURVE",
"784 706 LINE",
"770 749 OFFCURVE",
"758 838 OFFCURVE",
"758 887 QCURVE SMOOTH",
"758 1201 LINE SMOOTH",
"758 1338 OFFCURVE",
"599 1477 OFFCURVE",
"464 1477 QCURVE SMOOTH",
"337 1477 OFFCURVE",
"165 1356 OFFCURVE",
"165 1261 QCURVE SMOOTH",
"165 1234 LINE",
"320 1234 LINE",
"320 1247 LINE SMOOTH",
"320 1292 OFFCURVE",
"395 1346 OFFCURVE",
"466 1346 QCURVE SMOOTH",
"533 1346 OFFCURVE",
"606 1276 OFFCURVE",
"606 1202 QCURVE SMOOTH",
"606 862 LINE"
);
},
{
closed = 1;
nodes = (
"477 1149 LINE SMOOTH",
"308 1149 OFFCURVE",
"141 1028 OFFCURVE",
"141 918 QCURVE SMOOTH",
"141 816 OFFCURVE",
"268 692 OFFCURVE",
"387 692 QCURVE SMOOTH",
"488 692 OFFCURVE",
"619 788 OFFCURVE",
"641 837 QCURVE",
"623 949 LINE",
"623 911 OFFCURVE",
"490 822 OFFCURVE",
"426 822 QCURVE SMOOTH",
"362 822 OFFCURVE",
"298 879 OFFCURVE",
"298 922 QCURVE SMOOTH",
"298 969 OFFCURVE",
"388 1042 OFFCURVE",
"478 1042 QCURVE SMOOTH",
"635 1042 LINE",
"635 1149 LINE"
);
}
);
width = 916;
}
);
unicode = 00AA;
userData = {
com.typemytype.robofont.guideline.magnetic.3CJlALCfkl = 5;
com.typemytype.robofont.guideline.magnetic.Zdl6NZVQAy = 5;
};
},
{
glyphname = ordmasculine;
layers = (
{
guideLines = (
{
position = "{0, 1975}";
}
);
layerId = "E225F0DD-7274-4E95-954B-383A64365C0A";
paths = (
{
closed = 1;
nodes = (
"123 1124 LINE",
"123 1278 OFFCURVE",
"308.284 1477 OFFCURVE",
"465 1477 QCURVE SMOOTH",
"623.209 1477 OFFCURVE",
"807 1277.731 OFFCURVE",
"807 1124 QCURVE",
"807 1043 LINE",
"807 889.269 OFFCURVE",
"623.716 691 OFFCURVE",
"467 691 QCURVE SMOOTH",
"308.791 691 OFFCURVE",
"123 889 OFFCURVE",
"123 1043 QCURVE"
);
},
{
closed = 1;
nodes = (
"286 1043 LINE",
"286 951.955 OFFCURVE",
"375.209 830 OFFCURVE",
"467 830 QCURVE SMOOTH",
"555.806 830 OFFCURVE",
"645 951.955 OFFCURVE",
"645 1043 QCURVE",
"645 1124 LINE",
"645 1212.806 OFFCURVE",
"555.299 1336 OFFCURVE",
"465 1336 QCURVE SMOOTH",
"374.702 1336 OFFCURVE",
"286 1212.806 OFFCURVE",
"286 1124 QCURVE"
);
}
);
width = 932;
}
);
unicode = 00BA;
userData = {
com.typemytype.robofont.guideline.magnetic.Jnt0R9CyOf = 5;
};
},
{
glyphname = hookabovecomb;
layers = (
{
layerId = "E225F0DD-7274-4E95-954B-383A64365C0A";
paths = (
{
closed = 1;
nodes = (
"400 999 LINE SMOOTH",
"400 1043 OFFCURVE",
"440 1076 OFFCURVE",
"537 1086 QCURVE SMOOTH",
"586 1091 OFFCURVE",
"634 1141 OFFCURVE",
"634 1187 QCURVE SMOOTH",
"634 1226 OFFCURVE",
"578 1267 OFFCURVE",
"520 1267 QCURVE SMOOTH",
"456 1267 OFFCURVE",
"345 1239 OFFCURVE",
"335 1231 QCURVE",
"288 1312 LINE",
"319 1328 OFFCURVE",
"454 1363 OFFCURVE",
"526 1363 QCURVE SMOOTH",
"631 1363 OFFCURVE",
"743 1265 OFFCURVE",
"743 1182 QCURVE SMOOTH",
"743 1096 OFFCURVE",
"623 1003 OFFCURVE",
"498 994 QCURVE",
"498 957 LINE",
"400 957 LINE"
);
}
);
width = 1024;
}
);
unicode = 0309;
},
{
glyphname = breveinvertedcomb;
layers = (
{
layerId = "E225F0DD-7274-4E95-954B-383A64365C0A";
paths = (
{
closed = 1;
nodes = (
"219 1010 LINE",
"252 1089 OFFCURVE",
"401 1235 OFFCURVE",
"511 1235 QCURVE SMOOTH",
"609 1235 OFFCURVE",
"766 1105 OFFCURVE",
"803 1009 QCURVE",
"726 974 LINE",
"676 1055 OFFCURVE",
"574 1127 OFFCURVE",
"510 1127 QCURVE SMOOTH",
"448 1127 OFFCURVE",
"348 1055 OFFCURVE",
"297 974 QCURVE"
);
}
);
width = 1024;
}
);
unicode = 030F;
},
{
glyphname = horncomb;
layers = (
{
layerId = "E225F0DD-7274-4E95-954B-383A64365C0A";
paths = (
{
closed = 1;
nodes = (
"84 914 LINE SMOOTH",
"166 914 OFFCURVE",
"227 957 OFFCURVE",
"227 1004 QCURVE SMOOTH",
"227 1050 OFFCURVE",
"207 1133 OFFCURVE",
"194 1169 QCURVE",
"284 1169 LINE",
"302 1137 OFFCURVE",
"335 1038 OFFCURVE",
"335 974 QCURVE SMOOTH",
"335 916 OFFCURVE",
"240 833 OFFCURVE",
"144 833 QCURVE SMOOTH",
"98 833 OFFCURVE",
"26 841 OFFCURVE",
"0 847 QCURVE",
"0 914 LINE"
);
}
);
width = 1024;
}
);
unicode = 031B;
},
{
glyphname = dotbelowcomb;
layers = (
{
layerId = "E225F0DD-7274-4E95-954B-383A64365C0A";
paths = (
{
closed = 1;
nodes = (
"420 -218 OFFCURVE",
"468 -164 OFFCURVE",
"512 -164 QCURVE SMOOTH",
"556 -164 OFFCURVE",
"603 -217 OFFCURVE",
"603 -257 QCURVE SMOOTH",
"603 -297 OFFCURVE",
"555 -352 OFFCURVE",
"511 -352 QCURVE SMOOTH",
"467 -352 OFFCURVE",
"420 -297 OFFCURVE",
"420 -257 QCURVE SMOOTH"
);
}
);
width = 1024;
}
);
unicode = 0323;
},
{
glyphname = dieresisbelowcomb;
layers = (
{
layerId = "E225F0DD-7274-4E95-954B-383A64365C0A";
paths = (
{
closed = 1;
nodes = (
"209 -242 OFFCURVE",
"259 -186 OFFCURVE",
"307 -186 QCURVE SMOOTH",
"356 -186 OFFCURVE",
"406 -242 OFFCURVE",
"406 -283 QCURVE SMOOTH",
"406 -321 OFFCURVE",
"356 -376 OFFCURVE",
"307 -376 QCURVE SMOOTH",
"259 -376 OFFCURVE",
"209 -321 OFFCURVE",
"209 -283 QCURVE SMOOTH"
);
},
{
closed = 1;
nodes = (
"618 -244 OFFCURVE",
"668 -188 OFFCURVE",
"716 -188 QCURVE SMOOTH",
"764 -188 OFFCURVE",
"815 -244 OFFCURVE",
"815 -285 QCURVE SMOOTH",
"815 -323 OFFCURVE",
"764 -378 OFFCURVE",
"716 -378 QCURVE SMOOTH",
"668 -378 OFFCURVE",
"618 -323 OFFCURVE",
"618 -285 QCURVE SMOOTH"
);
}
);
width = 1024;
}
);
unicode = 0324;
},
{
glyphname = commaaccentcomb;
layers = (
{
layerId = "E225F0DD-7274-4E95-954B-383A64365C0A";
paths = (
{
closed = 1;
nodes = (
"444 -424 OFFCURVE",
"480 -284 OFFCURVE",
"503 -156 QCURVE",
"635 -154 LINE",
"518 -531 LINE",
"415 -528 LINE"
);
}
);
width = 1024;
}
);
unicode = 0326;
},
{
glyphname = brevebelowcomb;
layers = (
{
layerId = "E225F0DD-7274-4E95-954B-383A64365C0A";
paths = (
{
closed = 1;
nodes = (
"803 -131 LINE",
"770 -210 OFFCURVE",
"621 -356 OFFCURVE",
"511 -356 QCURVE SMOOTH",
"413 -356 OFFCURVE",
"256 -226 OFFCURVE",
"219 -130 QCURVE",
"309 -91 LINE",
"338 -140 OFFCURVE",
"443 -228 OFFCURVE",
"512 -228 QCURVE SMOOTH",
"585 -228 OFFCURVE",
"689 -142 OFFCURVE",
"721 -91 QCURVE"
);
}
);
width = 1024;
}
);
unicode = 032E;
},
{
glyphname = macronbelowcomb;
layers = (
{
layerId = "E225F0DD-7274-4E95-954B-383A64365C0A";
paths = (
{
closed = 1;
nodes = (
"216 -123 LINE",
"808 -123 LINE",
"808 -259 LINE",
"216 -259 LINE"
);
}
);
width = 1024;
}
);
unicode = 0331;
},
{
glyphname = zero;
layers = (
{
layerId = "E225F0DD-7274-4E95-954B-383A64365C0A";
paths = (
{
closed = 1;
nodes = (
"134 1029 LINE SMOOTH",
"173 1250 OFFCURVE",
"409 1476 OFFCURVE",
"578 1476 QCURVE SMOOTH",
"746 1476 OFFCURVE",
"889 1250 OFFCURVE",
"850 1029 QCURVE SMOOTH",
"744 427 LINE SMOOTH",
"705 206 OFFCURVE",
"467 -22 OFFCURVE",
"298 -20 QCURVE SMOOTH",
"130 -18 OFFCURVE",
"-11 206 OFFCURVE",
"28 427 QCURVE SMOOTH"
);
},
{
closed = 1;
nodes = (
"101 252 OFFCURVE",
"201 78 OFFCURVE",
"326 78 QCURVE SMOOTH",
"452 78 OFFCURVE",
"609 252 OFFCURVE",
"638 417 QCURVE SMOOTH",
"748 1039 LINE SMOOTH",
"777 1204 OFFCURVE",
"676 1377 OFFCURVE",
"550 1377 QCURVE SMOOTH",
"425 1377 OFFCURVE",
"269 1204 OFFCURVE",
"240 1039 QCURVE SMOOTH",
"130 417 LINE SMOOTH"
);
}
);
width = 866;
}
);
unicode = 0030;
},
{
glyphname = one;
layers = (
{
layerId = "E225F0DD-7274-4E95-954B-383A64365C0A";
paths = (
{
closed = 1;
nodes = (
"537 1359 LINE",
"154 1228 LINE",
"187 1332 LINE",
"605 1476 LINE",
"663 1476 LINE",
"403 0 LINE",
"297 0 LINE"
);
}
);
width = 865;
}
);
unicode = 0031;
},
{
glyphname = two;
layers = (
{
layerId = "E225F0DD-7274-4E95-954B-383A64365C0A";
paths = (
{
closed = 1;
nodes = (
"-58 87 LINE",
"485 696 LINE SMOOTH",
"581 804 OFFCURVE",
"732 1019 OFFCURVE",
"749 1120 QCURVE SMOOTH",
"767 1257 OFFCURVE",
"644 1378 OFFCURVE",
"536 1378 QCURVE SMOOTH",
"423 1378 OFFCURVE",
"240 1245 OFFCURVE",
"216 1075 QCURVE SMOOTH",
"213 1053 LINE",
"109 1053 LINE",
"111 1075 LINE SMOOTH",
"129 1275 OFFCURVE",
"405 1476 OFFCURVE",
"566 1476 QCURVE SMOOTH",
"713 1476 OFFCURVE",
"885 1279 OFFCURVE",
"860 1123 QCURVE SMOOTH",
"840 1001 OFFCURVE",
"689 781 OFFCURVE",
"556 633 QCURVE SMOOTH",
"76 98 LINE",
"730 98 LINE",
"701 0 LINE",
"-72 0 LINE"
);
}
);
width = 865;
}
);
unicode = 0032;
},
{
glyphname = three;
layers = (
{
layerId = "E225F0DD-7274-4E95-954B-383A64365C0A";
paths = (
{
closed = 1;
nodes = (
"-29 395 LINE",
"76 395 LINE",
"74 375 LINE SMOOTH",
"53 226 OFFCURVE",
"199 75 OFFCURVE",
"319 75 QCURVE SMOOTH",
"450 75 OFFCURVE",
"631 230 OFFCURVE",
"656 391 QCURVE SMOOTH",
"681 555 OFFCURVE",
"536 715 OFFCURVE",
"380 715 QCURVE SMOOTH",
"231 715 LINE",
"258 810 LINE",
"399 810 LINE SMOOTH",
"523 810 OFFCURVE",
"709 942 OFFCURVE",
"730 1109 QCURVE SMOOTH",
"751 1245 OFFCURVE",
"642 1377 OFFCURVE",
"530 1377 QCURVE SMOOTH",
"408 1377 OFFCURVE",
"256 1236 OFFCURVE",
"237 1105 QCURVE SMOOTH",
"234 1083 LINE",
"130 1083 LINE",
"132 1105 LINE SMOOTH",
"149 1287 OFFCURVE",
"405 1476 OFFCURVE",
"558 1476 QCURVE SMOOTH",
"702 1476 OFFCURVE",
"861 1280 OFFCURVE",
"836 1114 QCURVE SMOOTH",
"814 967 OFFCURVE",
"675 797 OFFCURVE",
"574 763 QCURVE",
"573 759 LINE",
"668 736 OFFCURVE",
"789 553 OFFCURVE",
"756 368 QCURVE SMOOTH",
"724 186 OFFCURVE",
"480 -20 OFFCURVE",
"291 -20 QCURVE SMOOTH",
"117 -20 OFFCURVE",
"-62 193 OFFCURVE",
"-30 375 QCURVE SMOOTH"
);
}
);
width = 865;
}
);
unicode = 0033;
},
{
glyphname = four;
layers = (
{
layerId = "E225F0DD-7274-4E95-954B-383A64365C0A";
paths = (
{
closed = 1;
nodes = (
"506 391 LINE",
"516 405 LINE",
"659 1244 LINE",
"653 1244 LINE",
"86 442 LINE",
"551 440 LINE",
"574 440 LINE",
"815 440 LINE",
"787 349 LINE",
"-40 349 LINE",
"-18 452 LINE",
"697 1456 LINE",
"797 1456 LINE",
"540 0 LINE",
"436 0 LINE"
);
}
);
width = 866;
}
);
unicode = 0034;
},
{
glyphname = five;
layers = (
{
layerId = "E225F0DD-7274-4E95-954B-383A64365C0A";
paths = (
{
closed = 1;
nodes = (
"-32 390 LINE",
"73 390 LINE",
"71 370 LINE SMOOTH",
"51 224 OFFCURVE",
"180 78 OFFCURVE",
"314 78 QCURVE SMOOTH",
"449 78 OFFCURVE",
"630 266 OFFCURVE",
"667 465 QCURVE SMOOTH",
"705 667 OFFCURVE",
"598 825 OFFCURVE",
"469 825 QCURVE SMOOTH",
"365 825 OFFCURVE",
"201 742 OFFCURVE",
"156 690 QCURVE",
"80 717 LINE",
"278 1456 LINE",
"883 1456 LINE",
"853 1360 LINE",
"350 1360 LINE",
"205 814 LINE",
"250 859 OFFCURVE",
"416 920 OFFCURVE",
"516 920 QCURVE SMOOTH",
"655 920 OFFCURVE",
"816 697 OFFCURVE",
"771 451 QCURVE SMOOTH",
"727 211 OFFCURVE",
"478 -20 OFFCURVE",
"287 -20 QCURVE SMOOTH",
"110 -20 OFFCURVE",
"-64 181 OFFCURVE",
"-34 370 QCURVE SMOOTH"
);
}
);
width = 865;
}
);
unicode = 0035;
},
{
glyphname = six;
layers = (
{
layerId = "E225F0DD-7274-4E95-954B-383A64365C0A";
paths = (
{
closed = 1;
nodes = (
"51 644 LINE SMOOTH",
"117 1038 OFFCURVE",
"522 1476 OFFCURVE",
"797 1476 QCURVE SMOOTH",
"815 1476 LINE",
"788 1366 LINE",
"770 1366 LINE SMOOTH",
"540 1366 OFFCURVE",
"223 1004 OFFCURVE",
"149 634 QCURVE SMOOTH",
"145 614 LINE SMOOTH",
"82 301 OFFCURVE",
"203 75 OFFCURVE",
"338 75 QCURVE SMOOTH",
"466 75 OFFCURVE",
"649 261 OFFCURVE",
"677 447 QCURVE SMOOTH",
"704 624 OFFCURVE",
"608 814 OFFCURVE",
"488 814 QCURVE SMOOTH",
"351 814 OFFCURVE",
"145 620 OFFCURVE",
"117 465 QCURVE",
"56 465 LINE",
"95 665 OFFCURVE",
"359 908 OFFCURVE",
"513 908 QCURVE SMOOTH",
"662 908 OFFCURVE",
"820 661 OFFCURVE",
"782 445 QCURVE SMOOTH",
"745 235 OFFCURVE",
"487 -20 OFFCURVE",
"315 -20 QCURVE SMOOTH",
"134 -20 OFFCURVE",
"-10 276 OFFCURVE",
"46 614 QCURVE SMOOTH"
);
}
);
width = 865;
}
);
unicode = 0036;
},
{
glyphname = seven;
layers = (
{
layerId = "E225F0DD-7274-4E95-954B-383A64365C0A";
paths = (
{
closed = 1;
nodes = (
"787 1358 LINE",
"118 1358 LINE",
"146 1456 LINE",
"899 1456 LINE",
"900 1372 LINE",
"200 0 LINE",
"88 0 LINE"
);
}
);
width = 865;
}
);
unicode = 0037;
},
{
glyphname = eight;
layers = (
{
layerId = "E225F0DD-7274-4E95-954B-383A64365C0A";
paths = (
{
closed = 1;
nodes = (
"-1 524 OFFCURVE",
"187 731 OFFCURVE",
"285 755 QCURVE",
"285 759 LINE",
"208 790 OFFCURVE",
"118 951 OFFCURVE",
"139 1096 QCURVE SMOOTH",
"171 1276 OFFCURVE",
"400 1476 OFFCURVE",
"560 1476 QCURVE SMOOTH",
"718 1476 OFFCURVE",
"870 1254 OFFCURVE",
"837 1096 QCURVE SMOOTH",
"805 944 OFFCURVE",
"653 772 OFFCURVE",
"569 745 QCURVE",
"569 741 LINE",
"665 709 OFFCURVE",
"778 528 OFFCURVE",
"756 377 QCURVE SMOOTH",
"721 183 OFFCURVE",
"457 -20 OFFCURVE",
"292 -20 QCURVE SMOOTH",
"130 -20 OFFCURVE",
"-55 204 OFFCURVE",
"-26 377 QCURVE SMOOTH"
);
},
{
closed = 1;
nodes = (
"58 243 OFFCURVE",
"186 75 OFFCURVE",
"319 75 QCURVE SMOOTH",
"452 75 OFFCURVE",
"631 244 OFFCURVE",
"652 389 QCURVE SMOOTH",
"673 543 OFFCURVE",
"533 699 OFFCURVE",
"414 699 QCURVE SMOOTH",
"295 699 OFFCURVE",
"100 543 OFFCURVE",
"79 390 QCURVE SMOOTH"
);
},
{
closed = 1;
nodes = (
"221 961 OFFCURVE",
"341 792 OFFCURVE",
"442 792 QCURVE SMOOTH",
"543 792 OFFCURVE",
"709 961 OFFCURVE",
"732 1094 QCURVE SMOOTH",
"753 1217 OFFCURVE",
"663 1378 OFFCURVE",
"531 1378 QCURVE SMOOTH",
"409 1378 OFFCURVE",
"260 1237 OFFCURVE",
"241 1094 QCURVE SMOOTH"
);
}
);
width = 866;
}
);
unicode = 0038;
},
{
glyphname = nine;
layers = (
{
layerId = "E225F0DD-7274-4E95-954B-383A64365C0A";
paths = (
{
closed = 1;
nodes = (
"141 1221 OFFCURVE",
"397 1476 OFFCURVE",
"566 1476 QCURVE SMOOTH",
"750 1476 OFFCURVE",
"902 1179 OFFCURVE",
"842 842 QCURVE SMOOTH",
"837 812 LINE SMOOTH",
"770 418 OFFCURVE",
"362 -20 OFFCURVE",
"87 -20 QCURVE SMOOTH",
"69 -20 LINE",
"97 78 LINE",
"115 78 LINE SMOOTH",
"345 78 OFFCURVE",
"670 450 OFFCURVE",
"732 822 QCURVE SMOOTH",
"741 842 LINE SMOOTH",
"787 1134 OFFCURVE",
"666 1377 OFFCURVE",
"534 1377 QCURVE SMOOTH",
"416 1377 OFFCURVE",
"236 1195 OFFCURVE",
"209 1001 QCURVE SMOOTH",
"181 822 OFFCURVE",
"293 652 OFFCURVE",
"421 652 QCURVE SMOOTH",
"539 652 OFFCURVE",
"739 836 OFFCURVE",
"766 991 QCURVE",
"830 991 LINE",
"792 791 OFFCURVE",
"528 554 OFFCURVE",
"374 554 QCURVE SMOOTH",
"204 554 OFFCURVE",
"64 789 OFFCURVE",
"103 1001 QCURVE SMOOTH"
);
}
);
width = 865;
}
);
unicode = 0039;
},
{
glyphname = onesuperior;
layers = (
{
layerId = "E225F0DD-7274-4E95-954B-383A64365C0A";
paths = (
{
closed = 1;
nodes = (
"45 1384 LINE",
"290 1474 LINE",
"334 1474 LINE",
"334 677 LINE",
"227 677 LINE",
"227 1346 LINE",
"45 1287 LINE"
);
}
);
width = 467;
}
);
unicode = 00B9;
},
{
glyphname = twosuperior;
layers = (
{
layerId = "E225F0DD-7274-4E95-954B-383A64365C0A";
paths = (
{
closed = 1;
nodes = (
"81 772 LINE",
"321 1053 LINE SMOOTH",
"375 1116 OFFCURVE",
"418 1200 OFFCURVE",
"418 1246 QCURVE SMOOTH",
"418 1314 OFFCURVE",
"356 1384 OFFCURVE",
"301 1384 QCURVE SMOOTH",
"240 1384 OFFCURVE",
"165 1283 OFFCURVE",
"166 1208 QCURVE",
"67 1208 LINE",
"67 1330 OFFCURVE",
"202 1474 OFFCURVE",
"306 1474 QCURVE SMOOTH",
"413 1474 OFFCURVE",
"527 1346 OFFCURVE",
"527 1257 QCURVE SMOOTH",
"527 1168 OFFCURVE",
"456 1067 OFFCURVE",
"387 988 QCURVE SMOOTH",
"204 779 LINE",
"545 779 LINE",
"545 684 LINE",
"81 684 LINE"
);
}
);
width = 593;
}
);
unicode = 00B2;
},
{
glyphname = threesuperior;
layers = (
{
layerId = "E225F0DD-7274-4E95-954B-383A64365C0A";
paths = (
{
closed = 1;
nodes = (
"162 900 LINE",
"162 843 OFFCURVE",
"222 754 OFFCURVE",
"302 754 QCURVE SMOOTH",
"376 754 OFFCURVE",
"446 836 OFFCURVE",
"446 905 QCURVE SMOOTH",
"446 972 OFFCURVE",
"366 1046 OFFCURVE",
"283 1046 QCURVE SMOOTH",
"215 1046 LINE",
"215 1134 LINE",
"283 1134 LINE SMOOTH",
"356 1134 OFFCURVE",
"429 1195 OFFCURVE",
"429 1255 QCURVE SMOOTH",
"429 1314 OFFCURVE",
"371 1379 OFFCURVE",
"301 1379 QCURVE SMOOTH",
"231 1379 OFFCURVE",
"167 1304 OFFCURVE",
"167 1246 QCURVE",
"82 1246 LINE",
"82 1347 OFFCURVE",
"197 1477 OFFCURVE",
"300 1477 QCURVE SMOOTH",
"402 1477 OFFCURVE",
"527 1361 OFFCURVE",
"527 1265 QCURVE SMOOTH",
"527 1202 OFFCURVE",
"477 1110 OFFCURVE",
"429 1088 QCURVE",
"483 1065 OFFCURVE",
"546 963 OFFCURVE",
"546 897 QCURVE SMOOTH",
"546 778 OFFCURVE",
"403 658 OFFCURVE",
"307 658 QCURVE SMOOTH",
"201 658 OFFCURVE",
"67 778 OFFCURVE",
"67 900 QCURVE"
);
}
);
width = 605;
}
);
unicode = 00B3;
},
{
glyphname = foursuperior;
layers = (
{
layerId = "E225F0DD-7274-4E95-954B-383A64365C0A";
paths = (
{
closed = 1;
nodes = (
"54 952 LINE",
"372 1466 LINE",
"446 1466 LINE",
"329 1240 LINE",
"152 950 LINE",
"620 950 LINE",
"620 860 LINE",
"61 860 LINE"
);
},
{
closed = 1;
nodes = (
"485 677 LINE",
"392 677 LINE",
"392 1466 LINE",
"485 1466 LINE"
);
}
);
width = 684;
}
);
unicode = 2074;
},
{
glyphname = underscore;
layers = (
{
layerId = "E225F0DD-7274-4E95-954B-383A64365C0A";
paths = (
{
closed = 1;
nodes = (
"-171 -219 LINE",
"686 -219 LINE",
"656 -317 LINE",
"-201 -317 LINE"
);
}
);
width = 857;
}
);
unicode = 005F;
},
{
glyphname = hyphen;
layers = (
{
layerId = "E225F0DD-7274-4E95-954B-383A64365C0A";
paths = (
{
closed = 1;
nodes = (
"36 686 LINE",
"497 686 LINE",
"466 594 LINE",
"6 594 LINE"
);
}
);
width = 536;
}
);
leftKerningGroup = emdash;
rightKerningGroup = emdash;
unicode = 002D;
},
{
glyphname = endash;
layers = (
{
layerId = "E225F0DD-7274-4E95-954B-383A64365C0A";
paths = (
{
closed = 1;
nodes = (
"0 700 LINE",
"1024 700 LINE",
"1024 532 LINE",
"0 532 LINE"
);
}
);
width = 1024;
}
);
leftKerningGroup = emdash;
rightKerningGroup = emdash;
unicode = 2013;
},
{
glyphname = emdash;
layers = (
{
layerId = "E225F0DD-7274-4E95-954B-383A64365C0A";
paths = (
{
closed = 1;
nodes = (
"260 700 LINE",
"1788 700 LINE",
"1788 532 LINE",
"260 532 LINE"
);
}
);
width = 2048;
}
);
leftKerningGroup = emdash;
rightKerningGroup = emdash;
unicode = 2014;
},
{
glyphname = horizontalbar;
layers = (
{
layerId = "E225F0DD-7274-4E95-954B-383A64365C0A";
paths = (
{
closed = 1;
nodes = (
"50 762 LINE",
"605 762 LINE",
"605 666 LINE",
"50 666 LINE"
);
}
);
width = 656;
}
);
leftKerningGroup = emdash;
rightKerningGroup = emdash;
unicode = 2015;
},
{
glyphname = parenleft;
layers = (
{
layerId = "E225F0DD-7274-4E95-954B-383A64365C0A";
paths = (
{
closed = 1;
nodes = (
"164 -357 OFFCURVE",
"17 122 OFFCURVE",
"83 515 QCURVE SMOOTH",
"102 623 LINE SMOOTH",
"160 952 OFFCURVE",
"450 1396 OFFCURVE",
"668 1476 QCURVE",
"652 1363 LINE",
"505 1291 OFFCURVE",
"246 902 OFFCURVE",
"188 532 QCURVE SMOOTH",
"184 508 LINE SMOOTH",
"128 138 OFFCURVE",
"243 -274 OFFCURVE",
"363 -346 QCURVE",
"331 -436 LINE"
);
}
);
width = 592;
}
);
rightKerningGroup = parens;
unicode = 0028;
},
{
glyphname = parenright;
layers = (
{
layerId = "E225F0DD-7274-4E95-954B-383A64365C0A";
paths = (
{
closed = 1;
nodes = (
"-118 -346 LINE",
"33 -279 OFFCURVE",
"276 138 OFFCURVE",
"331 508 QCURVE SMOOTH",
"335 532 LINE SMOOTH",
"393 902 OFFCURVE",
"276 1314 OFFCURVE",
"155 1386 QCURVE",
"187 1476 LINE",
"356 1397 OFFCURVE",
"505 918 OFFCURVE",
"436 525 QCURVE SMOOTH",
"423 446 LINE SMOOTH",
"362 73 OFFCURVE",
"76 -377 OFFCURVE",
"-150 -436 QCURVE"
);
}
);
width = 592;
}
);
leftKerningGroup = parens;
unicode = 0029;
},
{
glyphname = bracketleft;
layers = (
{
layerId = "E225F0DD-7274-4E95-954B-383A64365C0A";
paths = (
{
closed = 1;
nodes = (
"268 1456 LINE",
"635 1456 LINE",
"607 1358 LINE",
"344 1358 LINE",
"89 -212 LINE",
"352 -212 LINE",
"324 -310 LINE",
"-43 -310 LINE"
);
}
);
width = 553;
}
);
rightKerningGroup = parens;
unicode = 005B;
},
{
glyphname = bracketright;
layers = (
{
layerId = "E225F0DD-7274-4E95-954B-383A64365C0A";
paths = (
{
closed = 1;
nodes = (
"-137 -310 LINE",
"-109 -212 LINE",
"155 -212 LINE",
"410 1358 LINE",
"146 1358 LINE",
"174 1456 LINE",
"542 1456 LINE",
"231 -310 LINE"
);
}
);
width = 553;
}
);
leftKerningGroup = parens;
unicode = 005D;
},
{
glyphname = braceleft;
layers = (
{
layerId = "E225F0DD-7274-4E95-954B-383A64365C0A";
paths = (
{
closed = 1;
nodes = (
"192 -312 OFFCURVE",
"39 -74 OFFCURVE",
"111 117 QCURVE SMOOTH",
"194 329 LINE SMOOTH",
"240 454 OFFCURVE",
"133 534 OFFCURVE",
"32 534 QCURVE",
"55 614 LINE",
"157 614 OFFCURVE",
"287 694 OFFCURVE",
"278 819 QCURVE SMOOTH",
"270 1031 LINE SMOOTH",
"252 1222 OFFCURVE",
"504 1460 OFFCURVE",
"681 1460 QCURVE",
"656 1380 LINE",
"517 1380 OFFCURVE",
"359 1192 OFFCURVE",
"373 1026 QCURVE SMOOTH",
"382 814 LINE SMOOTH",
"386 730 OFFCURVE",
"292 602 OFFCURVE",
"192 574 QCURVE",
"283 546 OFFCURVE",
"330 418 OFFCURVE",
"297 334 QCURVE SMOOTH",
"214 122 LINE SMOOTH",
"157 -44 OFFCURVE",
"256 -232 OFFCURVE",
"395 -232 QCURVE",
"369 -312 LINE"
);
}
);
width = 597;
}
);
rightKerningGroup = parens;
unicode = 007B;
},
{
glyphname = braceright;
layers = (
{
layerId = "E225F0DD-7274-4E95-954B-383A64365C0A";
paths = (
{
closed = 1;
nodes = (
"-113 -232 LINE",
"24 -232 OFFCURVE",
"185 -44 OFFCURVE",
"170 122 QCURVE SMOOTH",
"162 334 LINE SMOOTH",
"158 418 OFFCURVE",
"251 546 OFFCURVE",
"352 574 QCURVE",
"260 602 OFFCURVE",
"213 730 OFFCURVE",
"246 814 QCURVE SMOOTH",
"329 1026 LINE SMOOTH",
"387 1192 OFFCURVE",
"285 1380 OFFCURVE",
"148 1380 QCURVE",
"174 1460 LINE",
"353 1460 OFFCURVE",
"503 1222 OFFCURVE",
"434 1031 QCURVE SMOOTH",
"350 819 LINE SMOOTH",
"304 694 OFFCURVE",
"409 614 OFFCURVE",
"511 614 QCURVE",
"487 535 LINE",
"386 535 OFFCURVE",
"257 455 OFFCURVE",
"265 329 QCURVE SMOOTH",
"274 117 LINE SMOOTH",
"289 -74 OFFCURVE",
"40 -312 OFFCURVE",
"-139 -312 QCURVE"
);
}
);
width = 597;
}
);
leftKerningGroup = parens;
unicode = 007D;
},
{
glyphname = leftanglebracket;
layers = (
{
layerId = "E225F0DD-7274-4E95-954B-383A64365C0A";
paths = (
{
closed = 1;
nodes = (
"-16 665 LINE",
"586 1499 LINE",
"699 1413 LINE",
"175 604 LINE",
"698 -219 LINE",
"586 -304 LINE",
"-16 536 LINE"
);
}
);
width = 700;
}
);
rightKerningGroup = parens;
unicode = 27E8;
},
{
glyphname = rightanglebracket;
layers = (
{
layerId = "E225F0DD-7274-4E95-954B-383A64365C0A";
paths = (
{
closed = 1;
nodes = (
"508 591 LINE",
"-15 1414 LINE",
"97 1499 LINE",
"699 659 LINE",
"699 530 LINE",
"97 -304 LINE",
"-16 -218 LINE"
);
}
);
width = 700;
}
);
leftKerningGroup = parens;
unicode = 27E9;
},
{
glyphname = numbersign;
layers = (
{
layerId = "E225F0DD-7274-4E95-954B-383A64365C0A";
paths = (
{
closed = 1;
nodes = (
"686 1476 LINE",
"775 1476 LINE",
"276 -20 LINE",
"187 -20 LINE"
);
},
{
closed = 1;
nodes = (
"1099 1476 LINE",
"1187 1476 LINE",
"688 -20 LINE",
"599 -20 LINE"
);
},
{
closed = 1;
nodes = (
"45 525 LINE",
"1188 525 LINE",
"1164 439 LINE",
"20 439 LINE"
);
},
{
closed = 1;
nodes = (
"210 1015 LINE",
"1353 1015 LINE",
"1329 929 LINE",
"186 929 LINE"
);
}
);
width = 1368;
}
);
unicode = 0023;
},
{
glyphname = quotesingle;
layers = (
{
layerId = "E225F0DD-7274-4E95-954B-383A64365C0A";
paths = (
{
closed = 1;
nodes = (
"222 1361 LINE",
"246 1456 LINE",
"365 1456 LINE",
"341 1361 LINE",
"264 1113 LINE",
"175 1113 LINE"
);
}
);
width = 313;
}
);
leftKerningGroup = minute;
rightKerningGroup = minute;
unicode = 0027;
},
{
glyphname = quotedbl;
layers = (
{
layerId = "E225F0DD-7274-4E95-954B-383A64365C0A";
paths = (
{
closed = 1;
nodes = (
"202 1361 LINE",
"226 1456 LINE",
"333 1456 LINE",
"309 1361 LINE",
"237 1113 LINE",
"148 1113 LINE"
);
},
{
closed = 1;
nodes = (
"503 1361 LINE",
"527 1456 LINE",
"634 1456 LINE",
"610 1361 LINE",
"539 1113 LINE",
"449 1113 LINE"
);
}
);
width = 602;
}
);
leftKerningGroup = minute;
rightKerningGroup = minute;
unicode = 0022;
},
{
glyphname = quoteleft;
layers = (
{
layerId = "E225F0DD-7274-4E95-954B-383A64365C0A";
paths = (
{
closed = 1;
nodes = (
"155 1156 LINE SMOOTH",
"155 1246 OFFCURVE",
"239 1443 OFFCURVE",
"303 1495 QCURVE",
"378 1457 LINE",
"330 1390 OFFCURVE",
"279 1240 OFFCURVE",
"279 1159 QCURVE SMOOTH",
"279 1078 LINE",
"155 1078 LINE"
);
}
);
width = 463;
}
);
leftKerningGroup = minute;
rightKerningGroup = minute;
unicode = 2018;
},
{
glyphname = quoteright;
layers = (
{
layerId = "E225F0DD-7274-4E95-954B-383A64365C0A";
paths = (
{
closed = 1;
nodes = (
"308 1378 LINE SMOOTH",
"308 1288 OFFCURVE",
"224 1091 OFFCURVE",
"160 1039 QCURVE",
"85 1077 LINE",
"133 1144 OFFCURVE",
"184 1294 OFFCURVE",
"184 1375 QCURVE SMOOTH",
"184 1456 LINE",
"308 1456 LINE"
);
}
);
width = 463;
}
);
leftKerningGroup = minute;
rightKerningGroup = minute;
unicode = 2019;
},
{
glyphname = quotedblleft;
layers = (
{
layerId = "E225F0DD-7274-4E95-954B-383A64365C0A";
paths = (
{
closed = 1;
nodes = (
"155 1156 LINE SMOOTH",
"155 1246 OFFCURVE",
"239 1443 OFFCURVE",
"303 1495 QCURVE",
"378 1457 LINE",
"330 1390 OFFCURVE",
"279 1240 OFFCURVE",
"279 1159 QCURVE SMOOTH",
"279 1078 LINE",
"155 1078 LINE"
);
},
{
closed = 1;
nodes = (
"505 1156 LINE SMOOTH",
"505 1246 OFFCURVE",
"589 1443 OFFCURVE",
"653 1495 QCURVE",
"728 1457 LINE",
"680 1390 OFFCURVE",
"629 1240 OFFCURVE",
"629 1159 QCURVE SMOOTH",
"629 1078 LINE",
"505 1078 LINE"
);
}
);
width = 813;
}
);
leftKerningGroup = minute;
rightKerningGroup = minute;
unicode = 201C;
},
{
glyphname = quotedblright;
layers = (
{
layerId = "E225F0DD-7274-4E95-954B-383A64365C0A";
paths = (
{
closed = 1;
nodes = (
"308 1380 LINE SMOOTH",
"308 1290 OFFCURVE",
"224 1093 OFFCURVE",
"160 1041 QCURVE",
"85 1079 LINE",
"133 1146 OFFCURVE",
"184 1296 OFFCURVE",
"184 1377 QCURVE SMOOTH",
"184 1458 LINE",
"308 1458 LINE"
);
},
{
closed = 1;
nodes = (
"658 1380 LINE SMOOTH",
"658 1290 OFFCURVE",
"574 1093 OFFCURVE",
"510 1041 QCURVE",
"435 1079 LINE",
"483 1146 OFFCURVE",
"534 1296 OFFCURVE",
"534 1377 QCURVE SMOOTH",
"534 1458 LINE",
"658 1458 LINE"
);
}
);
width = 813;
}
);
leftKerningGroup = minute;
rightKerningGroup = minute;
unicode = 201D;
},
{
glyphname = quotesinglbase;
layers = (
{
layerId = "E225F0DD-7274-4E95-954B-383A64365C0A";
paths = (
{
closed = 1;
nodes = (
"308 142 LINE SMOOTH",
"308 52 OFFCURVE",
"224 -145 OFFCURVE",
"160 -197 QCURVE",
"85 -159 LINE",
"133 -92 OFFCURVE",
"184 58 OFFCURVE",
"184 139 QCURVE SMOOTH",
"184 220 LINE",
"308 220 LINE"
);
}
);
width = 463;
}
);
leftKerningGroup = comma;
rightKerningGroup = comma;
unicode = 201A;
},
{
glyphname = quotedblbase;
layers = (
{
layerId = "E225F0DD-7274-4E95-954B-383A64365C0A";
paths = (
{
closed = 1;
nodes = (
"308 142 LINE SMOOTH",
"308 52 OFFCURVE",
"224 -145 OFFCURVE",
"160 -197 QCURVE",
"85 -159 LINE",
"133 -92 OFFCURVE",
"184 58 OFFCURVE",
"184 139 QCURVE SMOOTH",
"184 220 LINE",
"308 220 LINE"
);
},
{
closed = 1;
nodes = (
"658 142 LINE SMOOTH",
"658 52 OFFCURVE",
"574 -145 OFFCURVE",
"510 -197 QCURVE",
"435 -159 LINE",
"483 -92 OFFCURVE",
"534 58 OFFCURVE",
"534 139 QCURVE SMOOTH",
"534 220 LINE",
"658 220 LINE"
);
}
);
width = 813;
}
);
leftKerningGroup = comma;
rightKerningGroup = comma;
unicode = 201E;
},
{
glyphname = guilsinglleft;
layers = (
{
guideLines = (
{
position = "{0, 901}";
},
{
position = "{0, 555}";
}
);
layerId = "E225F0DD-7274-4E95-954B-383A64365C0A";
paths = (
{
closed = 1;
nodes = (
"108 581 LINE",
"403 949 LINE",
"565 949 LINE",
"307 551 LINE",
"565 153 LINE",
"403 153 LINE",
"108 522 LINE"
);
}
);
width = 652;
}
);
leftKerningGroup = guillemotleft;
rightKerningGroup = guillemotleft;
unicode = 2039;
userData = {
com.typemytype.robofont.guideline.magnetic.Amp5Ormvx4 = 5;
com.typemytype.robofont.guideline.magnetic.JDX5vz3jKp = 5;
};
},
{
glyphname = guilsinglright;
layers = (
{
guideLines = (
{
position = "{0, 901}";
},
{
position = "{0, 555}";
}
);
layerId = "E225F0DD-7274-4E95-954B-383A64365C0A";
paths = (
{
closed = 1;
nodes = (
"345 551 LINE",
"87 949 LINE",
"249 949 LINE",
"544 581 LINE",
"544 522 LINE",
"249 153 LINE",
"87 153 LINE"
);
}
);
width = 652;
}
);
leftKerningGroup = guillemotright;
rightKerningGroup = guillemotright;
unicode = 203A;
userData = {
com.typemytype.robofont.guideline.magnetic.Amp5Ormvx4 = 5;
com.typemytype.robofont.guideline.magnetic.JDX5vz3jKp = 5;
};
},
{
glyphname = guillemotleft;
layers = (
{
guideLines = (
{
position = "{0, 901}";
},
{
position = "{0, 555}";
}
);
layerId = "E225F0DD-7274-4E95-954B-383A64365C0A";
paths = (
{
closed = 1;
nodes = (
"108 581 LINE",
"403 949 LINE",
"565 949 LINE",
"307 551 LINE",
"565 153 LINE",
"403 153 LINE",
"108 522 LINE"
);
},
{
closed = 1;
nodes = (
"548 581 LINE",
"843 949 LINE",
"1005 949 LINE",
"747 551 LINE",
"1005 153 LINE",
"843 153 LINE",
"548 522 LINE"
);
}
);
width = 1092;
}
);
leftKerningGroup = guillemotleft;
rightKerningGroup = guillemotleft;
unicode = 00AB;
userData = {
com.typemytype.robofont.guideline.magnetic.MVJpdoVRVd = 5;
com.typemytype.robofont.guideline.magnetic.ZftBQarVKw = 5;
};
},
{
glyphname = guillemotright;
layers = (
{
guideLines = (
{
position = "{0, 98}";
},
{
position = "{0, 443}";
}
);
layerId = "E225F0DD-7274-4E95-954B-383A64365C0A";
paths = (
{
closed = 1;
nodes = (
"345 551 LINE",
"87 949 LINE",
"249 949 LINE",
"544 581 LINE",
"544 522 LINE",
"249 153 LINE",
"87 153 LINE"
);
},
{
closed = 1;
nodes = (
"785 551 LINE",
"527 949 LINE",
"689 949 LINE",
"984 581 LINE",
"984 522 LINE",
"689 153 LINE",
"527 153 LINE"
);
}
);
width = 1092;
}
);
leftKerningGroup = guillemotright;
rightKerningGroup = guillemotright;
unicode = 00BB;
userData = {
com.typemytype.robofont.guideline.magnetic.G9bQni2n1K = 5;
com.typemytype.robofont.guideline.magnetic.MTEldNnfdj = 5;
};
},
{
glyphname = asterisk;
layers = (
{
layerId = "E225F0DD-7274-4E95-954B-383A64365C0A";
paths = (
{
closed = 1;
nodes = (
"176 1208 LINE",
"521 1065 LINE",
"582 1476 LINE",
"682 1476 LINE",
"594 1065 LINE",
"1003 1208 LINE",
"1002 1109 LINE",
"613 1000 LINE",
"794 669 LINE",
"706 621 LINE",
"541 950 LINE",
"256 621 LINE",
"185 669 LINE",
"472 1000 LINE",
"115 1109 LINE"
);
}
);
width = 1000;
}
);
unicode = 002A;
},
{
glyphname = dagger;
layers = (
{
layerId = "E225F0DD-7274-4E95-954B-383A64365C0A";
paths = (
{
closed = 1;
nodes = (
"402 8 LINE",
"423 748 LINE",
"423 852 LINE",
"72 852 LINE",
"72 1025 LINE",
"419 1025 LINE",
"406 1508 LINE",
"597 1508 LINE",
"584 1025 LINE",
"931 1025 LINE",
"931 852 LINE",
"580 852 LINE",
"580 748 LINE",
"601 8 LINE",
"597 -274 LINE",
"524 -415 OFFCURVE",
"480 -416 OFFCURVE",
"406 -274 QCURVE"
);
}
);
width = 1008;
}
);
unicode = 2020;
},
{
glyphname = daggerdbl;
layers = (
{
layerId = "E225F0DD-7274-4E95-954B-383A64365C0A";
paths = (
{
closed = 1;
nodes = (
"77 204 LINE",
"428 204 LINE",
"408 534 LINE",
"423 855 LINE",
"77 855 LINE",
"77 1022 LINE",
"409 1022 LINE",
"406 1508 LINE",
"597 1508 LINE",
"594 1022 LINE",
"926 1022 LINE",
"926 855 LINE",
"580 855 LINE",
"595 534 LINE",
"575 204 LINE",
"926 204 LINE",
"926 38 LINE",
"589 38 LINE",
"592 -452 LINE",
"411 -452 LINE",
"414 38 LINE",
"77 38 LINE"
);
}
);
width = 1008;
}
);
unicode = 2021;
},
{
glyphname = period;
layers = (
{
layerId = "E225F0DD-7274-4E95-954B-383A64365C0A";
paths = (
{
closed = 1;
nodes = (
"49 113 OFFCURVE",
"88 162 OFFCURVE",
"126 163 QCURVE SMOOTH",
"163 163 OFFCURVE",
"202 114 OFFCURVE",
"202 78 QCURVE SMOOTH",
"202 40 OFFCURVE",
"163 -9 OFFCURVE",
"125 -10 QCURVE SMOOTH",
"88 -10 OFFCURVE",
"48 40 OFFCURVE",
"48 76 QCURVE SMOOTH"
);
}
);
width = 471;
}
);
leftKerningGroup = comma;
rightKerningGroup = comma;
unicode = 002E;
},
{
glyphname = comma;
layers = (
{
layerId = "E225F0DD-7274-4E95-954B-383A64365C0A";
paths = (
{
closed = 1;
nodes = (
"20 -101 OFFCURVE",
"81 -11 OFFCURVE",
"97 50 QCURVE SMOOTH",
"123 156 LINE",
"225 156 LINE",
"199 50 LINE SMOOTH",
"179 -25 OFFCURVE",
"96 -138 OFFCURVE",
"39 -183 QCURVE",
"-20 -145 LINE"
);
}
);
width = 499;
}
);
leftKerningGroup = comma;
rightKerningGroup = comma;
unicode = 002C;
},
{
glyphname = colon;
layers = (
{
layerId = "E225F0DD-7274-4E95-954B-383A64365C0A";
paths = (
{
closed = 1;
nodes = (
"65 107 OFFCURVE",
"107 157 OFFCURVE",
"143 157 QCURVE SMOOTH",
"180 157 OFFCURVE",
"216 108 OFFCURVE",
"213 73 QCURVE SMOOTH",
"211 37 OFFCURVE",
"169 -13 OFFCURVE",
"132 -13 QCURVE SMOOTH",
"95 -13 OFFCURVE",
"60 35 OFFCURVE",
"63 71 QCURVE SMOOTH"
);
},
{
closed = 1;
nodes = (
"218 885 OFFCURVE",
"260 931 OFFCURVE",
"295 929 QCURVE SMOOTH",
"333 926 OFFCURVE",
"366 875 OFFCURVE",
"363 840 QCURVE SMOOTH",
"359 805 OFFCURVE",
"317 758 OFFCURVE",
"280 760 QCURVE SMOOTH",
"243 763 OFFCURVE",
"210 814 OFFCURVE",
"214 849 QCURVE SMOOTH"
);
}
);
width = 498;
}
);
leftKerningGroup = colon;
rightKerningGroup = colon;
unicode = 003A;
},
{
glyphname = semicolon;
layers = (
{
layerId = "E225F0DD-7274-4E95-954B-383A64365C0A";
paths = (
{
closed = 1;
nodes = (
"18 -101 OFFCURVE",
"80 -10 OFFCURVE",
"96 50 QCURVE SMOOTH",
"122 153 LINE",
"220 153 LINE",
"193 50 LINE SMOOTH",
"174 -25 OFFCURVE",
"93 -138 OFFCURVE",
"37 -183 QCURVE",
"-22 -145 LINE"
);
},
{
closed = 1;
nodes = (
"216 881 OFFCURVE",
"258 929 OFFCURVE",
"294 929 QCURVE SMOOTH",
"332 928 OFFCURVE",
"366 879 OFFCURVE",
"364 844 QCURVE SMOOTH",
"361 809 OFFCURVE",
"319 760 OFFCURVE",
"281 760 QCURVE SMOOTH",
"244 761 OFFCURVE",
"210 810 OFFCURVE",
"213 845 QCURVE SMOOTH"
);
}
);
width = 498;
}
);
leftKerningGroup = colon;
rightKerningGroup = colon;
unicode = 003B;
},
{
glyphname = exclam;
layers = (
{
layerId = "E225F0DD-7274-4E95-954B-383A64365C0A";
paths = (
{
closed = 1;
nodes = (
"72 112 OFFCURVE",
"117 164 OFFCURVE",
"154 164 QCURVE SMOOTH",
"192 164 OFFCURVE",
"229 113 OFFCURVE",
"226 76 QCURVE SMOOTH",
"223 40 OFFCURVE",
"179 -12 OFFCURVE",
"141 -12 QCURVE SMOOTH",
"103 -12 OFFCURVE",
"67 39 OFFCURVE",
"70 76 QCURVE SMOOTH"
);
},
{
closed = 1;
nodes = (
"335 1456 LINE",
"441 1456 LINE",
"247 394 LINE",
"159 394 LINE"
);
}
);
width = 518;
}
);
unicode = 0021;
},
{
glyphname = exclamdown;
layers = (
{
layerId = "E225F0DD-7274-4E95-954B-383A64365C0A";
paths = (
{
closed = 1;
nodes = (
"434 1004 OFFCURVE",
"370 934 OFFCURVE",
"310 934 QCURVE SMOOTH",
"250 934 OFFCURVE",
"186 1004 OFFCURVE",
"186 1053 QCURVE SMOOTH",
"186 1102 OFFCURVE",
"250 1172 OFFCURVE",
"310 1172 QCURVE SMOOTH",
"370 1172 OFFCURVE",
"434 1102 OFFCURVE",
"434 1053 QCURVE SMOOTH"
);
},
{
closed = 1;
nodes = (
"407 -306 LINE",
"213 -306 LINE",
"228 740 LINE",
"392 740 LINE"
);
}
);
width = 620;
}
);
unicode = 00A1;
},
{
glyphname = question;
layers = (
{
layerId = "E225F0DD-7274-4E95-954B-383A64365C0A";
paths = (
{
closed = 1;
nodes = (
"159 112 OFFCURVE",
"204 164 OFFCURVE",
"242 164 QCURVE SMOOTH",
"280 164 OFFCURVE",
"316 113 OFFCURVE",
"313 76 QCURVE SMOOTH",
"310 40 OFFCURVE",
"266 -12 OFFCURVE",
"228 -12 QCURVE SMOOTH",
"191 -12 OFFCURVE",
"154 39 OFFCURVE",
"157 76 QCURVE SMOOTH"
);
},
{
closed = 1;
nodes = (
"142 1108 LINE SMOOTH",
"173 1279 OFFCURVE",
"372 1476 OFFCURVE",
"514 1476 QCURVE SMOOTH",
"656 1476 OFFCURVE",
"781 1286 OFFCURVE",
"751 1139 QCURVE SMOOTH",
"727 996 OFFCURVE",
"615 830 OFFCURVE",
"522 733 QCURVE SMOOTH",
"429 640 OFFCURVE",
"356 500 OFFCURVE",
"343 425 QCURVE SMOOTH",
"341 415 LINE",
"234 415 LINE",
"236 425 LINE SMOOTH",
"258 539 OFFCURVE",
"358 707 OFFCURVE",
"453 798 QCURVE SMOOTH",
"542 885 OFFCURVE",
"628 1026 OFFCURVE",
"645 1139 QCURVE SMOOTH",
"663 1247 OFFCURVE",
"585 1383 OFFCURVE",
"487 1383 QCURVE SMOOTH",
"387 1383 OFFCURVE",
"265 1239 OFFCURVE",
"247 1108 QCURVE SMOOTH",
"244 1086 LINE",
"138 1086 LINE"
);
}
);
width = 794;
}
);
unicode = 003F;
},
{
glyphname = questiondown;
layers = (
{
guideLines = (
{
position = "{0, -181}";
},
{
position = "{0, 921}";
}
);
layerId = "E225F0DD-7274-4E95-954B-383A64365C0A";
paths = (
{
closed = 1;
nodes = (
"648 1002 OFFCURVE",
"584 932 OFFCURVE",
"524 932 QCURVE SMOOTH",
"464 932 OFFCURVE",
"400 1002 OFFCURVE",
"400 1051 QCURVE SMOOTH",
"400 1100 OFFCURVE",
"464 1170 OFFCURVE",
"524 1170 QCURVE SMOOTH",
"584 1170 OFFCURVE",
"648 1100 OFFCURVE",
"648 1051 QCURVE SMOOTH"
);
},
{
closed = 1;
nodes = (
"908 33 LINE SMOOTH",
"908 -132 OFFCURVE",
"688 -328 OFFCURVE",
"498 -328 QCURVE SMOOTH",
"308 -328 OFFCURVE",
"94 -122 OFFCURVE",
"94 48 QCURVE SMOOTH",
"94 182 OFFCURVE",
"242 390 OFFCURVE",
"314 454 QCURVE SMOOTH",
"399 531 OFFCURVE",
"440 658 OFFCURVE",
"440 728 QCURVE SMOOTH",
"440 738 LINE",
"626 738 LINE",
"626 728 LINE SMOOTH",
"626 603 OFFCURVE",
"562 459 OFFCURVE",
"466 365 QCURVE SMOOTH",
"384 284 OFFCURVE",
"280 148 OFFCURVE",
"280 48 QCURVE SMOOTH",
"280 -52 OFFCURVE",
"388 -166 OFFCURVE",
"498 -166 QCURVE SMOOTH",
"608 -166 OFFCURVE",
"723 -62 OFFCURVE",
"723 33 QCURVE SMOOTH",
"723 53 LINE",
"908 53 LINE"
);
}
);
width = 968;
}
);
unicode = 00BF;
userData = {
com.typemytype.robofont.guideline.magnetic.5ZPZZL8Rim = 5;
com.typemytype.robofont.guideline.magnetic.apukwP5ffL = 5;
};
},
{
glyphname = slash;
layers = (
{
layerId = "E225F0DD-7274-4E95-954B-383A64365C0A";
paths = (
{
closed = 1;
nodes = (
"575 1456 LINE",
"677 1456 LINE",
"-163 -125 LINE",
"-264 -125 LINE"
);
}
);
width = 458;
}
);
unicode = 002F;
},
{
glyphname = backslash;
layers = (
{
layerId = "E225F0DD-7274-4E95-954B-383A64365C0A";
paths = (
{
closed = 1;
nodes = (
"138 1456 LINE",
"420 -125 LINE",
"323 -125 LINE",
"41 1456 LINE"
);
}
);
width = 458;
}
);
unicode = 005C;
},
{
glyphname = fraction;
layers = (
{
guideLines = (
{
position = "{0, 901}";
},
{
position = "{0, 555}";
}
);
layerId = "E225F0DD-7274-4E95-954B-383A64365C0A";
paths = (
{
closed = 1;
nodes = (
"-367 -51 LINE",
"-431 4 LINE",
"701 1498 LINE",
"771 1455 LINE"
);
}
);
width = 342;
}
);
unicode = 2044;
userData = {
com.typemytype.robofont.guideline.magnetic.0lx51aIE0d = 5;
com.typemytype.robofont.guideline.magnetic.tcCoNUQTdD = 5;
};
},
{
glyphname = bar;
layers = (
{
layerId = "E225F0DD-7274-4E95-954B-383A64365C0A";
paths = (
{
closed = 1;
nodes = (
"341 1456 LINE",
"441 1456 LINE",
"97 -416 LINE",
"-4 -416 LINE"
);
}
);
width = 496;
}
);
unicode = 007C;
},
{
glyphname = brokenbar;
layers = (
{
guideLines = (
{
position = "{0, 901}";
},
{
position = "{0, 555}";
}
);
layerId = "E225F0DD-7274-4E95-954B-383A64365C0A";
paths = (
{
closed = 1;
nodes = (
"205 -416 LINE",
"205 359 LINE",
"387 359 LINE",
"387 -416 LINE"
);
},
{
closed = 1;
nodes = (
"387 761 LINE",
"205 761 LINE",
"205 1536 LINE",
"387 1536 LINE"
);
}
);
width = 592;
}
);
unicode = 00A6;
userData = {
com.typemytype.robofont.guideline.magnetic.Z0RZpP7MTi = 5;
com.typemytype.robofont.guideline.magnetic.jmguX8NWKI = 5;
};
},
{
glyphname = at;
layers = (
{
layerId = "E225F0DD-7274-4E95-954B-383A64365C0A";
paths = (
{
closed = 1;
nodes = (
"592 680 OFFCURVE",
"893 1052 OFFCURVE",
"1060 1052 QCURVE SMOOTH",
"1124 1052 OFFCURVE",
"1223 979 OFFCURVE",
"1245 946 QCURVE",
"1286 946 LINE",
"1079 350 LINE SMOOTH",
"1027 201 OFFCURVE",
"1132 87 OFFCURVE",
"1231 87 QCURVE SMOOTH",
"1370 87 OFFCURVE",
"1591 398 OFFCURVE",
"1637 650 QCURVE SMOOTH",
"1694 965 OFFCURVE",
"1427 1396 OFFCURVE",
"1077 1396 QCURVE SMOOTH",
"774 1396 OFFCURVE",
"246 863 OFFCURVE",
"165 460 QCURVE SMOOTH",
"86 69 OFFCURVE",
"409 -360 OFFCURVE",
"685 -360 QCURVE SMOOTH",
"829 -360 OFFCURVE",
"999 -316 OFFCURVE",
"1056 -285 QCURVE",
"1060 -356 LINE",
"993 -398 OFFCURVE",
"801 -446 OFFCURVE",
"671 -446 QCURVE SMOOTH",
"351 -446 OFFCURVE",
"-14 40 OFFCURVE",
"64 460 QCURVE SMOOTH",
"148 913 OFFCURVE",
"731 1486 OFFCURVE",
"1104 1486 QCURVE SMOOTH",
"1461 1486 OFFCURVE",
"1797 1000 OFFCURVE",
"1736 650 QCURVE SMOOTH",
"1685 360 OFFCURVE",
"1375 0 OFFCURVE",
"1198 0 QCURVE SMOOTH",
"1096 0 OFFCURVE",
"986 101 OFFCURVE",
"970 189 QCURVE",
"924 96 OFFCURVE",
"779 0 OFFCURVE",
"691 0 QCURVE SMOOTH",
"600 0 OFFCURVE",
"511 220 OFFCURVE",
"543 400 QCURVE SMOOTH"
);
},
{
closed = 1;
nodes = (
"616 247 OFFCURVE",
"674 88 OFFCURVE",
"744 88 QCURVE SMOOTH",
"819 88 OFFCURVE",
"943 227 OFFCURVE",
"998 396 QCURVE SMOOTH",
"1179 904 LINE",
"1156 929 OFFCURVE",
"1083 963 OFFCURVE",
"1043 963 QCURVE SMOOTH",
"906 963 OFFCURVE",
"676 642 OFFCURVE",
"637 400 QCURVE SMOOTH"
);
}
);
width = 1860;
}
);
unicode = 0040;
},
{
glyphname = ampersand;
layers = (
{
layerId = "E225F0DD-7274-4E95-954B-383A64365C0A";
paths = (
{
closed = 1;
nodes = (
"45 525 OFFCURVE",
"226 725 OFFCURVE",
"381 822 QCURVE SMOOTH",
"514 905 LINE SMOOTH",
"594 955 OFFCURVE",
"687 1077 OFFCURVE",
"699 1172 QCURVE SMOOTH",
"712 1275 OFFCURVE",
"649 1390 OFFCURVE",
"572 1390 QCURVE SMOOTH",
"498 1390 OFFCURVE",
"393 1266 OFFCURVE",
"378 1165 QCURVE SMOOTH",
"365 1077 OFFCURVE",
"392 938 OFFCURVE",
"456 813 QCURVE SMOOTH",
"875 0 LINE",
"764 0 LINE",
"366 763 LINE SMOOTH",
"298 893 OFFCURVE",
"258 1061 OFFCURVE",
"278 1179 QCURVE SMOOTH",
"300 1304 OFFCURVE",
"481 1486 OFFCURVE",
"599 1486 QCURVE SMOOTH",
"717 1486 OFFCURVE",
"823 1307 OFFCURVE",
"804 1173 QCURVE SMOOTH",
"787 1050 OFFCURVE",
"658 904 OFFCURVE",
"557 841 QCURVE SMOOTH",
"419 755 LINE SMOOTH",
"279 667 OFFCURVE",
"141 491 OFFCURVE",
"122 382 QCURVE SMOOTH",
"103 248 OFFCURVE",
"221 76 OFFCURVE",
"331 76 QCURVE SMOOTH",
"512 76 OFFCURVE",
"799 393 OFFCURVE",
"839 674 QCURVE",
"940 674 LINE",
"896 368 OFFCURVE",
"547 -20 OFFCURVE",
"304 -20 QCURVE SMOOTH",
"141 -20 OFFCURVE",
"-14 198 OFFCURVE",
"17 380 QCURVE SMOOTH"
);
}
);
width = 1031;
}
);
unicode = 0026;
},
{
glyphname = section;
layers = (
{
guideLines = (
{
position = "{0, 1658}";
},
{
position = "{0, 578}";
}
);
layerId = "E225F0DD-7274-4E95-954B-383A64365C0A";
paths = (
{
closed = 1;
nodes = (
"691 252 LINE",
"801 252 OFFCURVE",
"954 376 OFFCURVE",
"954 463 QCURVE",
"954 556 OFFCURVE",
"787 672 OFFCURVE",
"606 734 QCURVE SMOOTH",
"413 794 OFFCURVE",
"196 949 OFFCURVE",
"196 1129 QCURVE SMOOTH",
"196 1305 OFFCURVE",
"421 1490 OFFCURVE",
"623 1491 QCURVE SMOOTH",
"816 1492 OFFCURVE",
"1040 1294 OFFCURVE",
"1039 1100 QCURVE",
"874 1100 LINE",
"875 1200 OFFCURVE",
"744 1337 OFFCURVE",
"623 1337 QCURVE SMOOTH",
"483 1337 OFFCURVE",
"361 1239 OFFCURVE",
"361 1140 QCURVE SMOOTH",
"361 1049 OFFCURVE",
"484 961 OFFCURVE",
"684 897 QCURVE SMOOTH",
"868 839 OFFCURVE",
"1135 652 OFFCURVE",
"1135 478 QCURVE SMOOTH",
"1135 315 OFFCURVE",
"870 133 OFFCURVE",
"691 133 QCURVE"
);
},
{
closed = 1;
nodes = (
"536 756 LINE",
"425 756 OFFCURVE",
"301 649 OFFCURVE",
"301 567 QCURVE SMOOTH",
"301 487 OFFCURVE",
"447 387 OFFCURVE",
"636 317 QCURVE SMOOTH",
"812 252 OFFCURVE",
"1048 66 OFFCURVE",
"1048 -113 QCURVE SMOOTH",
"1048 -298 OFFCURVE",
"794 -509 OFFCURVE",
"599 -509 QCURVE SMOOTH",
"404 -509 OFFCURVE",
"131 -303 OFFCURVE",
"131 -72 QCURVE",
"295 -70 LINE",
"295 -230 OFFCURVE",
"493 -355 OFFCURVE",
"599 -355 QCURVE SMOOTH",
"716 -355 OFFCURVE",
"884 -244 OFFCURVE",
"884 -136 QCURVE SMOOTH",
"884 -35 OFFCURVE",
"742 94 OFFCURVE",
"540 161 QCURVE SMOOTH",
"355 222 OFFCURVE",
"119 420 OFFCURVE",
"119 577 QCURVE SMOOTH",
"119 727 OFFCURVE",
"375 894 OFFCURVE",
"537 894 QCURVE"
);
}
);
width = 1256;
}
);
unicode = 00A7;
userData = {
com.typemytype.robofont.guideline.magnetic.9Hxjf2sdFw = 5;
com.typemytype.robofont.guideline.magnetic.QzZ5gIiCyn = 5;
};
},
{
glyphname = paragraph;
layers = (
{
guideLines = (
{
position = "{0, 901}";
},
{
position = "{0, 555}";
}
);
layerId = "E225F0DD-7274-4E95-954B-383A64365C0A";
paths = (
{
closed = 1;
nodes = (
"547 -146 LINE",
"547 696 LINE",
"460 696 LINE SMOOTH",
"265 696 OFFCURVE",
"56 912 OFFCURVE",
"56 1076 QCURVE SMOOTH",
"56 1238 OFFCURVE",
"265 1456 OFFCURVE",
"460 1456 QCURVE SMOOTH",
"733 1456 LINE",
"733 -146 LINE"
);
},
{
closed = 1;
nodes = (
"1061 1459 LINE",
"1061 -146 LINE",
"875 -146 LINE",
"875 1459 LINE"
);
}
);
width = 1261;
}
);
unicode = 00B6;
userData = {
com.typemytype.robofont.guideline.magnetic.27539Lsr1A = 5;
com.typemytype.robofont.guideline.magnetic.e34wUdCmXR = 5;
};
},
{
glyphname = numero;
layers = (
{
layerId = "E225F0DD-7274-4E95-954B-383A64365C0A";
paths = (
{
closed = 1;
nodes = (
"170 1456 LINE",
"365 1456 LINE",
"967 416 LINE SMOOTH",
"985 386 OFFCURVE",
"1021 326 OFFCURVE",
"1033 301 QCURVE",
"1043 301 LINE",
"1039 331 OFFCURVE",
"1037 406 OFFCURVE",
"1037 436 QCURVE SMOOTH",
"1037 1456 LINE",
"1214 1456 LINE",
"1214 0 LINE",
"1017 0 LINE",
"407 1028 LINE SMOOTH",
"388 1059 OFFCURVE",
"362 1118 OFFCURVE",
"355 1145 QCURVE",
"345 1145 LINE",
"349 1115 OFFCURVE",
"350 1040 OFFCURVE",
"350 1010 QCURVE SMOOTH",
"350 0 LINE",
"170 0 LINE"
);
},
{
closed = 1;
nodes = (
"1353 1019 LINE SMOOTH",
"1353 1219 OFFCURVE",
"1593 1473 OFFCURVE",
"1789 1473 QCURVE SMOOTH",
"1985 1473 OFFCURVE",
"2226 1219 OFFCURVE",
"2226 1019 QCURVE SMOOTH",
"2226 992 LINE SMOOTH",
"2226 792 OFFCURVE",
"1997 539 OFFCURVE",
"1789 539 QCURVE SMOOTH",
"1581 539 OFFCURVE",
"1353 792 OFFCURVE",
"1353 992 QCURVE SMOOTH"
);
},
{
closed = 1;
nodes = (
"1551 991 LINE SMOOTH",
"1551 864 OFFCURVE",
"1668 699 OFFCURVE",
"1789 699 QCURVE SMOOTH",
"1910 699 OFFCURVE",
"2028 864 OFFCURVE",
"2028 991 QCURVE SMOOTH",
"2028 1016 LINE SMOOTH",
"2028 1143 OFFCURVE",
"1909 1308 OFFCURVE",
"1789 1308 QCURVE SMOOTH",
"1669 1308 OFFCURVE",
"1551 1143 OFFCURVE",
"1551 1016 QCURVE SMOOTH"
);
},
{
closed = 1;
nodes = (
"1393 414 LINE",
"2186 414 LINE",
"2186 232 LINE",
"1393 232 LINE"
);
}
);
width = 2331;
}
);
unicode = 2116;
},
{
glyphname = periodcentered;
layers = (
{
layerId = "E225F0DD-7274-4E95-954B-383A64365C0A";
paths = (
{
closed = 1;
nodes = (
"176 798 OFFCURVE",
"240 868 OFFCURVE",
"300 868 QCURVE SMOOTH",
"360 868 OFFCURVE",
"424 798 OFFCURVE",
"424 749 QCURVE SMOOTH",
"424 700 OFFCURVE",
"360 630 OFFCURVE",
"300 630 QCURVE SMOOTH",
"240 630 OFFCURVE",
"176 700 OFFCURVE",
"176 749 QCURVE SMOOTH"
);
}
);
width = 600;
}
);
unicode = 00B7;
},
{
glyphname = bullet;
layers = (
{
layerId = "E225F0DD-7274-4E95-954B-383A64365C0A";
paths = (
{
closed = 1;
nodes = (
"104 889 OFFCURVE",
"266 1061 OFFCURVE",
"392 1061 QCURVE SMOOTH",
"518 1061 OFFCURVE",
"680 889 OFFCURVE",
"680 773 QCURVE SMOOTH",
"680 659 OFFCURVE",
"518 487 OFFCURVE",
"392 487 QCURVE SMOOTH",
"266 487 OFFCURVE",
"104 659 OFFCURVE",
"104 773 QCURVE SMOOTH"
);
}
);
width = 784;
}
);
unicode = 2022;
},
{
glyphname = minute;
layers = (
{
layerId = "E225F0DD-7274-4E95-954B-383A64365C0A";
paths = (
{
closed = 1;
nodes = (
"395 1559 LINE",
"588 1452 LINE",
"231 884 LINE",
"100 964 LINE"
);
}
);
width = 654;
}
);
leftKerningGroup = minute;
rightKerningGroup = minute;
unicode = 2032;
},
{
glyphname = second;
layers = (
{
layerId = "E225F0DD-7274-4E95-954B-383A64365C0A";
paths = (
{
closed = 1;
nodes = (
"395 1559 LINE",
"588 1452 LINE",
"231 884 LINE",
"100 964 LINE"
);
},
{
closed = 1;
nodes = (
"795 1559 LINE",
"988 1452 LINE",
"631 884 LINE",
"500 964 LINE"
);
}
);
width = 1054;
}
);
leftKerningGroup = minute;
rightKerningGroup = minute;
unicode = 2033;
},
{
glyphname = plus;
layers = (
{
layerId = "E225F0DD-7274-4E95-954B-383A64365C0A";
paths = (
{
closed = 1;
nodes = (
"157 722 LINE",
"992 722 LINE",
"963 626 LINE",
"128 626 LINE"
);
},
{
closed = 1;
nodes = (
"595 1140 LINE",
"697 1140 LINE",
"526 208 LINE",
"423 208 LINE"
);
}
);
width = 1139;
}
);
unicode = 002B;
},
{
glyphname = minus;
layers = (
{
layerId = "E225F0DD-7274-4E95-954B-383A64365C0A";
paths = (
{
closed = 1;
nodes = (
"57 732 LINE",
"967 732 LINE",
"967 618 LINE",
"57 618 LINE"
);
}
);
width = 1024;
}
);
unicode = 2212;
},
{
glyphname = plusminus;
layers = (
{
layerId = "E225F0DD-7274-4E95-954B-383A64365C0A";
paths = (
{
closed = 1;
nodes = (
"57 775 LINE",
"967 775 LINE",
"967 611 LINE",
"57 611 LINE"
);
},
{
closed = 1;
nodes = (
"422 1160 LINE",
"602 1160 LINE",
"602 248 LINE",
"422 248 LINE"
);
},
{
closed = 1;
nodes = (
"57 165 LINE",
"967 165 LINE",
"967 1 LINE",
"57 1 LINE"
);
}
);
width = 1024;
}
);
unicode = 00B1;
},
{
glyphname = divide;
layers = (
{
layerId = "E225F0DD-7274-4E95-954B-383A64365C0A";
paths = (
{
closed = 1;
nodes = (
"386 1118 OFFCURVE",
"449 1188 OFFCURVE",
"511 1188 QCURVE SMOOTH",
"572 1188 OFFCURVE",
"637 1118 OFFCURVE",
"637 1065 QCURVE SMOOTH",
"637 1014 OFFCURVE",
"572 945 OFFCURVE",
"511 945 QCURVE SMOOTH",
"449 945 OFFCURVE",
"386 1014 OFFCURVE",
"386 1065 QCURVE SMOOTH"
);
},
{
closed = 1;
nodes = (
"386 340 OFFCURVE",
"449 411 OFFCURVE",
"511 411 QCURVE SMOOTH",
"572 411 OFFCURVE",
"637 340 OFFCURVE",
"637 288 QCURVE SMOOTH",
"637 237 OFFCURVE",
"572 167 OFFCURVE",
"511 167 QCURVE SMOOTH",
"449 167 OFFCURVE",
"386 237 OFFCURVE",
"386 288 QCURVE SMOOTH"
);
},
{
closed = 1;
nodes = (
"57 768 LINE",
"967 768 LINE",
"967 588 LINE",
"57 588 LINE"
);
}
);
width = 1024;
}
);
unicode = 00F7;
},
{
glyphname = multiply;
layers = (
{
layerId = "E225F0DD-7274-4E95-954B-383A64365C0A";
paths = (
{
closed = 1;
nodes = (
"82 349 LINE",
"820 1104 LINE",
"928 991 LINE",
"190 237 LINE"
);
},
{
closed = 1;
nodes = (
"85 980 LINE",
"204 1104 LINE",
"931 360 LINE",
"812 237 LINE"
);
}
);
width = 1024;
}
);
unicode = 00D7;
},
{
glyphname = equal;
layers = (
{
layerId = "E225F0DD-7274-4E95-954B-383A64365C0A";
paths = (
{
closed = 1;
nodes = (
"165 518 LINE",
"880 518 LINE",
"850 435 LINE",
"135 435 LINE"
);
},
{
closed = 1;
nodes = (
"235 913 LINE",
"950 913 LINE",
"920 830 LINE",
"205 830 LINE"
);
}
);
width = 1105;
}
);
unicode = 003D;
},
{
glyphname = less;
layers = (
{
layerId = "E225F0DD-7274-4E95-954B-383A64365C0A";
paths = (
{
closed = 1;
nodes = (
"140 632 LINE",
"165 716 LINE",
"1008 1102 LINE",
"974 991 LINE",
"273 669 LINE",
"885 333 LINE",
"849 246 LINE"
);
}
);
width = 1108;
}
);
unicode = 003C;
},
{
glyphname = greater;
layers = (
{
layerId = "E225F0DD-7274-4E95-954B-383A64365C0A";
paths = (
{
closed = 1;
nodes = (
"121 358 LINE",
"833 677 LINE",
"210 1016 LINE",
"240 1102 LINE",
"949 716 LINE",
"924 632 LINE",
"81 246 LINE"
);
}
);
width = 1109;
}
);
unicode = 003E;
},
{
glyphname = lessequal;
layers = (
{
layerId = "E225F0DD-7274-4E95-954B-383A64365C0A";
paths = (
{
closed = 1;
nodes = (
"95 602 LINE",
"95 746 LINE",
"913 1095 LINE",
"913 902 LINE",
"326 679 LINE",
"913 456 LINE",
"913 253 LINE"
);
},
{
closed = 1;
nodes = (
"52 170 LINE",
"962 170 LINE",
"962 1 LINE",
"52 1 LINE"
);
}
);
width = 1024;
}
);
unicode = 2264;
},
{
glyphname = greaterequal;
layers = (
{
layerId = "E225F0DD-7274-4E95-954B-383A64365C0A";
paths = (
{
closed = 1;
nodes = (
"111 456 LINE",
"698 679 LINE",
"111 902 LINE",
"111 1095 LINE",
"929 746 LINE",
"929 602 LINE",
"111 253 LINE"
);
},
{
closed = 1;
nodes = (
"62 1 LINE",
"62 170 LINE",
"972 170 LINE",
"972 1 LINE"
);
}
);
width = 1024;
}
);
unicode = 2265;
},
{
glyphname = approxequal;
layers = (
{
layerId = "E225F0DD-7274-4E95-954B-383A64365C0A";
paths = (
{
closed = 1;
nodes = (
"46 901 LINE",
"93 952 OFFCURVE",
"225 1010 OFFCURVE",
"290 1011 QCURVE SMOOTH",
"369 1012 OFFCURVE",
"461 969 OFFCURVE",
"524 938 QCURVE SMOOTH",
"583 908 OFFCURVE",
"668 868 OFFCURVE",
"742 868 QCURVE SMOOTH",
"807 868 OFFCURVE",
"932 936 OFFCURVE",
"979 996 QCURVE",
"979 799 LINE",
"932 748 OFFCURVE",
"808 690 OFFCURVE",
"743 690 QCURVE SMOOTH",
"669 690 OFFCURVE",
"584 729 OFFCURVE",
"525 759 QCURVE SMOOTH",
"462 790 OFFCURVE",
"369 832 OFFCURVE",
"290 832 QCURVE SMOOTH",
"225 832 OFFCURVE",
"93 764 OFFCURVE",
"46 704 QCURVE"
);
},
{
closed = 1;
nodes = (
"45 484 LINE",
"92 535 OFFCURVE",
"224 592 OFFCURVE",
"289 593 QCURVE SMOOTH",
"368 594 OFFCURVE",
"460 551 OFFCURVE",
"523 520 QCURVE SMOOTH",
"582 490 OFFCURVE",
"667 451 OFFCURVE",
"741 451 QCURVE SMOOTH",
"806 451 OFFCURVE",
"931 519 OFFCURVE",
"978 579 QCURVE",
"978 381 LINE",
"931 330 OFFCURVE",
"807 272 OFFCURVE",
"742 272 QCURVE SMOOTH",
"668 272 OFFCURVE",
"583 311 OFFCURVE",
"524 341 QCURVE SMOOTH",
"461 372 OFFCURVE",
"368 414 OFFCURVE",
"289 414 QCURVE SMOOTH",
"224 414 OFFCURVE",
"92 347 OFFCURVE",
"45 287 QCURVE"
);
}
);
width = 1024;
}
);
unicode = 2248;
},
{
glyphname = notequal;
layers = (
{
layerId = "E225F0DD-7274-4E95-954B-383A64365C0A";
paths = (
{
closed = 1;
nodes = (
"703 861 LINE",
"676 832 LINE",
"462 461 LINE",
"458 437 LINE",
"257 89 LINE",
"119 169 LINE",
"279 447 LINE",
"302 469 LINE",
"509 828 LINE",
"520 864 LINE",
"745 1261 LINE",
"883 1181 LINE"
);
},
{
closed = 1;
nodes = (
"57 550 LINE",
"967 550 LINE",
"967 381 LINE",
"57 381 LINE"
);
},
{
closed = 1;
nodes = (
"57 945 LINE",
"967 945 LINE",
"967 776 LINE",
"57 776 LINE"
);
}
);
width = 1024;
}
);
unicode = 2260;
},
{
glyphname = logicalnot;
layers = (
{
layerId = "E225F0DD-7274-4E95-954B-383A64365C0A";
paths = (
{
closed = 1;
nodes = (
"928 376 LINE",
"743 376 LINE",
"743 637 LINE",
"58 637 LINE",
"58 801 LINE",
"928 801 LINE"
);
}
);
width = 1024;
}
);
unicode = 00AC;
},
{
glyphname = commercialMinusSign;
layers = (
{
layerId = "E225F0DD-7274-4E95-954B-383A64365C0A";
paths = (
{
closed = 1;
nodes = (
"646 1501 LINE",
"814 1458 LINE",
"229 -45 LINE",
"61 -2 LINE"
);
},
{
closed = 1;
nodes = (
"505 213 OFFCURVE",
"596 310 OFFCURVE",
"667 310 QCURVE SMOOTH",
"738 310 OFFCURVE",
"829 213 OFFCURVE",
"829 148 QCURVE SMOOTH",
"829 84 OFFCURVE",
"738 -13 OFFCURVE",
"667 -13 QCURVE SMOOTH",
"596 -13 OFFCURVE",
"505 84 OFFCURVE",
"505 148 QCURVE SMOOTH"
);
},
{
closed = 1;
nodes = (
"60 1369 OFFCURVE",
"151 1466 OFFCURVE",
"222 1466 QCURVE SMOOTH",
"293 1466 OFFCURVE",
"384 1369 OFFCURVE",
"384 1304 QCURVE SMOOTH",
"384 1240 OFFCURVE",
"293 1143 OFFCURVE",
"222 1143 QCURVE SMOOTH",
"151 1143 OFFCURVE",
"60 1240 OFFCURVE",
"60 1304 QCURVE SMOOTH"
);
}
);
width = 889;
}
);
unicode = 2052;
},
{
glyphname = divisionslash;
layers = (
{
layerId = "E225F0DD-7274-4E95-954B-383A64365C0A";
paths = (
{
closed = 1;
nodes = (
"554 1555 LINE",
"695 1512 LINE",
"79 -161 LINE",
"-62 -118 LINE"
);
}
);
width = 656;
}
);
unicode = 2215;
},
{
glyphname = bulletoperator;
layers = (
{
layerId = "E225F0DD-7274-4E95-954B-383A64365C0A";
paths = (
{
closed = 1;
nodes = (
"368 732 OFFCURVE",
"449 818 OFFCURVE",
"512 818 QCURVE SMOOTH",
"575 818 OFFCURVE",
"656 732 OFFCURVE",
"656 674 QCURVE SMOOTH",
"656 617 OFFCURVE",
"575 531 OFFCURVE",
"512 531 QCURVE SMOOTH",
"449 531 OFFCURVE",
"368 617 OFFCURVE",
"368 674 QCURVE SMOOTH"
);
}
);
width = 1024;
}
);
unicode = 2219;
},
{
glyphname = dollar;
layers = (
{
layerId = "E225F0DD-7274-4E95-954B-383A64365C0A";
paths = (
{
closed = 1;
nodes = (
"-1 429 LINE",
"101 429 LINE",
"99 415 LINE SMOOTH",
"76 256 OFFCURVE",
"214 93 OFFCURVE",
"354 93 QCURVE SMOOTH",
"493 93 OFFCURVE",
"664 245 OFFCURVE",
"680 357 QCURVE SMOOTH",
"698 483 OFFCURVE",
"619 645 OFFCURVE",
"446 700 QCURVE SMOOTH",
"277 754 OFFCURVE",
"132 973 OFFCURVE",
"156 1130 QCURVE SMOOTH",
"178 1281 OFFCURVE",
"407 1456 OFFCURVE",
"576 1456 QCURVE SMOOTH",
"741 1456 OFFCURVE",
"911 1216 OFFCURVE",
"883 1045 QCURVE SMOOTH",
"881 1033 LINE",
"778 1033 LINE",
"780 1045 LINE SMOOTH",
"799 1190 OFFCURVE",
"683 1363 OFFCURVE",
"550 1363 QCURVE SMOOTH",
"416 1363 OFFCURVE",
"275 1243 OFFCURVE",
"257 1116 QCURVE SMOOTH",
"243 1006 OFFCURVE",
"329 844 OFFCURVE",
"512 781 QCURVE SMOOTH",
"686 721 OFFCURVE",
"808 518 OFFCURVE",
"783 362 QCURVE SMOOTH",
"757 199 OFFCURVE",
"520 1 OFFCURVE",
"328 1 QCURVE SMOOTH",
"168 1 OFFCURVE",
"-30 204 OFFCURVE",
"-4 406 QCURVE SMOOTH"
);
},
{
closed = 1;
nodes = (
"416 728 LINE",
"500 728 LINE",
"381 50 LINE",
"383 40 LINE",
"340 -150 LINE",
"252 -150 LINE"
);
},
{
closed = 1;
nodes = (
"527 1396 LINE",
"524 1406 LINE",
"558 1606 LINE",
"646 1606 LINE",
"500 728 LINE",
"416 728 LINE"
);
}
);
width = 896;
}
);
unicode = 0024;
},
{
glyphname = cent;
layers = (
{
layerId = "E225F0DD-7274-4E95-954B-383A64365C0A";
paths = (
{
closed = 1;
nodes = (
"646 282 OFFCURVE",
"795 401 OFFCURVE",
"802 492 QCURVE",
"978 492 LINE",
"970 348 OFFCURVE",
"718 130 OFFCURVE",
"547 130 QCURVE SMOOTH",
"304 130 OFFCURVE",
"65 454 OFFCURVE",
"65 670 QCURVE SMOOTH",
"65 712 LINE SMOOTH",
"65 928 OFFCURVE",
"304 1252 OFFCURVE",
"547 1252 QCURVE SMOOTH",
"736 1252 OFFCURVE",
"971 1026 OFFCURVE",
"978 860 QCURVE",
"802 860 LINE",
"795 959 OFFCURVE",
"657 1100 OFFCURVE",
"547 1100 QCURVE SMOOTH",
"377 1100 OFFCURVE",
"251 852 OFFCURVE",
"251 712 QCURVE SMOOTH",
"251 670 LINE SMOOTH",
"251 528 OFFCURVE",
"375 282 OFFCURVE",
"547 282 QCURVE SMOOTH"
);
},
{
closed = 1;
nodes = (
"469 237 LINE",
"474 251 LINE",
"474 708 LINE",
"614 708 LINE",
"614 250 LINE",
"619 240 LINE",
"619 0 LINE",
"469 0 LINE"
);
},
{
closed = 1;
nodes = (
"474 1182 LINE",
"469 1192 LINE",
"469 1402 LINE",
"619 1402 LINE",
"619 1192 LINE",
"614 1179 LINE",
"614 708 LINE",
"474 708 LINE"
);
}
);
width = 1024;
}
);
unicode = 00A2;
},
{
glyphname = sterling;
layers = (
{
layerId = "E225F0DD-7274-4E95-954B-383A64365C0A";
paths = (
{
closed = 1;
nodes = (
"36 0 LINE",
"36 160 LINE",
"92 160 LINE SMOOTH",
"184 160 OFFCURVE",
"264 324 OFFCURVE",
"250 467 QCURVE SMOOTH",
"195 1039 LINE SMOOTH",
"177 1228 OFFCURVE",
"380 1476 OFFCURVE",
"581 1476 QCURVE SMOOTH",
"771 1476 OFFCURVE",
"984 1270 OFFCURVE",
"984 1103 QCURVE SMOOTH",
"984 1087 LINE",
"792 1087 LINE",
"792 1103 LINE SMOOTH",
"785 1218 OFFCURVE",
"675 1309 OFFCURVE",
"583 1309 QCURVE SMOOTH",
"486 1309 OFFCURVE",
"369 1185 OFFCURVE",
"383 1039 QCURVE SMOOTH",
"434 508 LINE SMOOTH",
"447 372 OFFCURVE",
"392 207 OFFCURVE",
"322 166 QCURVE",
"1028 166 LINE",
"1028 0 LINE"
);
},
{
closed = 1;
nodes = (
"52 625 LINE",
"52 780 LINE",
"824 780 LINE",
"824 625 LINE"
);
}
);
width = 1024;
}
);
unicode = 00A3;
},
{
glyphname = currency;
layers = (
{
guideLines = (
{
position = "{0, 901}";
},
{
position = "{0, 555}";
}
);
layerId = "E225F0DD-7274-4E95-954B-383A64365C0A";
paths = (
{
closed = 1;
nodes = (
"261 567 OFFCURVE",
"445 373 OFFCURVE",
"576 373 QCURVE SMOOTH",
"706 373 OFFCURVE",
"889 567 OFFCURVE",
"889 712 QCURVE SMOOTH",
"889 855 OFFCURVE",
"706 1049 OFFCURVE",
"576 1049 QCURVE SMOOTH",
"445 1049 OFFCURVE",
"261 855 OFFCURVE",
"261 712 QCURVE"
);
},
{
closed = 1;
nodes = (
"78 933 OFFCURVE",
"374 1225 OFFCURVE",
"575 1225 QCURVE SMOOTH",
"776 1225 OFFCURVE",
"1072 933 OFFCURVE",
"1072 718 QCURVE SMOOTH",
"1072 504 OFFCURVE",
"776 209 OFFCURVE",
"575 209 QCURVE SMOOTH",
"374 209 OFFCURVE",
"78 504 OFFCURVE",
"78 718 QCURVE"
);
},
{
closed = 1;
nodes = (
"917 970 LINE",
"795 1097 LINE",
"997 1303 LINE",
"1119 1176 LINE"
);
},
{
closed = 1;
nodes = (
"133 148 LINE",
"12 274 LINE",
"214 479 LINE",
"335 354 LINE"
);
},
{
closed = 1;
nodes = (
"821 361 LINE",
"944 487 LINE",
"1146 282 LINE",
"1023 155 LINE"
);
},
{
closed = 1;
nodes = (
"29 1190 LINE",
"150 1316 LINE",
"352 1110 LINE",
"231 984 LINE"
);
}
);
width = 1158;
}
);
unicode = 00A4;
userData = {
com.typemytype.robofont.guideline.magnetic.917FhrihjR = 5;
com.typemytype.robofont.guideline.magnetic.bRYxxRaQQf = 5;
};
},
{
glyphname = yen;
layers = (
{
layerId = "E225F0DD-7274-4E95-954B-383A64365C0A";
paths = (
{
closed = 1;
nodes = (
"59 470 LINE",
"1005 470 LINE",
"1005 311 LINE",
"59 311 LINE"
);
},
{
closed = 1;
nodes = (
"59 775 LINE",
"425 775 LINE",
"478 669 LINE",
"587 669 LINE",
"635 775 LINE",
"1005 775 LINE",
"1005 621 LINE",
"59 621 LINE"
);
},
{
closed = 1;
nodes = (
"436 548 LINE",
"-19 1456 LINE",
"190 1456 LINE",
"466 849 LINE SMOOTH",
"480 819 OFFCURVE",
"513 716 OFFCURVE",
"520 679 QCURVE",
"540 679 LINE",
"549 735 OFFCURVE",
"580 819 OFFCURVE",
"594 849 QCURVE SMOOTH",
"874 1456 LINE",
"1075 1456 LINE",
"620 548 LINE",
"620 0 LINE",
"436 0 LINE"
);
}
);
width = 1056;
}
);
unicode = 00A5;
},
{
glyphname = coloncurrency;
layers = (
{
guideLines = (
{
position = "{0, 1570}";
}
);
layerId = "E225F0DD-7274-4E95-954B-383A64365C0A";
paths = (
{
closed = 1;
nodes = (
"923 1324 LINE",
"910 1301 LINE",
"738 68 LINE",
"744 43 LINE",
"720 -125 LINE",
"561 -125 LINE",
"584 40 LINE",
"598 66 LINE",
"783 1361 LINE",
"776 1381 LINE",
"804 1570 LINE",
"962 1570 LINE"
);
},
{
closed = 1;
nodes = (
"665 1395 LINE",
"652 1374 LINE",
"465 66 LINE",
"471 39 LINE",
"448 -125 LINE",
"289 -125 LINE",
"324 122 LINE",
"338 148 LINE",
"514 1376 LINE",
"507 1399 LINE",
"532 1570 LINE",
"690 1570 LINE"
);
},
{
closed = 1;
nodes = (
"85 844 LINE SMOOTH",
"85 1154 OFFCURVE",
"387 1486 OFFCURVE",
"621 1486 QCURVE SMOOTH",
"856 1486 OFFCURVE",
"1123 1233 OFFCURVE",
"1123 1040 QCURVE SMOOTH",
"1123 990 LINE",
"941 990 LINE",
"941 1041 LINE SMOOTH",
"941 1161 OFFCURVE",
"784 1332 OFFCURVE",
"621 1332 QCURVE SMOOTH",
"459 1332 OFFCURVE",
"271 1085 OFFCURVE",
"271 844 QCURVE SMOOTH",
"271 592 LINE SMOOTH",
"271 369 OFFCURVE",
"469 114 OFFCURVE",
"631 114 QCURVE SMOOTH",
"794 114 OFFCURVE",
"946 291 OFFCURVE",
"946 412 QCURVE SMOOTH",
"946 466 LINE",
"1133 466 LINE",
"1133 426 LINE SMOOTH",
"1133 241 OFFCURVE",
"866 -30 OFFCURVE",
"631 -30 QCURVE SMOOTH",
"392 -30 OFFCURVE",
"85 308 OFFCURVE",
"85 612 QCURVE SMOOTH"
);
}
);
width = 1154;
}
);
unicode = 20A1;
userData = {
com.typemytype.robofont.guideline.magnetic.0DwZ2nfhdf = 5;
};
},
{
glyphname = franc;
layers = (
{
layerId = "E225F0DD-7274-4E95-954B-383A64365C0A";
paths = (
{
closed = 1;
nodes = (
"180 1456 LINE",
"1002 1456 LINE",
"1002 1298 LINE",
"372 1298 LINE",
"372 861 LINE",
"913 861 LINE",
"913 703 LINE",
"372 703 LINE",
"372 0 LINE",
"180 0 LINE"
);
},
{
closed = 1;
nodes = (
"20 454 LINE",
"725 454 LINE",
"725 296 LINE",
"20 296 LINE"
);
}
);
width = 1024;
}
);
unicode = 20A3;
},
{
glyphname = lira;
layers = (
{
layerId = "E225F0DD-7274-4E95-954B-383A64365C0A";
paths = (
{
closed = 1;
nodes = (
"36 0 LINE",
"36 160 LINE",
"92 160 LINE SMOOTH",
"184 160 OFFCURVE",
"267 324 OFFCURVE",
"253 467 QCURVE SMOOTH",
"198 1039 LINE SMOOTH",
"180 1228 OFFCURVE",
"380 1476 OFFCURVE",
"581 1476 QCURVE SMOOTH",
"771 1476 OFFCURVE",
"984 1270 OFFCURVE",
"984 1103 QCURVE SMOOTH",
"984 1087 LINE",
"792 1087 LINE",
"792 1103 LINE SMOOTH",
"785 1218 OFFCURVE",
"675 1319 OFFCURVE",
"583 1319 QCURVE SMOOTH",
"481 1319 OFFCURVE",
"368 1162 OFFCURVE",
"380 1039 QCURVE SMOOTH",
"431 508 LINE SMOOTH",
"444 372 OFFCURVE",
"392 207 OFFCURVE",
"322 166 QCURVE",
"1028 166 LINE",
"1028 0 LINE"
);
},
{
closed = 1;
nodes = (
"42 435 LINE",
"42 580 LINE",
"804 580 LINE",
"804 435 LINE"
);
},
{
closed = 1;
nodes = (
"42 765 LINE",
"42 910 LINE",
"804 910 LINE",
"804 765 LINE"
);
}
);
width = 1024;
}
);
unicode = 20A4;
},
{
glyphname = naira;
layers = (
{
layerId = "E225F0DD-7274-4E95-954B-383A64365C0A";
paths = (
{
closed = 1;
nodes = (
"-21 987 LINE",
"161 987 LINE",
"161 977 LINE",
"827 977 LINE",
"827 987 LINE",
"1019 989 LINE",
"1019 852 LINE",
"827 850 LINE",
"827 855 LINE",
"161 855 LINE",
"161 850 LINE",
"-21 850 LINE"
);
},
{
closed = 1;
nodes = (
"-21 677 LINE",
"161 677 LINE",
"161 672 LINE",
"827 672 LINE",
"827 677 LINE",
"1019 679 LINE",
"1019 542 LINE",
"827 540 LINE",
"827 550 LINE",
"161 550 LINE",
"161 540 LINE",
"-21 540 LINE"
);
},
{
closed = 1;
nodes = (
"906 0 LINE",
"725 0 LINE",
"254 1142 LINE",
"232 1253 LINE",
"220 1253 LINE",
"233 1125 LINE",
"233 0 LINE",
"83 0 LINE",
"83 1456 LINE",
"269 1456 LINE",
"723 347 LINE",
"752 227 LINE",
"766 230 LINE",
"756 351 LINE",
"756 1456 LINE",
"906 1456 LINE"
);
}
);
width = 1024;
}
);
unicode = 20A6;
},
{
glyphname = peseta;
layers = (
{
layerId = "E225F0DD-7274-4E95-954B-383A64365C0A";
paths = (
{
closed = 1;
nodes = (
"311 565 LINE",
"311 717 LINE",
"545 717 LINE",
"718.134 717 OFFCURVE",
"822 898.552 OFFCURVE",
"822 1009 QCURVE",
"822 1120.94 OFFCURVE",
"718.134 1304 OFFCURVE",
"545 1304 QCURVE",
"352 1304 LINE",
"352 0 LINE",
"167 0 LINE",
"167 1456 LINE",
"545 1456 LINE",
"791.269 1456 OFFCURVE",
"1008 1202.045 OFFCURVE",
"1008 1011 QCURVE",
"1008 819.209 OFFCURVE",
"791.269 565 OFFCURVE",
"545 565 QCURVE"
);
},
{
closed = 1;
nodes = (
"1554 884 LINE",
"950 884 LINE",
"950 1026 LINE",
"1554 1026 LINE"
);
},
{
closed = 1;
nodes = (
"1332 1345 LINE",
"1332 268 LINE",
"1332 185.164 OFFCURVE",
"1404.731 139 OFFCURVE",
"1451 139 QCURVE SMOOTH",
"1474.134 139 OFFCURVE",
"1544 141 OFFCURVE",
"1603 163 QCURVE",
"1603 12 LINE",
"1554 -6 OFFCURVE",
"1445.507 -20 OFFCURVE",
"1397 -20 QCURVE SMOOTH",
"1294.761 -20 OFFCURVE",
"1147 107.06 OFFCURVE",
"1147 269 QCURVE",
"1147 1345 LINE"
);
}
);
width = 1681;
}
);
unicode = 20A7;
},
{
glyphname = won;
layers = (
{
layerId = "E225F0DD-7274-4E95-954B-383A64365C0A";
paths = (
{
closed = 1;
nodes = (
"48 1017 LINE",
"336 1017 LINE",
"336 1007 LINE",
"1472 1007 LINE",
"1472 1017 LINE",
"1748 1019 LINE",
"1748 882 LINE",
"1472 880 LINE",
"1472 885 LINE",
"336 885 LINE",
"336 880 LINE",
"48 880 LINE"
);
},
{
closed = 1;
nodes = (
"79 657 LINE",
"427 657 LINE",
"427 652 LINE",
"1393 652 LINE",
"1393 657 LINE",
"1709 659 LINE",
"1709 522 LINE",
"1393 520 LINE",
"1393 530 LINE",
"427 530 LINE",
"427 520 LINE",
"79 520 LINE"
);
},
{
closed = 1;
nodes = (
"115 1456 LINE",
"289 1456 LINE",
"538 378 LINE",
"556 250 LINE",
"562 250 LINE",
"580 378 LINE SMOOTH",
"798 1456 LINE",
"996 1456 LINE",
"1244 378 LINE",
"1262 250 LINE",
"1268 250 LINE",
"1286 378 LINE SMOOTH",
"1505 1456 LINE",
"1667 1456 LINE",
"1349 -10 LINE",
"1171 -10 LINE",
"925 1100 LINE",
"904 1228 LINE",
"898 1228 LINE",
"877 1100 LINE SMOOTH",
"651 -10 LINE",
"473 -10 LINE"
);
}
);
width = 1796;
}
);
unicode = 20A9;
},
{
glyphname = dong;
layers = (
{
layerId = "E225F0DD-7274-4E95-954B-383A64365C0A";
paths = (
{
closed = 1;
nodes = (
"15 492 LINE SMOOTH",
"15 714 OFFCURVE",
"235 992 OFFCURVE",
"415 992 QCURVE SMOOTH",
"525 992 OFFCURVE",
"669 925 OFFCURVE",
"716 868 QCURVE",
"716 1456 LINE",
"892 1456 LINE",
"892 0 LINE",
"734 0 LINE",
"726 137 LINE",
"720 137 LINE",
"680 72 OFFCURVE",
"525 -20 OFFCURVE",
"434 -20 QCURVE SMOOTH",
"235 -20 OFFCURVE",
"15 251 OFFCURVE",
"15 480 QCURVE SMOOTH"
);
},
{
closed = 1;
nodes = (
"205 310 OFFCURVE",
"325 132 OFFCURVE",
"445 132 QCURVE SMOOTH",
"555 132 OFFCURVE",
"685 242 OFFCURVE",
"716 312 QCURVE",
"716 680 LINE",
"685 750 OFFCURVE",
"555 840 OFFCURVE",
"455 840 QCURVE SMOOTH",
"325 840 OFFCURVE",
"205 672 OFFCURVE",
"205 492 QCURVE SMOOTH",
"205 480 LINE SMOOTH"
);
},
{
closed = 1;
nodes = (
"305 1156 LINE",
"305 1302 LINE",
"1021 1302 LINE",
"1021 1156 LINE"
);
},
{
closed = 1;
nodes = (
"47 -266 LINE",
"47 -128 LINE",
"971 -128 LINE",
"971 -266 LINE"
);
}
);
width = 1024;
}
);
unicode = 20AB;
},
{
glyphname = Euro;
layers = (
{
layerId = "E225F0DD-7274-4E95-954B-383A64365C0A";
paths = (
{
closed = 1;
nodes = (
"807 827 LINE",
"22 827 LINE",
"22 987 LINE",
"804 987 LINE"
);
},
{
closed = 1;
nodes = (
"807 502 LINE",
"22 502 LINE",
"22 661 LINE",
"807 661 LINE"
);
},
{
closed = 1;
nodes = (
"203 903 LINE SMOOTH",
"203 1242 OFFCURVE",
"470 1484 OFFCURVE",
"654 1484 QCURVE SMOOTH",
"799 1484 OFFCURVE",
"963 1398 OFFCURVE",
"1018 1337 QCURVE",
"901 1206 LINE",
"868 1242 OFFCURVE",
"755 1306 OFFCURVE",
"668 1306 QCURVE SMOOTH",
"554 1306 OFFCURVE",
"382 1142 OFFCURVE",
"382 906 QCURVE SMOOTH",
"382 541 LINE SMOOTH",
"382 312 OFFCURVE",
"567 145 OFFCURVE",
"689 145 QCURVE SMOOTH",
"775 145 OFFCURVE",
"891 208 OFFCURVE",
"928 242 QCURVE",
"1031 126 LINE",
"981 64 OFFCURVE",
"807 -30 OFFCURVE",
"656 -30 QCURVE SMOOTH",
"482 -30 OFFCURVE",
"203 242 OFFCURVE",
"203 544 QCURVE SMOOTH"
);
}
);
width = 1024;
}
);
unicode = 20AC;
},
{
glyphname = florin;
layers = (
{
layerId = "E225F0DD-7274-4E95-954B-383A64365C0A";
paths = (
{
closed = 1;
nodes = (
"868 740 LINE",
"555 740 LINE",
"555 111 LINE SMOOTH",
"555 -173 OFFCURVE",
"349 -437 OFFCURVE",
"103 -437 QCURVE SMOOTH",
"72 -437 OFFCURVE",
"19 -430 OFFCURVE",
"-9 -420 QCURVE",
"5 -271 LINE",
"20 -277 OFFCURVE",
"89 -284 OFFCURVE",
"103 -284 QCURVE SMOOTH",
"224 -284 OFFCURVE",
"370 -122 OFFCURVE",
"370 111 QCURVE SMOOTH",
"370 740 LINE",
"129 740 LINE",
"129 882 LINE",
"370 882 LINE",
"370 1126 LINE SMOOTH",
"370 1301 OFFCURVE",
"551 1487 OFFCURVE",
"708 1487 QCURVE SMOOTH",
"794 1487 OFFCURVE",
"923 1434 OFFCURVE",
"963 1404 QCURVE",
"882 1259 LINE",
"843 1290 OFFCURVE",
"759 1320 OFFCURVE",
"712 1320 QCURVE SMOOTH",
"642 1320 OFFCURVE",
"555 1224 OFFCURVE",
"555 1126 QCURVE SMOOTH",
"555 882 LINE",
"868 882 LINE"
);
}
);
width = 1024;
}
);
unicode = 0192;
},
{
glyphname = uni20AD;
layers = (
{
layerId = "E225F0DD-7274-4E95-954B-383A64365C0A";
paths = (
{
closed = 1;
nodes = (
"130 1456 LINE",
"317 1456 LINE",
"317 769 LINE",
"835 1456 LINE",
"1037 1456 LINE",
"317 500 LINE",
"317 0 LINE",
"130 0 LINE"
);
},
{
closed = 1;
nodes = (
"441 756 LINE",
"557 901 LINE",
"1061 0 LINE",
"845 0 LINE"
);
},
{
closed = 1;
nodes = (
"-9 661 LINE",
"-9 809 LINE",
"267 809 LINE",
"267 661 LINE"
);
},
{
closed = 1;
nodes = (
"1021 661 LINE",
"590 661 LINE",
"590 809 LINE",
"1021 809 LINE"
);
}
);
width = 1024;
}
);
unicode = 20AD;
},
{
glyphname = uni20B1;
layers = (
{
layerId = "E225F0DD-7274-4E95-954B-383A64365C0A";
paths = (
{
closed = 1;
nodes = (
"187 421 LINE",
"187 577 LINE",
"442 577 LINE SMOOTH",
"596 577 OFFCURVE",
"708 759 OFFCURVE",
"708 945 QCURVE SMOOTH",
"708 1131 OFFCURVE",
"596 1300 OFFCURVE",
"442 1300 QCURVE SMOOTH",
"277 1300 LINE",
"277 0 LINE",
"89 0 LINE",
"89 1456 LINE",
"445 1456 LINE SMOOTH",
"680 1456 OFFCURVE",
"894 1203 OFFCURVE",
"894 955 QCURVE SMOOTH",
"894 725 OFFCURVE",
"679 421 OFFCURVE",
"444 421 QCURVE SMOOTH"
);
},
{
closed = 1;
nodes = (
"-1 1137 LINE",
"201 1137 LINE",
"201 1112 LINE",
"787 1112 LINE",
"787 1137 LINE",
"1019 1139 LINE",
"1019 982 LINE",
"807 980 LINE",
"807 995 LINE",
"201 995 LINE",
"201 980 LINE",
"-1 980 LINE"
);
},
{
closed = 1;
nodes = (
"-1 867 LINE",
"201 867 LINE",
"201 852 LINE",
"807 852 LINE",
"807 867 LINE",
"1019 869 LINE",
"1019 712 LINE",
"767 710 LINE",
"767 734 LINE",
"201 734 LINE",
"201 710 LINE",
"-1 710 LINE"
);
}
);
width = 1024;
}
);
unicode = 20B1;
},
{
glyphname = uni20B2;
layers = (
{
layerId = "E225F0DD-7274-4E95-954B-383A64365C0A";
paths = (
{
closed = 1;
nodes = (
"479 57 LINE",
"497 71 LINE",
"497 708 LINE",
"627 708 LINE",
"627 70 LINE",
"649 60 LINE",
"649 -190 LINE",
"479 -190 LINE"
);
},
{
closed = 1;
nodes = (
"497 1342 LINE",
"482 1352 LINE",
"482 1582 LINE",
"642 1582 LINE",
"642 1352 LINE",
"627 1339 LINE",
"627 708 LINE",
"497 708 LINE"
);
},
{
closed = 1;
nodes = (
"995 452 LINE SMOOTH",
"995 259 OFFCURVE",
"754 -5 OFFCURVE",
"571 -5 QCURVE SMOOTH",
"350 -5 OFFCURVE",
"94 288 OFFCURVE",
"94 542 QCURVE SMOOTH",
"94 897 LINE SMOOTH",
"94 1196 OFFCURVE",
"350 1485 OFFCURVE",
"549 1485 QCURVE SMOOTH",
"727 1485 OFFCURVE",
"941 1340 OFFCURVE",
"989 1265 QCURVE",
"873 1131 LINE",
"818 1204 OFFCURVE",
"673 1309 OFFCURVE",
"557 1309 QCURVE SMOOTH",
"425 1309 OFFCURVE",
"288 1112 OFFCURVE",
"288 899 QCURVE SMOOTH",
"288 544 LINE SMOOTH",
"288 359 OFFCURVE",
"435 142 OFFCURVE",
"585 142 QCURVE SMOOTH",
"672 142 OFFCURVE",
"823 299 OFFCURVE",
"823 433 QCURVE SMOOTH",
"823 569 LINE",
"696 569 LINE",
"696 725 LINE",
"995 725 LINE"
);
}
);
width = 1024;
}
);
unicode = 20B2;
},
{
glyphname = uni20B5;
layers = (
{
guideLines = (
{
position = "{0, -125}";
}
);
layerId = "E225F0DD-7274-4E95-954B-383A64365C0A";
paths = (
{
closed = 1;
nodes = (
"473 37 LINE",
"486 51 LINE",
"486 708 LINE",
"631 708 LINE",
"631 50 LINE",
"643 40 LINE",
"643 -190 LINE",
"473 -190 LINE"
);
},
{
closed = 1;
nodes = (
"486 1362 LINE",
"476 1372 LINE",
"476 1582 LINE",
"636 1582 LINE",
"636 1372 LINE",
"631 1359 LINE",
"631 708 LINE",
"486 708 LINE"
);
},
{
closed = 1;
nodes = (
"821 460 LINE",
"1010 458 LINE",
"1009 436 LINE SMOOTH",
"992 244 OFFCURVE",
"779 -25 OFFCURVE",
"565 -25 QCURVE SMOOTH",
"344 -25 OFFCURVE",
"102 237 OFFCURVE",
"102 462 QCURVE SMOOTH",
"102 1002 LINE SMOOTH",
"102 1216 OFFCURVE",
"344 1485 OFFCURVE",
"563 1485 QCURVE SMOOTH",
"780 1485 OFFCURVE",
"1000 1236 OFFCURVE",
"1009 1030 QCURVE SMOOTH",
"1010 1008 LINE",
"816 1006 LINE",
"816 1030 LINE SMOOTH",
"812 1135 OFFCURVE",
"712 1329 OFFCURVE",
"566 1329 QCURVE SMOOTH",
"419 1329 OFFCURVE",
"296 1150 OFFCURVE",
"296 1004 QCURVE SMOOTH",
"296 464 LINE SMOOTH",
"296 311 OFFCURVE",
"429 122 OFFCURVE",
"579 122 QCURVE SMOOTH",
"697 122 OFFCURVE",
"821 302 OFFCURVE",
"821 436 QCURVE SMOOTH"
);
}
);
width = 1024;
}
);
unicode = 20B5;
userData = {
com.typemytype.robofont.guideline.magnetic.1Am3eQoiKr = 5;
};
},
{
glyphname = rupeeIndian;
layers = (
{
layerId = "E225F0DD-7274-4E95-954B-383A64365C0A";
paths = (
{
closed = 1;
nodes = (
"19 1089 LINE",
"990 1089 LINE",
"990 934 LINE",
"19 934 LINE"
);
},
{
closed = 1;
nodes = (
"660 267 LINE SMOOTH",
"566 439 OFFCURVE",
"322 566 OFFCURVE",
"132 574 QCURVE SMOOTH",
"19 579 LINE",
"19 732 LINE",
"307 732 LINE SMOOTH",
"498 732 OFFCURVE",
"653 885 OFFCURVE",
"653 1019 QCURVE SMOOTH",
"653 1145 OFFCURVE",
"492 1299 OFFCURVE",
"321 1299 QCURVE SMOOTH",
"19 1299 LINE",
"19 1456 LINE",
"999 1456 LINE",
"999 1300 LINE",
"764 1300 LINE",
"687 1308 LINE",
"689 1300 LINE",
"746 1272 OFFCURVE",
"838 1112 OFFCURVE",
"838 1019 QCURVE SMOOTH",
"838 831 OFFCURVE",
"661 663 OFFCURVE",
"475 642 QCURVE",
"569 619 OFFCURVE",
"762 461 OFFCURVE",
"839 317 QCURVE SMOOTH",
"1009 0 LINE",
"806 0 LINE"
);
}
);
width = 1024;
}
);
unicode = 20B9;
},
{
glyphname = liraTurkish;
layers = (
{
layerId = "E225F0DD-7274-4E95-954B-383A64365C0A";
paths = (
{
closed = 1;
nodes = (
"6 502 LINE",
"856 876 LINE",
"850 709 LINE",
"6 334 LINE"
);
},
{
closed = 1;
nodes = (
"180 1456 LINE",
"362 1456 LINE",
"362 153 LINE",
"439 153 LINE SMOOTH",
"647 153 OFFCURVE",
"839 363 OFFCURVE",
"835 521 QCURVE SMOOTH",
"835 558 LINE",
"1015 558 LINE",
"1015 523 LINE SMOOTH",
"1015 298 OFFCURVE",
"727 -5 OFFCURVE",
"402 -2 QCURVE SMOOTH",
"180 0 LINE"
);
},
{
closed = 1;
nodes = (
"6 862 LINE",
"856 1236 LINE",
"850 1069 LINE",
"6 694 LINE"
);
}
);
width = 1024;
}
);
unicode = 20BA;
},
{
glyphname = manat;
layers = (
{
layerId = "E225F0DD-7274-4E95-954B-383A64365C0A";
paths = (
{
closed = 1;
nodes = (
"1062 0 LINE",
"880 0 LINE",
"880 916 LINE SMOOTH",
"878 1086 OFFCURVE",
"704 1252 OFFCURVE",
"565 1252 QCURVE SMOOTH",
"426 1252 OFFCURVE",
"250 1086 OFFCURVE",
"250 916 QCURVE SMOOTH",
"250 0 LINE",
"68 0 LINE",
"68 916 LINE SMOOTH",
"71 1166 OFFCURVE",
"356 1416 OFFCURVE",
"565 1416 QCURVE SMOOTH",
"775 1416 OFFCURVE",
"1062 1166 OFFCURVE",
"1062 916 QCURVE SMOOTH"
);
},
{
closed = 1;
nodes = (
"485 0 LINE",
"485 1582 LINE",
"645 1582 LINE",
"645 0 LINE"
);
}
);
width = 1130;
}
);
unicode = 20BC;
},
{
glyphname = ruble;
layers = (
{
layerId = "E225F0DD-7274-4E95-954B-383A64365C0A";
paths = (
{
closed = 1;
nodes = (
"30 611 LINE",
"30 768 LINE",
"526 768 LINE SMOOTH",
"689 768 OFFCURVE",
"842 913 OFFCURVE",
"842 1033 QCURVE SMOOTH",
"842 1138 OFFCURVE",
"695 1298 OFFCURVE",
"526 1298 QCURVE SMOOTH",
"367 1298 LINE",
"367 0 LINE",
"188 0 LINE",
"188 1456 LINE",
"526 1456 LINE SMOOTH",
"772 1456 OFFCURVE",
"1034 1217 OFFCURVE",
"1034 1035 QCURVE SMOOTH",
"1034 835 OFFCURVE",
"772 611 OFFCURVE",
"526 611 QCURVE SMOOTH"
);
},
{
closed = 1;
nodes = (
"754 266 LINE",
"30 266 LINE",
"30 424 LINE",
"754 424 LINE"
);
}
);
width = 1024;
}
);
unicode = 20BD;
},
{
glyphname = asciicircum;
layers = (
{
layerId = "E225F0DD-7274-4E95-954B-383A64365C0A";
paths = (
{
closed = 1;
nodes = (
"593 1456 LINE",
"689 1456 LINE",
"998 720 LINE",
"883 720 LINE",
"629 1345 LINE",
"158 720 LINE",
"23 720 LINE"
);
}
);
width = 1023;
}
);
unicode = 005E;
},
{
glyphname = asciitilde;
layers = (
{
layerId = "E225F0DD-7274-4E95-954B-383A64365C0A";
paths = (
{
closed = 1;
nodes = (
"208 698 LINE",
"263 749 OFFCURVE",
"371 805 OFFCURVE",
"434 807 QCURVE SMOOTH",
"472 808 OFFCURVE",
"571 767 OFFCURVE",
"622 741 QCURVE SMOOTH",
"677 713 OFFCURVE",
"787 665 OFFCURVE",
"827 665 QCURVE SMOOTH",
"890 665 OFFCURVE",
"992 733 OFFCURVE",
"1050 793 QCURVE",
"1014 679 LINE",
"969 628 OFFCURVE",
"859 570 OFFCURVE",
"796 570 QCURVE SMOOTH",
"755 570 OFFCURVE",
"652 610 OFFCURVE",
"602 635 QCURVE SMOOTH",
"546 663 OFFCURVE",
"438 712 OFFCURVE",
"402 712 QCURVE SMOOTH",
"338 712 OFFCURVE",
"233 645 OFFCURVE",
"172 585 QCURVE"
);
}
);
width = 1239;
}
);
unicode = 007E;
},
{
glyphname = acute;
layers = (
{
layerId = "E225F0DD-7274-4E95-954B-383A64365C0A";
paths = (
{
closed = 1;
nodes = (
"605 1286 LINE",
"708 1207 LINE",
"442 951 LINE",
"369 1006 LINE"
);
}
);
width = 1024;
}
);
unicode = 00B4;
},
{
glyphname = grave;
layers = (
{
layerId = "E225F0DD-7274-4E95-954B-383A64365C0A";
paths = (
{
closed = 1;
nodes = (
"435 1207 LINE",
"552 1286 LINE",
"728 1006 LINE",
"644 951 LINE"
);
}
);
width = 1004;
}
);
unicode = 0060;
},
{
glyphname = hungarumlaut;
layers = (
{
layerId = "E225F0DD-7274-4E95-954B-383A64365C0A";
paths = (
{
closed = 1;
nodes = (
"465 1300 LINE",
"573 1221 LINE",
"347 951 LINE",
"269 1006 LINE"
);
},
{
closed = 1;
nodes = (
"735 1300 LINE",
"843 1221 LINE",
"617 951 LINE",
"539 1006 LINE"
);
}
);
width = 1024;
}
);
unicode = 02DD;
},
{
glyphname = circumflex;
layers = (
{
layerId = "E225F0DD-7274-4E95-954B-383A64365C0A";
paths = (
{
closed = 1;
nodes = (
"795 979 LINE",
"675 979 LINE",
"508 1169 LINE",
"343 979 LINE",
"230 979 LINE",
"455 1262 LINE",
"567 1262 LINE"
);
}
);
width = 1024;
}
);
unicode = 02C6;
},
{
glyphname = caron;
layers = (
{
layerId = "E225F0DD-7274-4E95-954B-383A64365C0A";
paths = (
{
closed = 1;
nodes = (
"230 1252 LINE",
"350 1252 LINE",
"517 1062 LINE",
"682 1252 LINE",
"795 1252 LINE",
"570 969 LINE",
"458 969 LINE"
);
}
);
width = 1024;
}
);
unicode = 02C7;
},
{
glyphname = breve;
layers = (
{
layerId = "E225F0DD-7274-4E95-954B-383A64365C0A";
paths = (
{
closed = 1;
nodes = (
"803 1190 LINE",
"766 1094 OFFCURVE",
"609 964 OFFCURVE",
"511 964 QCURVE SMOOTH",
"401 964 OFFCURVE",
"252 1110 OFFCURVE",
"219 1189 QCURVE",
"297 1225 LINE",
"348 1144 OFFCURVE",
"448 1072 OFFCURVE",
"510 1072 QCURVE SMOOTH",
"574 1072 OFFCURVE",
"676 1144 OFFCURVE",
"726 1225 QCURVE"
);
}
);
width = 1022;
}
);
unicode = 02D8;
},
{
glyphname = tilde;
layers = (
{
layerId = "E225F0DD-7274-4E95-954B-383A64365C0A";
paths = (
{
closed = 1;
nodes = (
"236 1112 OFFCURVE",
"354 1188 OFFCURVE",
"414 1188 QCURVE SMOOTH",
"450 1188 OFFCURVE",
"513 1160 OFFCURVE",
"545 1140 QCURVE SMOOTH",
"576 1122 OFFCURVE",
"635 1090 OFFCURVE",
"668 1090 QCURVE SMOOTH",
"704 1090 OFFCURVE",
"770 1136 OFFCURVE",
"790 1166 QCURVE",
"854 1099 LINE",
"820 1040 OFFCURVE",
"707 986 OFFCURVE",
"656 986 QCURVE SMOOTH",
"613 986 OFFCURVE",
"541 1026 OFFCURVE",
"514 1041 QCURVE SMOOTH",
"484 1058 OFFCURVE",
"425 1080 OFFCURVE",
"400 1080 QCURVE SMOOTH",
"358 1080 OFFCURVE",
"278 1019 OFFCURVE",
"262 997 QCURVE",
"207 1060 LINE"
);
}
);
width = 1024;
}
);
unicode = 02DC;
},
{
glyphname = macron;
layers = (
{
layerId = "E225F0DD-7274-4E95-954B-383A64365C0A";
paths = (
{
closed = 1;
nodes = (
"766 1014 LINE",
"258 1014 LINE",
"258 1112 LINE",
"766 1112 LINE"
);
}
);
width = 1024;
}
);
unicode = 00AF;
},
{
glyphname = dieresis;
layers = (
{
layerId = "E225F0DD-7274-4E95-954B-383A64365C0A";
paths = (
{
closed = 1;
nodes = (
"242 1087 OFFCURVE",
"283 1132 OFFCURVE",
"329 1132 QCURVE SMOOTH",
"371 1132 OFFCURVE",
"417 1087 OFFCURVE",
"417 1046 QCURVE SMOOTH",
"417 1012 OFFCURVE",
"371 964 OFFCURVE",
"329 964 QCURVE SMOOTH",
"283 964 OFFCURVE",
"242 1012 OFFCURVE",
"242 1046 QCURVE SMOOTH"
);
},
{
closed = 1;
nodes = (
"607 1085 OFFCURVE",
"654 1130 OFFCURVE",
"694 1130 QCURVE SMOOTH",
"741 1130 OFFCURVE",
"782 1085 OFFCURVE",
"782 1044 QCURVE SMOOTH",
"782 1012 OFFCURVE",
"741 962 OFFCURVE",
"694 962 QCURVE SMOOTH",
"654 962 OFFCURVE",
"607 1012 OFFCURVE",
"607 1044 QCURVE SMOOTH"
);
}
);
width = 1024;
}
);
unicode = 00A8;
},
{
glyphname = dotaccent;
layers = (
{
layerId = "E225F0DD-7274-4E95-954B-383A64365C0A";
paths = (
{
closed = 1;
nodes = (
"421 1115 OFFCURVE",
"469 1169 OFFCURVE",
"513 1169 QCURVE SMOOTH",
"557 1169 OFFCURVE",
"604 1116 OFFCURVE",
"604 1076 QCURVE SMOOTH",
"604 1036 OFFCURVE",
"556 981 OFFCURVE",
"512 981 QCURVE SMOOTH",
"468 981 OFFCURVE",
"421 1036 OFFCURVE",
"421 1076 QCURVE SMOOTH"
);
}
);
width = 1024;
}
);
unicode = 02D9;
},
{
glyphname = ring;
layers = (
{
layerId = "E225F0DD-7274-4E95-954B-383A64365C0A";
paths = (
{
closed = 1;
nodes = (
"302 1220 OFFCURVE",
"423 1341 OFFCURVE",
"512 1341 QCURVE SMOOTH",
"599 1341 OFFCURVE",
"722 1220 OFFCURVE",
"722 1135 QCURVE SMOOTH",
"722 1049 OFFCURVE",
"599 933 OFFCURVE",
"512 933 QCURVE SMOOTH",
"423 933 OFFCURVE",
"302 1049 OFFCURVE",
"302 1135 QCURVE"
);
},
{
closed = 1;
nodes = (
"394 1084 OFFCURVE",
"461 1018 OFFCURVE",
"512 1018 QCURVE SMOOTH",
"563 1018 OFFCURVE",
"630 1084 OFFCURVE",
"630 1135 QCURVE SMOOTH",
"630 1187 OFFCURVE",
"563 1255 OFFCURVE",
"512 1255 QCURVE SMOOTH",
"461 1255 OFFCURVE",
"394 1187 OFFCURVE",
"394 1135 QCURVE"
);
}
);
width = 1024;
}
);
unicode = 02DA;
},
{
glyphname = cedilla;
layers = (
{
layerId = "E225F0DD-7274-4E95-954B-383A64365C0A";
paths = (
{
closed = 1;
nodes = (
"539 42 LINE",
"511 -63 LINE",
"599 -74 OFFCURVE",
"694 -148 OFFCURVE",
"694 -216 QCURVE SMOOTH",
"694 -319 OFFCURVE",
"517 -435 OFFCURVE",
"348 -435 QCURVE",
"342 -351 LINE",
"451 -351 OFFCURVE",
"592 -287 OFFCURVE",
"592 -228 QCURVE SMOOTH",
"592 -179 OFFCURVE",
"492 -139 OFFCURVE",
"399 -135 QCURVE",
"440 42 LINE"
);
}
);
width = 1024;
}
);
unicode = 00B8;
},
{
glyphname = ogonek;
layers = (
{
layerId = "E225F0DD-7274-4E95-954B-383A64365C0A";
paths = (
{
closed = 1;
nodes = (
"567 3 LINE",
"494 -52 OFFCURVE",
"402 -167 OFFCURVE",
"402 -214 QCURVE SMOOTH",
"402 -249 OFFCURVE",
"444 -287 OFFCURVE",
"477 -287 QCURVE SMOOTH",
"513 -287 OFFCURVE",
"594 -268 OFFCURVE",
"626 -250 QCURVE",
"637 -339 LINE",
"605 -360 OFFCURVE",
"511 -382 OFFCURVE",
"464 -382 QCURVE SMOOTH",
"382 -382 OFFCURVE",
"295 -291 OFFCURVE",
"295 -225 QCURVE SMOOTH",
"295 -157 OFFCURVE",
"403 -21 OFFCURVE",
"498 43 QCURVE"
);
}
);
width = 1024;
}
);
unicode = 02DB;
},
{
glyphname = copyright;
layers = (
{
guideLines = (
{
position = "{0, 901}";
},
{
position = "{0, 555}";
}
);
layerId = "E225F0DD-7274-4E95-954B-383A64365C0A";
paths = (
{
closed = 1;
nodes = (
"1212 546 LINE",
"1212 375 OFFCURVE",
"977 205 OFFCURVE",
"813 205 QCURVE SMOOTH",
"642 205 OFFCURVE",
"419 437 OFFCURVE",
"419 664 QCURVE SMOOTH",
"419 703 LINE SMOOTH",
"419 931 OFFCURVE",
"643 1170 OFFCURVE",
"830 1170 QCURVE SMOOTH",
"1017 1170 OFFCURVE",
"1213 983 OFFCURVE",
"1213 829 QCURVE",
"1031 829 LINE",
"1031 917 OFFCURVE",
"928 1006 OFFCURVE",
"829 1006 QCURVE SMOOTH",
"722 1006 OFFCURVE",
"612 868 OFFCURVE",
"612 747 QCURVE SMOOTH",
"612 621 LINE SMOOTH",
"612 499 OFFCURVE",
"731 362 OFFCURVE",
"838 362 QCURVE SMOOTH",
"937 362 OFFCURVE",
"1030 457 OFFCURVE",
"1030 546 QCURVE"
);
},
{
closed = 1;
nodes = (
"186 400 OFFCURVE",
"563 4 OFFCURVE",
"828 4 QCURVE SMOOTH",
"1092 4 OFFCURVE",
"1469 400 OFFCURVE",
"1469 687 QCURVE SMOOTH",
"1469 975 OFFCURVE",
"1092 1367 OFFCURVE",
"828 1367 QCURVE SMOOTH",
"563 1367 OFFCURVE",
"186 975 OFFCURVE",
"186 687 QCURVE SMOOTH"
);
},
{
closed = 1;
nodes = (
"38 1039 OFFCURVE",
"501 1519 OFFCURVE",
"827 1519 QCURVE SMOOTH",
"1152 1519 OFFCURVE",
"1616 1039 OFFCURVE",
"1616 687 QCURVE SMOOTH",
"1616 337 OFFCURVE",
"1152 -147 OFFCURVE",
"827 -147 QCURVE SMOOTH",
"501 -147 OFFCURVE",
"38 337 OFFCURVE",
"38 687 QCURVE SMOOTH"
);
}
);
width = 1654;
}
);
leftKerningGroup = copyright;
rightKerningGroup = copyright;
unicode = 00A9;
userData = {
com.typemytype.robofont.guideline.magnetic.0Pjz0qKr8z = 5;
com.typemytype.robofont.guideline.magnetic.sJo8BlDiJ7 = 5;
};
},
{
glyphname = registered;
layers = (
{
layerId = "E225F0DD-7274-4E95-954B-383A64365C0A";
paths = (
{
closed = 1;
nodes = (
"38 1039 OFFCURVE",
"501 1519 OFFCURVE",
"827 1519 QCURVE SMOOTH",
"1152 1519 OFFCURVE",
"1616 1039 OFFCURVE",
"1616 687 QCURVE SMOOTH",
"1616 337 OFFCURVE",
"1152 -147 OFFCURVE",
"827 -147 QCURVE SMOOTH",
"501 -147 OFFCURVE",
"38 337 OFFCURVE",
"38 687 QCURVE SMOOTH"
);
},
{
closed = 1;
nodes = (
"186 400 OFFCURVE",
"563 4 OFFCURVE",
"828 4 QCURVE SMOOTH",
"1092 4 OFFCURVE",
"1469 400 OFFCURVE",
"1469 687 QCURVE SMOOTH",
"1469 975 OFFCURVE",
"1092 1367 OFFCURVE",
"828 1367 QCURVE SMOOTH",
"563 1367 OFFCURVE",
"186 975 OFFCURVE",
"186 687 QCURVE SMOOTH"
);
},
{
closed = 1;
nodes = (
"664 597 LINE",
"664 225 LINE",
"499 225 LINE",
"499 1158 LINE",
"821 1158 LINE SMOOTH",
"993 1158 OFFCURVE",
"1197 1018 OFFCURVE",
"1197 877 QCURVE SMOOTH",
"1197 764 OFFCURVE",
"1088 640 OFFCURVE",
"979 618 QCURVE",
"1010 595 OFFCURVE",
"1035 559 OFFCURVE",
"1052 530 QCURVE SMOOTH",
"1221 243 LINE",
"1221 225 LINE",
"1042 225 LINE",
"855 597 LINE"
);
},
{
closed = 1;
nodes = (
"664 1007 LINE",
"664 738 LINE",
"847 738 LINE SMOOTH",
"920 738 OFFCURVE",
"1016 795 OFFCURVE",
"1016 859 QCURVE SMOOTH",
"1016 940 OFFCURVE",
"940 1006 OFFCURVE",
"822 1007 QCURVE SMOOTH"
);
}
);
width = 1654;
}
);
leftKerningGroup = copyright;
rightKerningGroup = copyright;
unicode = 00AE;
},
{
glyphname = trademark;
layers = (
{
layerId = "E225F0DD-7274-4E95-954B-383A64365C0A";
paths = (
{
closed = 1;
nodes = (
"24 1446 LINE",
"732 1446 LINE",
"732 1288 LINE",
"464 1288 LINE",
"464 690 LINE",
"292 690 LINE",
"292 1288 LINE",
"24 1288 LINE"
);
},
{
closed = 1;
nodes = (
"850 1446 LINE",
"1021 1446 LINE",
"1277 866 LINE",
"1285 866 LINE",
"1545 1446 LINE",
"1716 1446 LINE",
"1716 690 LINE",
"1567 690 LINE",
"1567 1165 LINE",
"1555 1165 LINE",
"1349 690 LINE",
"1213 690 LINE",
"1017 1165 LINE",
"1005 1165 LINE",
"1005 690 LINE",
"850 690 LINE"
);
}
);
width = 1881;
}
);
unicode = 2122;
},
{
glyphname = degree;
layers = (
{
layerId = "E225F0DD-7274-4E95-954B-383A64365C0A";
paths = (
{
closed = 1;
nodes = (
"131 1323 OFFCURVE",
"282.269 1477 OFFCURVE",
"386 1477 QCURVE SMOOTH",
"488.985 1477 OFFCURVE",
"637 1322.97 OFFCURVE",
"637 1217 QCURVE SMOOTH",
"637 1110.284 OFFCURVE",
"489 960 OFFCURVE",
"386 960 QCURVE SMOOTH",
"282 960 OFFCURVE",
"131 1110 OFFCURVE",
"131 1217 QCURVE"
);
},
{
closed = 1;
nodes = (
"255 1161.776 OFFCURVE",
"332.269 1088 OFFCURVE",
"386 1088 QCURVE SMOOTH",
"439.731 1088 OFFCURVE",
"513 1161.776 OFFCURVE",
"513 1217 QCURVE SMOOTH",
"513 1272.97 OFFCURVE",
"439.731 1349 OFFCURVE",
"386 1349 QCURVE SMOOTH",
"332.269 1349 OFFCURVE",
"255 1272.97 OFFCURVE",
"255 1217 QCURVE"
);
}
);
width = 765;
}
);
unicode = 00B0;
},
{
glyphname = diagonalbarL;
layers = (
{
layerId = "E225F0DD-7274-4E95-954B-383A64365C0A";
paths = (
{
closed = 1;
nodes = (
"-32 533 LINE",
"575 908 LINE",
"622 833 LINE",
"14 455 LINE"
);
}
);
width = 741;
}
);
},
{
glyphname = diagonalbarO;
layers = (
{
layerId = "E225F0DD-7274-4E95-954B-383A64365C0A";
paths = (
{
closed = 1;
nodes = (
"77 86 LINE",
"75 81 LINE",
"281 871 LINE",
"354 803 LINE",
"161 54 LINE",
"161 50 LINE",
"118 -109 LINE",
"23 -109 LINE"
);
},
{
closed = 1;
nodes = (
"568 1618 LINE",
"515 1424 LINE",
"514 1428 LINE",
"354 803 LINE",
"281 871 LINE",
"429 1455 LINE",
"429 1460 LINE",
"472 1618 LINE"
);
}
);
width = 623;
}
);
},
{
glyphname = diagonalbarl;
layers = (
{
layerId = "E225F0DD-7274-4E95-954B-383A64365C0A";
paths = (
{
closed = 1;
nodes = (
"68 631 LINE",
"286 790 LINE",
"497 985 LINE",
"555 879 LINE",
"334 716 LINE",
"127 533 LINE"
);
}
);
width = 629;
}
);
},
{
glyphname = diagonalbaro;
layers = (
{
layerId = "E225F0DD-7274-4E95-954B-383A64365C0A";
paths = (
{
closed = 1;
nodes = (
"26 89 LINE",
"24 84 LINE",
"191 500 LINE",
"260 430 LINE",
"111 55 LINE",
"111 51 LINE",
"37 -123 LINE",
"-58 -118 LINE"
);
},
{
closed = 1;
nodes = (
"488 990 LINE",
"410 797 LINE",
"410 802 LINE",
"260 430 LINE",
"191 500 LINE",
"324 830 LINE",
"324 836 LINE",
"388 993 LINE"
);
}
);
width = 454;
}
);
},
{
glyphname = engtail;
layers = (
{
layerId = "E225F0DD-7274-4E95-954B-383A64365C0A";
paths = (
{
closed = 1;
nodes = (
"522 190 LINE",
"522 -195 LINE SMOOTH",
"522 -295 OFFCURVE",
"401 -443 OFFCURVE",
"269 -443 QCURVE SMOOTH",
"197 -443 OFFCURVE",
"67 -381 OFFCURVE",
"27 -329 QCURVE",
"90 -254 LINE",
"132 -295 OFFCURVE",
"207 -325 OFFCURVE",
"248 -325 QCURVE SMOOTH",
"292 -325 OFFCURVE",
"356 -265 OFFCURVE",
"356 -165 QCURVE SMOOTH",
"356 -86 OFFCURVE",
"356 150 OFFCURVE",
"356 150 QCURVE",
"419 190 LINE"
);
}
);
width = 629;
}
);
},
{
glyphname = horizontalbarH;
layers = (
{
layerId = "E225F0DD-7274-4E95-954B-383A64365C0A";
paths = (
{
closed = 1;
nodes = (
"1011 1045 LINE",
"1011 1132 LINE",
"1203 1134 LINE",
"1193 1047 LINE"
);
},
{
closed = 1;
nodes = (
"46 1132 LINE",
"245 1132 LINE",
"245 1045 LINE",
"55 1045 LINE"
);
},
{
closed = 1;
nodes = (
"245 1132 LINE",
"1011 1132 LINE",
"1011 1045 LINE",
"245 1045 LINE"
);
}
);
width = 1252;
}
);
},
{
glyphname = horizontalbarlc;
layers = (
{
layerId = "E225F0DD-7274-4E95-954B-383A64365C0A";
paths = (
{
closed = 1;
nodes = (
"24 685 LINE",
"35 772 LINE",
"306 772 LINE",
"541 772 LINE",
"541 685 LINE",
"266 685 LINE"
);
}
);
width = 571;
}
);
},
{
glyphname = idotless;
layers = (
{
layerId = "E225F0DD-7274-4E95-954B-383A64365C0A";
paths = (
{
closed = 1;
nodes = (
"177 914 LINE",
"278 914 LINE",
"93 0 LINE",
"-9 0 LINE"
);
}
);
width = 340;
}
);
leftKerningGroup = mnpr_LC;
rightKerningGroup = u_LC;
},
{
glyphname = jdotless;
layers = (
{
layerId = "E225F0DD-7274-4E95-954B-383A64365C0A";
paths = (
{
closed = 1;
nodes = (
"-295 -319 LINE",
"-281 -325 OFFCURVE",
"-226 -338 OFFCURVE",
"-203 -338 QCURVE SMOOTH",
"-136 -338 OFFCURVE",
"-48 -242 OFFCURVE",
"-34 -117 QCURVE SMOOTH",
"175 914 LINE",
"276 914 LINE",
"75 -90 LINE SMOOTH",
"43 -270 OFFCURVE",
"-105 -436 OFFCURVE",
"-220 -436 QCURVE SMOOTH",
"-249 -436 OFFCURVE",
"-306 -422 OFFCURVE",
"-321 -415 QCURVE"
);
}
);
width = 336;
}
);
rightKerningGroup = j_LC;
},
{
glyphname = zerosuperior;
layers = (
{
layerId = "E225F0DD-7274-4E95-954B-383A64365C0A";
paths = (
{
closed = 1;
nodes = (
"107 1192 LINE SMOOTH",
"135 1333 OFFCURVE",
"282 1477 OFFCURVE",
"396 1477 QCURVE SMOOTH",
"520 1476 OFFCURVE",
"608 1324 OFFCURVE",
"581 1190 QCURVE SMOOTH",
"531 940 LINE SMOOTH",
"504 804 OFFCURVE",
"358 659 OFFCURVE",
"239 659 QCURVE SMOOTH",
"121 660 OFFCURVE",
"30 806 OFFCURVE",
"57 942 QCURVE SMOOTH"
);
},
{
closed = 1;
nodes = (
"140 849 OFFCURVE",
"190 748 OFFCURVE",
"261 748 QCURVE SMOOTH",
"335 747 OFFCURVE",
"409 848 OFFCURVE",
"428 942 QCURVE SMOOTH",
"479 1190 LINE SMOOTH",
"498 1281 OFFCURVE",
"448 1380 OFFCURVE",
"374 1380 QCURVE SMOOTH",
"303 1381 OFFCURVE",
"229 1283 OFFCURVE",
"210 1190 QCURVE SMOOTH",
"159 942 LINE SMOOTH"
);
}
);
width = 613;
}
);
},
{
glyphname = gravecomb.case;
layers = (
{
layerId = "E225F0DD-7274-4E95-954B-383A64365C0A";
paths = (
{
closed = 1;
nodes = (
"261 1852 LINE",
"364 1931 LINE",
"643 1605 LINE",
"570 1550 LINE"
);
}
);
width = 1024;
}
);
},
{
glyphname = acutecomb.case;
layers = (
{
layerId = "E225F0DD-7274-4E95-954B-383A64365C0A";
paths = (
{
closed = 1;
nodes = (
"652 1920 LINE",
"755 1841 LINE",
"445 1545 LINE",
"372 1600 LINE"
);
}
);
width = 1024;
}
);
},
{
glyphname = circumflexcomb.case;
layers = (
{
layerId = "E225F0DD-7274-4E95-954B-383A64365C0A";
paths = (
{
closed = 1;
nodes = (
"795 1579 LINE",
"675 1579 LINE",
"508 1769 LINE",
"343 1579 LINE",
"230 1579 LINE",
"455 1862 LINE",
"567 1862 LINE"
);
}
);
width = 1024;
}
);
},
{
glyphname = tildecomb.case;
layers = (
{
layerId = "E225F0DD-7274-4E95-954B-383A64365C0A";
paths = (
{
closed = 1;
nodes = (
"236 1712 OFFCURVE",
"354 1788 OFFCURVE",
"414 1788 QCURVE SMOOTH",
"450 1788 OFFCURVE",
"513 1760 OFFCURVE",
"545 1740 QCURVE SMOOTH",
"576 1722 OFFCURVE",
"635 1690 OFFCURVE",
"668 1690 QCURVE SMOOTH",
"704 1690 OFFCURVE",
"770 1736 OFFCURVE",
"790 1766 QCURVE",
"854 1699 LINE",
"820 1640 OFFCURVE",
"707 1586 OFFCURVE",
"656 1586 QCURVE SMOOTH",
"613 1586 OFFCURVE",
"541 1626 OFFCURVE",
"514 1641 QCURVE SMOOTH",
"484 1658 OFFCURVE",
"425 1680 OFFCURVE",
"400 1680 QCURVE SMOOTH",
"358 1680 OFFCURVE",
"278 1619 OFFCURVE",
"262 1597 QCURVE",
"207 1660 LINE"
);
}
);
width = 1024;
}
);
},
{
glyphname = macroncomb.case;
layers = (
{
layerId = "E225F0DD-7274-4E95-954B-383A64365C0A";
paths = (
{
closed = 1;
nodes = (
"246 1717 LINE",
"778 1717 LINE",
"778 1619 LINE",
"246 1619 LINE"
);
}
);
width = 1024;
}
);
},
{
glyphname = brevecomb.case;
layers = (
{
layerId = "E225F0DD-7274-4E95-954B-383A64365C0A";
paths = (
{
closed = 1;
nodes = (
"803 1790 LINE",
"766 1694 OFFCURVE",
"609 1564 OFFCURVE",
"511 1564 QCURVE SMOOTH",
"401 1564 OFFCURVE",
"252 1710 OFFCURVE",
"219 1789 QCURVE",
"297 1825 LINE",
"348 1744 OFFCURVE",
"448 1672 OFFCURVE",
"510 1672 QCURVE SMOOTH",
"574 1672 OFFCURVE",
"676 1744 OFFCURVE",
"726 1825 QCURVE"
);
}
);
width = 1024;
}
);
},
{
glyphname = dotaccentcomb.case;
layers = (
{
layerId = "E225F0DD-7274-4E95-954B-383A64365C0A";
paths = (
{
closed = 1;
nodes = (
"421 1748 OFFCURVE",
"469 1802 OFFCURVE",
"513 1802 QCURVE SMOOTH",
"557 1802 OFFCURVE",
"604 1749 OFFCURVE",
"604 1709 QCURVE SMOOTH",
"604 1669 OFFCURVE",
"556 1614 OFFCURVE",
"512 1614 QCURVE SMOOTH",
"468 1614 OFFCURVE",
"421 1669 OFFCURVE",
"421 1709 QCURVE SMOOTH"
);
}
);
width = 1024;
}
);
},
{
glyphname = dieresiscomb.case;
layers = (
{
layerId = "E225F0DD-7274-4E95-954B-383A64365C0A";
paths = (
{
closed = 1;
nodes = (
"242 1737 OFFCURVE",
"283 1782 OFFCURVE",
"329 1782 QCURVE SMOOTH",
"371 1782 OFFCURVE",
"417 1737 OFFCURVE",
"417 1696 QCURVE SMOOTH",
"417 1662 OFFCURVE",
"371 1614 OFFCURVE",
"329 1614 QCURVE SMOOTH",
"283 1614 OFFCURVE",
"242 1662 OFFCURVE",
"242 1696 QCURVE SMOOTH"
);
},
{
closed = 1;
nodes = (
"607 1735 OFFCURVE",
"654 1780 OFFCURVE",
"694 1780 QCURVE SMOOTH",
"741 1780 OFFCURVE",
"782 1735 OFFCURVE",
"782 1694 QCURVE SMOOTH",
"782 1662 OFFCURVE",
"741 1612 OFFCURVE",
"694 1612 QCURVE SMOOTH",
"654 1612 OFFCURVE",
"607 1662 OFFCURVE",
"607 1694 QCURVE SMOOTH"
);
}
);
width = 1024;
}
);
},
{
glyphname = hookabovecomb.case;
layers = (
{
layerId = "E225F0DD-7274-4E95-954B-383A64365C0A";
paths = (
{
closed = 1;
nodes = (
"400 1579 LINE SMOOTH",
"400 1623 OFFCURVE",
"440 1656 OFFCURVE",
"537 1666 QCURVE SMOOTH",
"586 1671 OFFCURVE",
"634 1721 OFFCURVE",
"634 1767 QCURVE SMOOTH",
"634 1806 OFFCURVE",
"578 1847 OFFCURVE",
"520 1847 QCURVE SMOOTH",
"456 1847 OFFCURVE",
"345 1819 OFFCURVE",
"335 1811 QCURVE",
"288 1892 LINE",
"319 1908 OFFCURVE",
"454 1943 OFFCURVE",
"526 1943 QCURVE SMOOTH",
"631 1943 OFFCURVE",
"743 1845 OFFCURVE",
"743 1762 QCURVE SMOOTH",
"743 1676 OFFCURVE",
"623 1583 OFFCURVE",
"498 1574 QCURVE",
"498 1537 LINE",
"400 1537 LINE"
);
}
);
width = 1024;
}
);
},
{
glyphname = ringcomb.case;
layers = (
{
layerId = "E225F0DD-7274-4E95-954B-383A64365C0A";
paths = (
{
closed = 1;
nodes = (
"281 1849 OFFCURVE",
"414 1982 OFFCURVE",
"512 1982 QCURVE SMOOTH",
"608 1982 OFFCURVE",
"743 1849 OFFCURVE",
"743 1755 QCURVE SMOOTH",
"743 1661 OFFCURVE",
"608 1533 OFFCURVE",
"512 1533 QCURVE",
"414 1533 OFFCURVE",
"281 1661 OFFCURVE",
"281 1755 QCURVE SMOOTH"
);
},
{
closed = 1;
nodes = (
"374 1696 OFFCURVE",
"452 1619 OFFCURVE",
"512 1619 QCURVE SMOOTH",
"572 1619 OFFCURVE",
"650 1696 OFFCURVE",
"650 1755 QCURVE SMOOTH",
"650 1816 OFFCURVE",
"572 1895 OFFCURVE",
"512 1895 QCURVE SMOOTH",
"452 1895 OFFCURVE",
"374 1816 OFFCURVE",
"374 1755 QCURVE SMOOTH"
);
}
);
width = 1024;
}
);
},
{
glyphname = caroncomb.case;
layers = (
{
layerId = "E225F0DD-7274-4E95-954B-383A64365C0A";
paths = (
{
closed = 1;
nodes = (
"230 1862 LINE",
"350 1862 LINE",
"517 1672 LINE",
"682 1862 LINE",
"795 1862 LINE",
"570 1579 LINE",
"458 1579 LINE"
);
}
);
width = 1024;
}
);
},
{
glyphname = breveinvertedcomb.case;
layers = (
{
layerId = "E225F0DD-7274-4E95-954B-383A64365C0A";
paths = (
{
closed = 1;
nodes = (
"219 1610 LINE",
"252 1689 OFFCURVE",
"401 1835 OFFCURVE",
"511 1835 QCURVE SMOOTH",
"609 1835 OFFCURVE",
"766 1705 OFFCURVE",
"803 1609 QCURVE",
"726 1574 LINE",
"676 1655 OFFCURVE",
"574 1727 OFFCURVE",
"510 1727 QCURVE SMOOTH",
"448 1727 OFFCURVE",
"348 1655 OFFCURVE",
"297 1574 QCURVE"
);
}
);
width = 1024;
}
);
},
{
glyphname = horncomb.case;
layers = (
{
layerId = "E225F0DD-7274-4E95-954B-383A64365C0A";
paths = (
{
closed = 1;
nodes = (
"84 1456 LINE SMOOTH",
"166 1456 OFFCURVE",
"227 1499 OFFCURVE",
"227 1546 QCURVE SMOOTH",
"227 1592 OFFCURVE",
"207 1675 OFFCURVE",
"194 1711 QCURVE",
"284 1711 LINE",
"302 1679 OFFCURVE",
"335 1580 OFFCURVE",
"335 1516 QCURVE SMOOTH",
"335 1458 OFFCURVE",
"240 1375 OFFCURVE",
"144 1375 QCURVE SMOOTH",
"98 1375 OFFCURVE",
"26 1383 OFFCURVE",
"0 1389 QCURVE",
"0 1456 LINE"
);
}
);
width = 1024;
}
);
},
{
glyphname = commaaccentcomb.case;
layers = (
{
layerId = "E225F0DD-7274-4E95-954B-383A64365C0A";
paths = (
{
closed = 1;
nodes = (
"382 -544 OFFCURVE",
"419 -375 OFFCURVE",
"451 -236 QCURVE",
"584 -234 LINE",
"447 -651 LINE",
"353 -648 LINE"
);
}
);
width = 1024;
}
);
},
{
glyphname = cedillacomb.case;
layers = (
{
layerId = "E225F0DD-7274-4E95-954B-383A64365C0A";
paths = (
{
closed = 1;
nodes = (
"542 42 LINE",
"511 -63 LINE",
"609 -74 OFFCURVE",
"722 -148 OFFCURVE",
"722 -216 QCURVE SMOOTH",
"722 -319 OFFCURVE",
"525 -435 OFFCURVE",
"338 -435 QCURVE",
"331 -351 LINE",
"452 -351 OFFCURVE",
"609 -287 OFFCURVE",
"609 -228 QCURVE SMOOTH",
"609 -179 OFFCURVE",
"498 -139 OFFCURVE",
"394 -135 QCURVE",
"440 42 LINE"
);
}
);
width = 1024;
}
);
},
{
glyphname = ogonekcomb.case;
layers = (
{
layerId = "E225F0DD-7274-4E95-954B-383A64365C0A";
paths = (
{
closed = 1;
nodes = (
"292 -157 OFFCURVE",
"404 -21 OFFCURVE",
"507 43 QCURVE",
"582 3 LINE",
"503 -52 OFFCURVE",
"401 -167 OFFCURVE",
"401 -213 QCURVE SMOOTH",
"401 -248 OFFCURVE",
"447 -288 OFFCURVE",
"483 -288 QCURVE SMOOTH",
"524 -288 OFFCURVE",
"615 -267 OFFCURVE",
"647 -251 QCURVE",
"659 -338 LINE",
"624 -359 OFFCURVE",
"522 -381 OFFCURVE",
"470 -381 QCURVE SMOOTH",
"381 -381 OFFCURVE",
"292 -290 OFFCURVE",
"292 -224 QCURVE SMOOTH"
);
}
);
width = 1024;
}
);
},
{
glyphname = acutecombstack.case;
layers = (
{
layerId = "E225F0DD-7274-4E95-954B-383A64365C0A";
paths = (
{
closed = 1;
nodes = (
"705 1888 LINE",
"780 1782 LINE",
"395 1585 LINE",
"342 1660 LINE"
);
}
);
width = 1024;
}
);
},
{
glyphname = brevecombstack.case;
layers = (
{
layerId = "E225F0DD-7274-4E95-954B-383A64365C0A";
paths = (
{
closed = 1;
nodes = (
"803 1790 LINE",
"766 1694 OFFCURVE",
"609 1564 OFFCURVE",
"511 1564 QCURVE SMOOTH",
"401 1564 OFFCURVE",
"252 1710 OFFCURVE",
"219 1789 QCURVE",
"297 1825 LINE",
"348 1744 OFFCURVE",
"448 1672 OFFCURVE",
"510 1672 QCURVE SMOOTH",
"574 1672 OFFCURVE",
"676 1744 OFFCURVE",
"726 1825 QCURVE"
);
}
);
width = 1024;
}
);
},
{
glyphname = circumflexcombstack.case;
layers = (
{
layerId = "E225F0DD-7274-4E95-954B-383A64365C0A";
paths = (
{
closed = 1;
nodes = (
"795 1579 LINE",
"675 1579 LINE",
"508 1769 LINE",
"343 1579 LINE",
"230 1579 LINE",
"455 1862 LINE",
"567 1862 LINE"
);
}
);
width = 1024;
}
);
},
{
glyphname = dieresiscombstack.case;
layers = (
{
layerId = "E225F0DD-7274-4E95-954B-383A64365C0A";
paths = (
{
closed = 1;
nodes = (
"242 1737 OFFCURVE",
"283 1782 OFFCURVE",
"329 1782 QCURVE SMOOTH",
"371 1782 OFFCURVE",
"417 1737 OFFCURVE",
"417 1696 QCURVE SMOOTH",
"417 1662 OFFCURVE",
"371 1614 OFFCURVE",
"329 1614 QCURVE SMOOTH",
"283 1614 OFFCURVE",
"242 1662 OFFCURVE",
"242 1696 QCURVE SMOOTH"
);
},
{
closed = 1;
nodes = (
"607 1735 OFFCURVE",
"654 1780 OFFCURVE",
"694 1780 QCURVE SMOOTH",
"741 1780 OFFCURVE",
"782 1735 OFFCURVE",
"782 1694 QCURVE SMOOTH",
"782 1662 OFFCURVE",
"741 1612 OFFCURVE",
"694 1612 QCURVE SMOOTH",
"654 1612 OFFCURVE",
"607 1662 OFFCURVE",
"607 1694 QCURVE SMOOTH"
);
}
);
width = 1024;
}
);
},
{
glyphname = dotaccentcombstack.case;
layers = (
{
layerId = "E225F0DD-7274-4E95-954B-383A64365C0A";
paths = (
{
closed = 1;
nodes = (
"421 1748 OFFCURVE",
"469 1802 OFFCURVE",
"513 1802 QCURVE SMOOTH",
"557 1802 OFFCURVE",
"604 1749 OFFCURVE",
"604 1709 QCURVE SMOOTH",
"604 1669 OFFCURVE",
"556 1614 OFFCURVE",
"512 1614 QCURVE SMOOTH",
"468 1614 OFFCURVE",
"421 1669 OFFCURVE",
"421 1709 QCURVE SMOOTH"
);
}
);
width = 1024;
}
);
},
{
glyphname = gravecombstack.case;
layers = (
{
layerId = "E225F0DD-7274-4E95-954B-383A64365C0A";
paths = (
{
closed = 1;
nodes = (
"254 1782 LINE",
"329 1888 LINE",
"692 1660 LINE",
"639 1585 LINE"
);
}
);
width = 1024;
}
);
},
{
glyphname = hookabovecombstack.case;
layers = (
{
layerId = "E225F0DD-7274-4E95-954B-383A64365C0A";
paths = (
{
closed = 1;
nodes = (
"380 1596 LINE SMOOTH",
"380 1640 OFFCURVE",
"420 1673 OFFCURVE",
"517 1683 QCURVE SMOOTH",
"566 1688 OFFCURVE",
"614 1738 OFFCURVE",
"614 1784 QCURVE SMOOTH",
"614 1823 OFFCURVE",
"558 1864 OFFCURVE",
"500 1864 QCURVE SMOOTH",
"436 1864 OFFCURVE",
"325 1836 OFFCURVE",
"315 1828 QCURVE",
"268 1909 LINE",
"299 1925 OFFCURVE",
"434 1960 OFFCURVE",
"506 1960 QCURVE SMOOTH",
"611 1960 OFFCURVE",
"723 1862 OFFCURVE",
"723 1779 QCURVE SMOOTH",
"723 1693 OFFCURVE",
"603 1600 OFFCURVE",
"478 1591 QCURVE",
"478 1554 LINE",
"380 1554 LINE"
);
}
);
width = 1024;
}
);
},
{
glyphname = macroncombstack.case;
layers = (
{
layerId = "E225F0DD-7274-4E95-954B-383A64365C0A";
paths = (
{
closed = 1;
nodes = (
"246 1717 LINE",
"778 1717 LINE",
"778 1619 LINE",
"246 1619 LINE"
);
}
);
width = 1024;
}
);
},
{
glyphname = tildecombstack.case;
layers = (
{
layerId = "E225F0DD-7274-4E95-954B-383A64365C0A";
paths = (
{
closed = 1;
nodes = (
"236 1712 OFFCURVE",
"354 1788 OFFCURVE",
"414 1788 QCURVE SMOOTH",
"450 1788 OFFCURVE",
"513 1760 OFFCURVE",
"545 1740 QCURVE SMOOTH",
"576 1722 OFFCURVE",
"635 1690 OFFCURVE",
"668 1690 QCURVE SMOOTH",
"704 1690 OFFCURVE",
"770 1736 OFFCURVE",
"790 1766 QCURVE",
"854 1699 LINE",
"820 1640 OFFCURVE",
"707 1586 OFFCURVE",
"656 1586 QCURVE SMOOTH",
"613 1586 OFFCURVE",
"541 1626 OFFCURVE",
"514 1641 QCURVE SMOOTH",
"484 1658 OFFCURVE",
"425 1680 OFFCURVE",
"400 1680 QCURVE SMOOTH",
"358 1680 OFFCURVE",
"278 1619 OFFCURVE",
"262 1597 QCURVE",
"207 1660 LINE"
);
}
);
width = 1024;
}
);
},
{
glyphname = caroncomb.alt;
layers = (
{
layerId = "E225F0DD-7274-4E95-954B-383A64365C0A";
paths = (
{
closed = 1;
nodes = (
"508 1480 LINE",
"638 1442 LINE",
"474 1072 LINE",
"386 1092 LINE"
);
}
);
width = 1024;
}
);
},
{
glyphname = dollar.rvrn;
layers = (
{
layerId = "E225F0DD-7274-4E95-954B-383A64365C0A";
paths = (
{
closed = 1;
nodes = (
"-1 429 LINE",
"101 429 LINE",
"99 415 LINE SMOOTH",
"76 256 OFFCURVE",
"214 93 OFFCURVE",
"354 93 QCURVE SMOOTH",
"493 93 OFFCURVE",
"664 245 OFFCURVE",
"680 357 QCURVE SMOOTH",
"698 483 OFFCURVE",
"619 645 OFFCURVE",
"446 700 QCURVE SMOOTH",
"277 754 OFFCURVE",
"132 973 OFFCURVE",
"156 1130 QCURVE SMOOTH",
"178 1281 OFFCURVE",
"407 1456 OFFCURVE",
"576 1456 QCURVE SMOOTH",
"741 1456 OFFCURVE",
"911 1216 OFFCURVE",
"883 1045 QCURVE SMOOTH",
"881 1033 LINE",
"778 1033 LINE",
"780 1045 LINE SMOOTH",
"799 1190 OFFCURVE",
"683 1363 OFFCURVE",
"550 1363 QCURVE SMOOTH",
"416 1363 OFFCURVE",
"275 1243 OFFCURVE",
"257 1116 QCURVE SMOOTH",
"243 1006 OFFCURVE",
"329 844 OFFCURVE",
"512 781 QCURVE SMOOTH",
"686 721 OFFCURVE",
"808 518 OFFCURVE",
"783 362 QCURVE SMOOTH",
"757 199 OFFCURVE",
"520 1 OFFCURVE",
"328 1 QCURVE SMOOTH",
"168 1 OFFCURVE",
"-30 204 OFFCURVE",
"-4 406 QCURVE SMOOTH"
);
},
{
closed = 1;
nodes = (
"295 81 LINE",
"386 81 LINE",
"381 50 LINE",
"383 40 LINE",
"340 -150 LINE",
"252 -150 LINE"
);
},
{
closed = 1;
nodes = (
"527 1396 LINE",
"524 1406 LINE",
"558 1606 LINE",
"646 1606 LINE",
"609 1383 LINE",
"525 1383 LINE"
);
}
);
width = 896;
}
);
},
{
glyphname = zero.prop;
layers = (
{
layerId = "E225F0DD-7274-4E95-954B-383A64365C0A";
paths = (
{
closed = 1;
nodes = (
"110 996 LINE SMOOTH",
"110 1216 OFFCURVE",
"358 1486 OFFCURVE",
"578 1486 QCURVE SMOOTH",
"796 1486 OFFCURVE",
"1046 1216 OFFCURVE",
"1046 996 QCURVE SMOOTH",
"1046 460 LINE SMOOTH",
"1046 240 OFFCURVE",
"796 -30 OFFCURVE",
"578 -30 QCURVE SMOOTH",
"358 -30 OFFCURVE",
"110 240 OFFCURVE",
"110 460 QCURVE SMOOTH"
);
},
{
closed = 1;
nodes = (
"304 310 OFFCURVE",
"438 128 OFFCURVE",
"578 128 QCURVE SMOOTH",
"718 128 OFFCURVE",
"852 310 OFFCURVE",
"852 450 QCURVE SMOOTH",
"852 1006 LINE SMOOTH",
"852 1146 OFFCURVE",
"718 1328 OFFCURVE",
"578 1328 QCURVE SMOOTH",
"438 1328 OFFCURVE",
"304 1146 OFFCURVE",
"304 1006 QCURVE SMOOTH",
"304 450 LINE SMOOTH"
);
}
);
width = 1156;
}
);
},
{
glyphname = one.prop;
layers = (
{
layerId = "E225F0DD-7274-4E95-954B-383A64365C0A";
paths = (
{
closed = 1;
nodes = (
"393 1245 LINE",
"25 1090 LINE",
"25 1276 LINE",
"555 1476 LINE",
"585 1476 LINE",
"585 0 LINE",
"393 0 LINE"
);
}
);
width = 736;
}
);
},
{
glyphname = two.prop;
layers = (
{
layerId = "E225F0DD-7274-4E95-954B-383A64365C0A";
paths = (
{
closed = 1;
nodes = (
"26 140 LINE",
"546 700 LINE SMOOTH",
"650 810 OFFCURVE",
"756 980 OFFCURVE",
"756 1080 QCURVE SMOOTH",
"756 1180 OFFCURVE",
"621 1328 OFFCURVE",
"501 1328 QCURVE SMOOTH",
"381 1328 OFFCURVE",
"216 1170 OFFCURVE",
"216 1030 QCURVE SMOOTH",
"216 1020 LINE",
"26 1020 LINE",
"26 1030 LINE SMOOTH",
"26 1230 OFFCURVE",
"301 1486 OFFCURVE",
"501 1486 QCURVE SMOOTH",
"701 1486 OFFCURVE",
"946 1250 OFFCURVE",
"946 1090 QCURVE SMOOTH",
"946 948 OFFCURVE",
"786 716 OFFCURVE",
"671 595 QCURVE SMOOTH",
"256 156 LINE",
"986 156 LINE",
"986 0 LINE",
"26 0 LINE"
);
}
);
width = 988;
}
);
},
{
glyphname = three.prop;
layers = (
{
layerId = "E225F0DD-7274-4E95-954B-383A64365C0A";
paths = (
{
closed = 1;
nodes = (
"17 390 LINE",
"203 390 LINE",
"203 380 LINE SMOOTH",
"203 260 OFFCURVE",
"363 128 OFFCURVE",
"495 128 QCURVE SMOOTH",
"627 128 OFFCURVE",
"785 260 OFFCURVE",
"785 400 QCURVE SMOOTH",
"785 540 OFFCURVE",
"607 682 OFFCURVE",
"457 682 QCURVE SMOOTH",
"342 682 LINE",
"342 836 LINE",
"447 836 LINE SMOOTH",
"585 836 OFFCURVE",
"735 970 OFFCURVE",
"735 1090 QCURVE SMOOTH",
"735 1210 OFFCURVE",
"605 1328 OFFCURVE",
"495 1328 QCURVE SMOOTH",
"385 1328 OFFCURVE",
"243 1210 OFFCURVE",
"243 1100 QCURVE SMOOTH",
"243 1090 LINE",
"57 1090 LINE",
"57 1100 LINE SMOOTH",
"57 1260 OFFCURVE",
"305 1486 OFFCURVE",
"495 1486 QCURVE SMOOTH",
"685 1486 OFFCURVE",
"927 1270 OFFCURVE",
"927 1100 QCURVE SMOOTH",
"927 1000 OFFCURVE",
"817 816 OFFCURVE",
"701 766 QCURVE",
"701 762 LINE",
"827 730 OFFCURVE",
"979 540 OFFCURVE",
"979 401 QCURVE SMOOTH",
"979 200 OFFCURVE",
"705 -30 OFFCURVE",
"495 -30 QCURVE SMOOTH",
"285 -30 OFFCURVE",
"17 200 OFFCURVE",
"17 380 QCURVE SMOOTH"
);
}
);
width = 1051;
}
);
},
{
glyphname = four.prop;
layers = (
{
layerId = "E225F0DD-7274-4E95-954B-383A64365C0A";
paths = (
{
closed = 1;
nodes = (
"623 398 LINE",
"623 450 LINE",
"623 1149 LINE",
"611 1149 LINE",
"206 500 LINE",
"674 500 LINE",
"751 500 LINE",
"1007 500 LINE",
"1007 342 LINE",
"-13 342 LINE",
"-13 468 LINE",
"631 1456 LINE",
"803 1456 LINE",
"803 0 LINE",
"623 0 LINE"
);
}
);
width = 1011;
}
);
},
{
glyphname = five.prop;
layers = (
{
layerId = "E225F0DD-7274-4E95-954B-383A64365C0A";
paths = (
{
closed = 1;
nodes = (
"58 375 LINE",
"242 375 LINE",
"242 365 LINE SMOOTH",
"242 255 OFFCURVE",
"398 128 OFFCURVE",
"528 128 QCURVE SMOOTH",
"658 128 OFFCURVE",
"824 305 OFFCURVE",
"824 465 QCURVE SMOOTH",
"824 625 OFFCURVE",
"658 793 OFFCURVE",
"528 793 QCURVE SMOOTH",
"438 793 OFFCURVE",
"300 728 OFFCURVE",
"240 668 QCURVE",
"108 730 LINE",
"182 1456 LINE",
"938 1456 LINE",
"938 1286 LINE",
"338 1286 LINE",
"294 876 LINE",
"344 906 OFFCURVE",
"478 952 OFFCURVE",
"558 952 QCURVE SMOOTH",
"748 952 OFFCURVE",
"1014 695 OFFCURVE",
"1014 465 QCURVE SMOOTH",
"1014 235 OFFCURVE",
"738 -30 OFFCURVE",
"528 -30 QCURVE SMOOTH",
"318 -30 OFFCURVE",
"58 195 OFFCURVE",
"58 365 QCURVE SMOOTH"
);
}
);
width = 1072;
}
);
},
{
glyphname = six.prop;
layers = (
{
layerId = "E225F0DD-7274-4E95-954B-383A64365C0A";
paths = (
{
closed = 1;
nodes = (
"80 644 LINE SMOOTH",
"80 1024 OFFCURVE",
"492 1486 OFFCURVE",
"872 1486 QCURVE SMOOTH",
"892 1486 LINE",
"892 1328 LINE",
"872 1328 LINE SMOOTH",
"592 1328 OFFCURVE",
"268 1004 OFFCURVE",
"268 654 QCURVE SMOOTH",
"268 604 LINE SMOOTH",
"268 344 OFFCURVE",
"452 128 OFFCURVE",
"592 128 QCURVE SMOOTH",
"732 128 OFFCURVE",
"886 304 OFFCURVE",
"886 464 QCURVE SMOOTH",
"886 624 OFFCURVE",
"732 798 OFFCURVE",
"592 798 QCURVE SMOOTH",
"462 798 OFFCURVE",
"262 624 OFFCURVE",
"262 464 QCURVE",
"192 464 LINE",
"192 684 OFFCURVE",
"432 956 OFFCURVE",
"632 956 QCURVE SMOOTH",
"832 956 OFFCURVE",
"1076 684 OFFCURVE",
"1076 464 QCURVE SMOOTH",
"1076 244 OFFCURVE",
"802 -30 OFFCURVE",
"592 -30 QCURVE SMOOTH",
"382 -30 OFFCURVE",
"80 274 OFFCURVE",
"80 614 QCURVE SMOOTH"
);
}
);
width = 1136;
}
);
},
{
glyphname = seven.prop;
layers = (
{
layerId = "E225F0DD-7274-4E95-954B-383A64365C0A";
paths = (
{
closed = 1;
nodes = (
"673 1300 LINE",
"-3 1300 LINE",
"-3 1456 LINE",
"871 1456 LINE",
"871 1352 LINE",
"409 0 LINE",
"213 0 LINE"
);
}
);
width = 882;
}
);
},
{
glyphname = eight.prop;
layers = (
{
layerId = "E225F0DD-7274-4E95-954B-383A64365C0A";
paths = (
{
closed = 1;
nodes = (
"104 516 OFFCURVE",
"246 698 OFFCURVE",
"358 743 QCURVE",
"358 747 LINE",
"272 790 OFFCURVE",
"150 967 OFFCURVE",
"150 1087 QCURVE SMOOTH",
"150 1267 OFFCURVE",
"398 1486 OFFCURVE",
"578 1486 QCURVE SMOOTH",
"758 1486 OFFCURVE",
"1006 1267 OFFCURVE",
"1006 1087 QCURVE SMOOTH",
"1006 967 OFFCURVE",
"884 790 OFFCURVE",
"798 747 QCURVE",
"798 743 LINE",
"910 698 OFFCURVE",
"1052 516 OFFCURVE",
"1052 386 QCURVE SMOOTH",
"1052 188 OFFCURVE",
"778 -30 OFFCURVE",
"578 -30 QCURVE SMOOTH",
"378 -30 OFFCURVE",
"104 188 OFFCURVE",
"104 386 QCURVE SMOOTH"
);
},
{
closed = 1;
nodes = (
"292 276 OFFCURVE",
"448 128 OFFCURVE",
"578 128 QCURVE SMOOTH",
"708 128 OFFCURVE",
"864 276 OFFCURVE",
"864 396 QCURVE SMOOTH",
"864 516 OFFCURVE",
"708 666 OFFCURVE",
"578 666 QCURVE SMOOTH",
"448 666 OFFCURVE",
"292 516 OFFCURVE",
"292 396 QCURVE SMOOTH"
);
},
{
closed = 1;
nodes = (
"334 967 OFFCURVE",
"468 824 OFFCURVE",
"578 824 QCURVE SMOOTH",
"688 824 OFFCURVE",
"822 967 OFFCURVE",
"822 1077 QCURVE SMOOTH",
"822 1187 OFFCURVE",
"688 1328 OFFCURVE",
"578 1328 QCURVE SMOOTH",
"468 1328 OFFCURVE",
"334 1187 OFFCURVE",
"334 1077 QCURVE SMOOTH"
);
}
);
width = 1156;
}
);
},
{
glyphname = nine.prop;
layers = (
{
layerId = "E225F0DD-7274-4E95-954B-383A64365C0A";
paths = (
{
closed = 1;
nodes = (
"60 1218 OFFCURVE",
"334 1486 OFFCURVE",
"544 1486 QCURVE SMOOTH",
"754 1486 OFFCURVE",
"1056 1182 OFFCURVE",
"1056 842 QCURVE SMOOTH",
"1056 812 LINE SMOOTH",
"1056 432 OFFCURVE",
"644 -30 OFFCURVE",
"264 -30 QCURVE SMOOTH",
"244 -30 LINE",
"244 128 LINE",
"264 128 LINE SMOOTH",
"544 128 OFFCURVE",
"868 452 OFFCURVE",
"868 802 QCURVE SMOOTH",
"868 852 LINE SMOOTH",
"868 1112 OFFCURVE",
"684 1328 OFFCURVE",
"544 1328 QCURVE SMOOTH",
"404 1328 OFFCURVE",
"250 1157 OFFCURVE",
"250 1002 QCURVE SMOOTH",
"250 847 OFFCURVE",
"404 678 OFFCURVE",
"544 678 QCURVE SMOOTH",
"674 678 OFFCURVE",
"874 847 OFFCURVE",
"874 1002 QCURVE",
"944 1002 LINE",
"944 786 OFFCURVE",
"704 520 OFFCURVE",
"504 520 QCURVE SMOOTH",
"305 520 OFFCURVE",
"60 786 OFFCURVE",
"60 1002 QCURVE SMOOTH"
);
}
);
width = 1136;
}
);
},
{
glyphname = .notdef;
layers = (
{
layerId = "E225F0DD-7274-4E95-954B-383A64365C0A";
paths = (
{
closed = 1;
nodes = (
"127 1456 LINE",
"127 1402 LINE",
"777 1402 LINE",
"777 1456 LINE"
);
},
{
closed = 1;
nodes = (
"100 1456 LINE",
"100 0 LINE",
"154 0 LINE",
"154 1456 LINE"
);
},
{
closed = 1;
nodes = (
"808 0 LINE",
"754 0 LINE",
"754 1456 LINE",
"808 1456 LINE"
);
},
{
closed = 1;
nodes = (
"127 54 LINE",
"127 0 LINE",
"777 0 LINE",
"777 54 LINE"
);
},
{
closed = 1;
nodes = (
"184 30 LINE",
"126 30 LINE",
"719 1426 LINE",
"777 1426 LINE"
);
},
{
closed = 1;
nodes = (
"777 30 LINE",
"184 1426 LINE",
"126 1426 LINE",
"719 30 LINE"
);
}
